<svg xmlns="http://www.w3.org/2000/svg" xmlns:xlink="http://www.w3.org/1999/xlink" width="80" zoomAndPan="magnify" viewBox="0 0 60 60" height="80" preserveAspectRatio="xMidYMid meet" version="1.0"><defs><clipPath id="8f1532db56"><path d="M 7.066406 9.582031 L 52.816406 9.582031 L 52.816406 47.832031 L 7.066406 47.832031 Z M 7.066406 9.582031 " clip-rule="nonzero"/></clipPath></defs><g clip-path="url(#8f1532db56)"><path fill="#000000" d="M 10.757812 15.863281 L 11.644531 15.863281 L 11.644531 12.726562 C 11.644531 12.398438 11.910156 12.128906 12.234375 12.128906 L 18.726562 12.128906 C 19.050781 12.128906 19.316406 12.398438 19.316406 12.726562 L 19.316406 15.863281 L 21.5625 15.863281 C 22.328125 13.386719 23.203125 10.75 25.835938 9.742188 C 28.359375 9.742188 30.886719 9.742188 33.414062 9.742188 C 36.328125 9.582031 37.601562 13.601562 38.324219 15.863281 L 49.121094 15.863281 C 51.148438 15.863281 52.808594 17.542969 52.808594 19.597656 L 52.808594 44.097656 C 52.808594 46.152344 51.148438 47.832031 49.121094 47.832031 L 10.757812 47.832031 C 8.730469 47.832031 7.070312 46.152344 7.070312 44.097656 L 7.070312 19.597656 C 7.070312 17.542969 8.730469 15.863281 10.757812 15.863281 Z M 17.546875 13.175781 L 17.546875 15.863281 L 18.136719 15.863281 L 18.136719 13.175781 Z M 16.957031 15.863281 L 16.957031 13.175781 L 16.367188 13.175781 L 16.367188 15.863281 Z M 15.777344 15.863281 L 15.777344 13.175781 L 15.183594 13.175781 L 15.183594 15.863281 Z M 14.59375 15.863281 L 14.59375 13.175781 L 14.003906 13.175781 L 14.003906 15.863281 Z M 13.414062 15.863281 L 13.414062 13.175781 L 12.824219 13.175781 L 12.824219 15.863281 Z M 26.105469 11.238281 C 31.023438 11.238281 33.480469 11.238281 33.480469 11.238281 C 34.660156 11.238281 35.726562 12.597656 36.726562 15.71875 C 36.726562 15.71875 32.203125 15.71875 23.152344 15.71875 C 23.933594 13.183594 24.917969 11.691406 26.105469 11.238281 Z M 10.757812 17.359375 L 49.121094 17.359375 C 50.339844 17.359375 51.335938 18.367188 51.335938 19.597656 L 51.335938 44.097656 C 51.335938 45.332031 50.339844 46.339844 49.121094 46.339844 L 10.757812 46.339844 C 9.542969 46.339844 8.546875 45.332031 8.546875 44.097656 L 8.546875 19.597656 C 8.546875 18.367188 9.542969 17.359375 10.757812 17.359375 Z M 10.757812 17.359375 " fill-opacity="1" fill-rule="evenodd"/></g><path fill="#000000" d="M 40.5625 19 L 46.464844 19 L 46.464844 21.988281 L 40.5625 21.988281 Z M 41.152344 19.597656 L 45.875 19.597656 L 45.875 21.390625 L 41.152344 21.390625 Z M 41.152344 19.597656 " fill-opacity="1" fill-rule="evenodd"/><path fill="#000000" d="M 35.796875 23.78125 L 41.742188 23.78125 L 41.742188 24.378906 L 36.585938 24.378906 C 36.332031 24.167969 36.070312 23.96875 35.796875 23.78125 Z M 35.796875 23.78125 " fill-opacity="1" fill-rule="evenodd"/><path fill="#000000" d="M 8.398438 23.78125 L 24.230469 23.78125 C 23.957031 23.96875 23.695312 24.167969 23.441406 24.378906 L 8.398438 24.378906 Z M 8.398438 23.78125 " fill-opacity="1" fill-rule="evenodd"/><path fill="#000000" d="M 44.695312 23.78125 L 49.417969 23.78125 L 49.417969 24.378906 L 44.695312 24.378906 Z M 44.695312 23.78125 " fill-opacity="1" fill-rule="evenodd"/><path fill="#000000" d="M 35.972656 40.988281 L 49.269531 40.988281 L 49.269531 41.859375 L 34.519531 41.859375 C 35.03125 41.605469 35.515625 41.316406 35.972656 40.988281 Z M 35.972656 40.988281 " fill-opacity="1" fill-rule="evenodd"/><path fill="#000000" d="M 8.546875 40.988281 L 24.054688 40.988281 C 24.511719 41.316406 24.996094 41.605469 25.507812 41.859375 L 8.546875 41.859375 Z M 8.546875 40.988281 " fill-opacity="1" fill-rule="evenodd"/><path fill="#000000" d="M 30.011719 25.648438 C 33.722656 25.648438 36.726562 28.691406 36.726562 32.445312 C 36.726562 36.199219 33.722656 39.242188 30.011719 39.242188 C 26.304688 39.242188 23.300781 36.199219 23.300781 32.445312 C 23.300781 28.691406 26.304688 25.648438 30.011719 25.648438 Z M 30.011719 26.546875 C 33.234375 26.546875 35.84375 29.1875 35.84375 32.445312 C 35.84375 35.707031 33.234375 38.347656 30.011719 38.347656 C 26.792969 38.347656 24.183594 35.707031 24.183594 32.445312 C 24.183594 29.1875 26.792969 26.546875 30.011719 26.546875 Z M 30.011719 26.546875 " fill-opacity="1" fill-rule="evenodd"/><path fill="#000000" d="M 30.011719 21.988281 C 35.71875 21.988281 40.34375 26.671875 40.34375 32.445312 C 40.34375 38.222656 35.71875 42.902344 30.011719 42.902344 C 24.308594 42.902344 19.683594 38.222656 19.683594 32.445312 C 19.683594 26.671875 24.308594 21.988281 30.011719 21.988281 Z M 30.011719 23.367188 C 34.964844 23.367188 38.980469 27.433594 38.980469 32.445312 C 38.980469 37.460938 34.964844 41.523438 30.011719 41.523438 C 25.0625 41.523438 21.046875 37.460938 21.046875 32.445312 C 21.046875 27.433594 25.0625 23.367188 30.011719 23.367188 Z M 30.011719 23.367188 " fill-opacity="1" fill-rule="evenodd"/><path fill="#000000" d="M 32.449219 29.03125 C 33.375 29.03125 34.125 29.789062 34.125 30.726562 C 34.125 31.664062 33.375 32.425781 32.449219 32.425781 C 31.523438 32.425781 30.773438 31.664062 30.773438 30.726562 C 30.773438 29.789062 31.523438 29.03125 32.449219 29.03125 Z M 32.449219 29.253906 C 33.253906 29.253906 33.902344 29.914062 33.902344 30.726562 C 33.902344 31.542969 33.253906 32.203125 32.449219 32.203125 C 31.644531 32.203125 30.992188 31.542969 30.992188 30.726562 C 30.992188 29.914062 31.644531 29.253906 32.449219 29.253906 Z M 32.449219 29.253906 " fill-opacity="1" fill-rule="evenodd"/></svg>