<svg xmlns="http://www.w3.org/2000/svg" xmlns:xlink="http://www.w3.org/1999/xlink" width="80" zoomAndPan="magnify" viewBox="0 0 60 60" height="80" preserveAspectRatio="xMidYMid meet" version="1.0"><defs><clipPath id="3842837b70"><path d="M 3.425781 5 L 28 5 L 28 56 L 3.425781 56 Z M 3.425781 5 " clip-rule="nonzero"/></clipPath><clipPath id="aec0f0d0fc"><path d="M 32 8 L 55.925781 8 L 55.925781 58.023438 L 32 58.023438 Z M 32 8 " clip-rule="nonzero"/></clipPath><clipPath id="4bcc50fe92"><path d="M 30 1.023438 L 32 1.023438 L 32 8 L 30 8 Z M 30 1.023438 " clip-rule="nonzero"/></clipPath></defs><g clip-path="url(#3842837b70)"><path fill="#040606" d="M 23.199219 24.417969 L 9.480469 24.417969 L 15.570312 6.3125 L 26.304688 9.171875 Z M 26.570312 8.214844 L 15.828125 5.351562 C 15.746094 5.328125 15.660156 5.316406 15.574219 5.316406 C 15.144531 5.316406 14.765625 5.589844 14.628906 5.992188 L 7.636719 26.757812 C 7.511719 27.066406 7.414062 27.363281 7.332031 27.660156 C 6.453125 30.929688 7.757812 34.398438 10.578125 36.289062 C 10.960938 36.550781 11.183594 37.050781 11.082031 37.429688 L 7.851562 49.429688 C 7.75 49.804688 7.308594 50.117188 6.851562 50.144531 C 5.3125 50.222656 4.121094 50.777344 3.585938 51.667969 C 3.449219 51.894531 3.429688 52.164062 3.527344 52.410156 C 3.632812 52.671875 3.867188 52.875 4.152344 52.953125 L 12.777344 55.253906 C 12.859375 55.273438 12.941406 55.285156 13.027344 55.285156 C 13.273438 55.285156 13.511719 55.1875 13.675781 55.019531 C 13.832031 54.859375 13.917969 54.648438 13.914062 54.425781 C 13.894531 53.386719 13.144531 52.3125 11.851562 51.476562 C 11.464844 51.226562 11.242188 50.738281 11.34375 50.363281 L 14.574219 38.363281 C 14.675781 37.980469 15.117188 37.660156 15.582031 37.625 C 18.972656 37.390625 21.84375 35.035156 22.722656 31.765625 C 22.804688 31.472656 22.867188 31.15625 22.910156 30.859375 L 27.285156 9.367188 C 27.390625 8.859375 27.074219 8.351562 26.570312 8.214844 " fill-opacity="1" fill-rule="nonzero"/></g><g clip-path="url(#aec0f0d0fc)"><path fill="#040606" d="M 43.769531 9.050781 L 48.945312 24.421875 L 35.585938 24.421875 L 33.035156 11.921875 Z M 55.761719 54.410156 C 55.222656 53.519531 54.035156 52.960938 52.496094 52.882812 C 52.035156 52.859375 51.597656 52.542969 51.496094 52.167969 L 48.265625 40.171875 C 48.164062 39.789062 48.386719 39.289062 48.769531 39.03125 C 51.589844 37.140625 52.894531 33.671875 52.011719 30.398438 C 51.933594 30.105469 51.832031 29.800781 51.71875 29.523438 L 44.71875 8.734375 C 44.582031 8.328125 44.203125 8.058594 43.769531 8.058594 C 43.6875 8.058594 43.601562 8.070312 43.519531 8.089844 L 32.777344 10.957031 C 32.269531 11.089844 31.957031 11.597656 32.058594 12.109375 L 36.433594 33.570312 C 36.480469 33.898438 36.542969 34.210938 36.625 34.503906 C 37.503906 37.777344 40.375 40.128906 43.765625 40.367188 C 44.230469 40.398438 44.671875 40.722656 44.773438 41.101562 L 48.003906 53.101562 C 48.105469 53.476562 47.882812 53.964844 47.496094 54.214844 C 46.203125 55.050781 45.453125 56.125 45.433594 57.164062 C 45.429688 57.390625 45.515625 57.601562 45.671875 57.761719 C 45.835938 57.929688 46.074219 58.023438 46.320312 58.023438 C 46.402344 58.023438 46.488281 58.011719 46.566406 57.992188 L 55.195312 55.691406 C 55.480469 55.613281 55.714844 55.414062 55.820312 55.148438 C 55.917969 54.90625 55.898438 54.636719 55.761719 54.410156 " fill-opacity="1" fill-rule="nonzero"/></g><path fill="#040606" d="M 26.246094 3.609375 L 29.058594 8.296875 L 27.378906 3.101562 L 26.246094 3.609375 " fill-opacity="1" fill-rule="nonzero"/><g clip-path="url(#4bcc50fe92)"><path fill="#040606" d="M 30.070312 1.023438 L 30.171875 7.984375 L 31.644531 1.179688 L 30.070312 1.023438 " fill-opacity="1" fill-rule="nonzero"/></g><path fill="#040606" d="M 34.160156 3.160156 L 31.296875 8.273438 L 35.242188 3.933594 L 34.160156 3.160156 " fill-opacity="1" fill-rule="nonzero"/><path fill="#040606" d="M 36.75 7.59375 L 36.296875 6.597656 L 32.125 9.078125 L 36.75 7.59375 " fill-opacity="1" fill-rule="nonzero"/></svg>