<svg xmlns="http://www.w3.org/2000/svg" xmlns:xlink="http://www.w3.org/1999/xlink" width="40" zoomAndPan="magnify" viewBox="0 0 30 30.000001" height="40" preserveAspectRatio="xMidYMid meet" version="1.0"><defs><clipPath id="e95817f88d"><path d="M 27 29 L 29 29 L 29 29.03125 L 27 29.03125 Z M 27 29 " clip-rule="nonzero"/></clipPath><clipPath id="33577adc81"><path d="M 4 0.648438 L 25.730469 0.648438 L 25.730469 28.230469 L 4 28.230469 Z M 4 0.648438 " clip-rule="nonzero"/></clipPath></defs><g clip-path="url(#e95817f88d)"><path fill="#000000" d="M 28.648438 29.320312 C 28.621094 29.179688 28.445312 29.203125 28.359375 29.328125 C 28.105469 29.695312 27.980469 28.976562 27.738281 29.203125 C 27.613281 29.324219 27.859375 29.914062 28.027344 30.078125 C 28.058594 30.109375 28.105469 30.113281 28.140625 30.085938 C 28.410156 29.882812 28.667969 29.433594 28.648438 29.320312 Z M 28.851562 29.355469 C 28.898438 29.652344 28.496094 30.3125 28.175781 30.371094 C 27.976562 30.40625 27.726562 29.820312 27.648438 29.605469 C 27.582031 29.421875 27.542969 29.125 27.761719 29.074219 C 27.960938 29.027344 28.09375 29.199219 28.214844 29.332031 C 28.46875 29.117188 28.777344 28.855469 28.851562 29.355469 " fill-opacity="1" fill-rule="nonzero"/></g><g clip-path="url(#33577adc81)"><path fill="#000000" d="M 21.640625 5.742188 C 21.546875 5.652344 21.546875 5.503906 21.640625 5.414062 C 21.730469 5.324219 21.875 5.324219 21.964844 5.414062 L 22.429688 5.878906 C 22.519531 5.972656 22.519531 6.121094 22.429688 6.210938 C 22.382812 6.253906 22.324219 6.277344 22.265625 6.277344 C 22.207031 6.277344 22.144531 6.253906 22.101562 6.210938 Z M 24.277344 7.746094 C 24.1875 7.65625 24.039062 7.65625 23.949219 7.746094 C 23.859375 7.835938 23.859375 7.984375 23.949219 8.074219 L 24.414062 8.542969 C 24.457031 8.585938 24.515625 8.609375 24.574219 8.609375 C 24.636719 8.609375 24.695312 8.585938 24.738281 8.542969 C 24.828125 8.449219 24.828125 8.304688 24.738281 8.210938 Z M 21.800781 8.609375 C 21.863281 8.609375 21.921875 8.585938 21.964844 8.542969 L 22.890625 7.609375 C 22.980469 7.519531 22.980469 7.371094 22.890625 7.28125 C 22.800781 7.1875 22.652344 7.1875 22.5625 7.28125 L 21.640625 8.210938 C 21.550781 8.304688 21.550781 8.449219 21.640625 8.542969 C 21.683594 8.585938 21.742188 8.609375 21.800781 8.609375 Z M 23.652344 6.746094 C 23.710938 6.746094 23.769531 6.722656 23.816406 6.675781 L 24.738281 5.742188 C 24.828125 5.652344 24.828125 5.503906 24.738281 5.414062 C 24.648438 5.324219 24.503906 5.324219 24.414062 5.414062 L 23.488281 6.347656 C 23.398438 6.4375 23.398438 6.585938 23.488281 6.675781 C 23.535156 6.722656 23.59375 6.746094 23.652344 6.746094 Z M 5.457031 1.546875 C 5.503906 1.59375 5.5625 1.613281 5.621094 1.613281 C 5.679688 1.613281 5.742188 1.59375 5.785156 1.546875 C 5.875 1.457031 5.875 1.308594 5.785156 1.21875 L 5.324219 0.75 C 5.234375 0.660156 5.085938 0.660156 4.996094 0.75 C 4.90625 0.84375 4.90625 0.988281 4.996094 1.082031 Z M 7.636719 3.082031 C 7.542969 2.992188 7.398438 2.992188 7.308594 3.082031 C 7.21875 3.171875 7.21875 3.320312 7.308594 3.410156 L 7.769531 3.878906 C 7.816406 3.925781 7.875 3.945312 7.933594 3.945312 C 7.992188 3.945312 8.050781 3.925781 8.097656 3.878906 C 8.1875 3.789062 8.1875 3.640625 8.097656 3.550781 Z M 5.160156 3.945312 C 5.21875 3.945312 5.277344 3.925781 5.324219 3.878906 L 6.246094 2.945312 C 6.339844 2.855469 6.339844 2.707031 6.246094 2.617188 C 6.15625 2.527344 6.011719 2.527344 5.921875 2.617188 L 4.996094 3.550781 C 4.90625 3.640625 4.90625 3.789062 4.996094 3.878906 C 5.042969 3.925781 5.101562 3.945312 5.160156 3.945312 Z M 7.007812 2.082031 C 7.066406 2.082031 7.128906 2.058594 7.171875 2.011719 L 8.097656 1.082031 C 8.1875 0.988281 8.1875 0.84375 8.097656 0.75 C 8.007812 0.660156 7.859375 0.660156 7.769531 0.75 L 6.84375 1.683594 C 6.753906 1.773438 6.753906 1.921875 6.84375 2.011719 C 6.890625 2.058594 6.949219 2.082031 7.007812 2.082031 Z M 25.574219 26.316406 L 20.027344 28.183594 C 20 28.191406 19.976562 28.195312 19.953125 28.195312 C 19.855469 28.195312 19.765625 28.132812 19.734375 28.035156 C 19.695312 27.914062 19.757812 27.78125 19.878906 27.738281 L 21.132812 27.320312 L 21.566406 24.253906 L 20.359375 20.609375 C 20.097656 20.679688 19.835938 20.722656 19.578125 20.722656 C 19.050781 20.722656 18.535156 20.582031 18.074219 20.304688 C 17.355469 19.878906 16.796875 19.144531 16.496094 18.242188 L 14.1875 11.25 C 14.144531 11.125 14.210938 10.992188 14.332031 10.953125 L 19.878906 9.085938 C 20 9.046875 20.132812 9.113281 20.171875 9.234375 L 22.484375 16.230469 C 23.089844 18.070312 22.382812 19.8125 20.800781 20.46875 L 22.003906 24.105469 L 24.175781 26.296875 L 25.425781 25.875 C 25.550781 25.835938 25.679688 25.898438 25.71875 26.023438 C 25.761719 26.144531 25.695312 26.277344 25.574219 26.316406 Z M 14.699219 11.320312 L 15.640625 14.167969 C 15.6875 14.054688 15.738281 13.945312 15.804688 13.835938 C 16.101562 13.367188 16.578125 12.996094 17.105469 12.816406 C 17.164062 12.800781 17.226562 12.804688 17.28125 12.832031 C 17.335938 12.859375 17.378906 12.90625 17.398438 12.964844 C 17.664062 13.773438 18.976562 14.054688 19.878906 13.75 L 21.046875 13.359375 L 19.808594 9.605469 Z M 20.4375 20.113281 C 20.4375 20.113281 20.4375 20.113281 20.441406 20.109375 C 20.441406 20.109375 20.441406 20.109375 20.445312 20.109375 C 21.945312 19.605469 22.605469 18.070312 22.046875 16.378906 L 21.195312 13.800781 L 20.027344 14.195312 C 19.492188 14.371094 18.832031 14.382812 18.261719 14.21875 C 17.695312 14.058594 17.277344 13.75 17.058594 13.339844 C 16.707031 13.5 16.398438 13.765625 16.195312 14.085938 C 15.949219 14.476562 15.882812 14.90625 16.011719 15.296875 L 16.9375 18.097656 C 17.199219 18.890625 17.6875 19.535156 18.308594 19.90625 C 18.957031 20.292969 19.691406 20.363281 20.4375 20.113281 Z M 23.6875 26.460938 L 21.964844 24.726562 L 21.621094 27.152344 Z M 15.550781 6.585938 L 13.238281 13.578125 C 12.941406 14.480469 12.378906 15.214844 11.660156 15.644531 C 11.199219 15.921875 10.6875 16.058594 10.15625 16.058594 C 9.898438 16.058594 9.636719 16.015625 9.375 15.949219 L 8.171875 19.589844 L 8.605469 22.65625 L 9.855469 23.078125 C 9.976562 23.117188 10.042969 23.25 10.003906 23.371094 C 9.96875 23.46875 9.878906 23.53125 9.78125 23.53125 C 9.757812 23.53125 9.734375 23.527344 9.710938 23.519531 L 4.160156 21.65625 C 4.039062 21.613281 3.976562 21.480469 4.015625 21.359375 C 4.058594 21.238281 4.1875 21.171875 4.308594 21.210938 L 5.558594 21.632812 L 7.730469 19.441406 L 8.933594 15.808594 C 7.351562 15.148438 6.644531 13.40625 7.253906 11.566406 L 9.5625 4.574219 C 9.605469 4.449219 9.734375 4.382812 9.855469 4.425781 L 15.402344 6.289062 C 15.523438 6.332031 15.589844 6.464844 15.550781 6.585938 Z M 8.113281 22.492188 L 7.769531 20.0625 L 6.050781 21.796875 Z M 13.722656 10.632812 C 13.851562 10.246094 13.789062 9.816406 13.539062 9.421875 C 13.335938 9.101562 13.03125 8.835938 12.679688 8.675781 C 12.460938 9.085938 12.042969 9.394531 11.476562 9.554688 C 10.902344 9.71875 10.242188 9.707031 9.710938 9.53125 L 8.542969 9.136719 L 7.691406 11.714844 C 7.132812 13.40625 7.789062 14.941406 9.292969 15.445312 C 9.292969 15.449219 9.296875 15.445312 9.296875 15.449219 C 9.296875 15.449219 9.296875 15.449219 9.300781 15.449219 C 10.046875 15.699219 10.78125 15.628906 11.425781 15.242188 C 12.050781 14.871094 12.535156 14.226562 12.800781 13.433594 Z M 15.039062 6.660156 L 9.929688 4.941406 L 8.6875 8.695312 L 9.855469 9.085938 C 10.761719 9.394531 12.070312 9.109375 12.335938 8.300781 C 12.355469 8.242188 12.398438 8.195312 12.453125 8.167969 C 12.507812 8.140625 12.570312 8.136719 12.628906 8.15625 C 13.160156 8.332031 13.632812 8.703125 13.929688 9.171875 C 13.996094 9.28125 14.050781 9.394531 14.097656 9.507812 Z M 15.039062 6.660156 " fill-opacity="1" fill-rule="nonzero"/></g></svg>