<svg xmlns="http://www.w3.org/2000/svg" xmlns:xlink="http://www.w3.org/1999/xlink" width="80" zoomAndPan="magnify" viewBox="0 0 60 60" height="80" preserveAspectRatio="xMidYMid meet" version="1.0"><defs><clipPath id="d3e972d918"><path d="M 12.371094 3.140625 L 25 3.140625 L 25 57.140625 L 12.371094 57.140625 Z M 12.371094 3.140625 " clip-rule="nonzero"/></clipPath><clipPath id="6bfebcae17"><path d="M 26 3.140625 L 38 3.140625 L 38 57.140625 L 26 57.140625 Z M 26 3.140625 " clip-rule="nonzero"/></clipPath><clipPath id="20f892952b"><path d="M 40 3.140625 L 47.621094 3.140625 L 47.621094 57 L 40 57 Z M 40 3.140625 " clip-rule="nonzero"/></clipPath></defs><g clip-path="url(#d3e972d918)"><path fill="#211c1d" d="M 18.414062 3.828125 C 15.597656 3.828125 13.09375 10.019531 13.09375 14.902344 C 13.09375 18.519531 14.4375 20.609375 17.085938 21.113281 L 17.378906 21.171875 L 15.71875 52.753906 C 15.660156 53.859375 16.027344 54.949219 16.699219 55.660156 C 17.179688 56.171875 17.789062 56.453125 18.414062 56.453125 C 19.039062 56.453125 19.648438 56.171875 20.128906 55.660156 C 20.800781 54.949219 21.167969 53.859375 21.109375 52.753906 L 19.449219 21.171875 L 19.742188 21.113281 C 22.390625 20.609375 23.734375 18.519531 23.734375 14.902344 C 23.734375 10.019531 21.230469 3.828125 18.414062 3.828125 Z M 18.414062 57.140625 C 17.601562 57.140625 16.816406 56.78125 16.203125 56.132812 C 15.394531 55.273438 14.96875 54.027344 15.035156 52.714844 L 16.667969 21.726562 C 14.65625 21.246094 12.410156 19.644531 12.410156 14.902344 C 12.410156 9.574219 15.089844 3.140625 18.414062 3.140625 C 21.738281 3.140625 24.417969 9.574219 24.417969 14.902344 C 24.417969 19.644531 22.167969 21.246094 20.160156 21.726562 L 21.792969 52.714844 C 21.859375 54.027344 21.433594 55.273438 20.625 56.132812 C 20.011719 56.78125 19.226562 57.140625 18.414062 57.140625 " fill-opacity="1" fill-rule="nonzero"/></g><g clip-path="url(#6bfebcae17)"><path fill="#211c1d" d="M 27.570312 5.941406 L 27.210938 14.371094 L 27.210938 18.683594 C 27.210938 20.699219 28.574219 22.417969 30.527344 22.867188 L 30.808594 22.929688 L 30.792969 23.21875 L 29.238281 52.753906 C 29.179688 53.863281 29.546875 54.949219 30.21875 55.660156 C 30.699219 56.171875 31.308594 56.453125 31.933594 56.453125 C 32.558594 56.453125 33.167969 56.171875 33.648438 55.660156 C 34.320312 54.949219 34.6875 53.859375 34.628906 52.753906 L 33.058594 22.929688 L 33.339844 22.867188 C 35.292969 22.417969 36.65625 20.699219 36.65625 18.683594 L 36.652344 14.253906 L 36.296875 5.945312 L 35.792969 13.621094 C 35.769531 14.15625 35.324219 14.585938 34.785156 14.585938 C 34.242188 14.585938 33.796875 14.15625 33.773438 13.613281 L 33.359375 5.945312 L 32.941406 13.617188 C 32.917969 14.15625 32.476562 14.585938 31.933594 14.585938 C 31.390625 14.585938 30.949219 14.15625 30.925781 13.613281 L 30.507812 5.941406 L 30.09375 13.617188 C 30.070312 14.15625 29.625 14.585938 29.082031 14.585938 C 28.542969 14.585938 28.097656 14.15625 28.074219 13.613281 Z M 31.933594 57.140625 C 31.121094 57.140625 30.335938 56.78125 29.722656 56.132812 C 28.914062 55.273438 28.488281 54.027344 28.554688 52.714844 L 30.09375 23.464844 C 27.980469 22.851562 26.527344 20.925781 26.527344 18.683594 L 26.53125 14.226562 L 27.003906 3.140625 L 28.070312 3.140625 L 28.757812 13.574219 C 28.765625 13.757812 28.910156 13.898438 29.082031 13.898438 C 29.257812 13.898438 29.402344 13.757812 29.410156 13.582031 L 29.976562 3.140625 L 31.039062 3.140625 L 31.609375 13.578125 C 31.617188 13.757812 31.757812 13.898438 31.933594 13.898438 C 32.109375 13.898438 32.25 13.757812 32.257812 13.582031 L 32.824219 3.140625 L 33.890625 3.140625 L 34.457031 13.578125 C 34.464844 13.757812 34.609375 13.898438 34.785156 13.898438 C 34.957031 13.898438 35.101562 13.757812 35.109375 13.582031 L 35.796875 3.140625 L 36.863281 3.140625 L 37.339844 14.347656 L 37.339844 18.683594 C 37.339844 20.925781 35.886719 22.851562 33.773438 23.464844 L 35.3125 52.714844 C 35.378906 54.027344 34.953125 55.273438 34.144531 56.132812 C 33.53125 56.78125 32.746094 57.140625 31.933594 57.140625 " fill-opacity="1" fill-rule="nonzero"/></g><g clip-path="url(#20f892952b)"><path fill="#211c1d" d="M 43.878906 38.785156 L 43.878906 38.355469 C 43.878906 36.96875 45.210938 35.824219 46.914062 35.6875 C 46.859375 15.792969 41.882812 5.171875 41.3125 4.023438 C 41.308594 4.011719 41.304688 4.003906 41.28125 4.007812 C 41.261719 4.015625 41.261719 4.023438 41.261719 4.035156 L 41.261719 55.089844 C 41.261719 55.742188 41.996094 56.273438 42.902344 56.273438 C 43.808594 56.273438 44.542969 55.742188 44.542969 55.089844 L 44.542969 38.957031 C 44.542969 38.894531 44.421875 38.785156 44.21875 38.785156 Z M 40.578125 55.089844 L 40.578125 4.035156 C 40.578125 3.699219 40.796875 3.417969 41.125 3.339844 C 41.457031 3.261719 41.773438 3.414062 41.925781 3.714844 C 42.503906 4.886719 47.597656 15.75 47.597656 36.019531 L 47.597656 36.359375 L 47.253906 36.359375 C 45.863281 36.359375 44.714844 37.148438 44.574219 38.148438 C 44.960938 38.269531 45.226562 38.582031 45.226562 38.957031 L 45.226562 55.089844 C 45.226562 56.121094 44.183594 56.960938 42.902344 56.960938 C 41.621094 56.960938 40.578125 56.121094 40.578125 55.089844 " fill-opacity="1" fill-rule="nonzero"/></g></svg>