<svg xmlns="http://www.w3.org/2000/svg" xmlns:xlink="http://www.w3.org/1999/xlink" width="80" zoomAndPan="magnify" viewBox="0 0 60 60" height="80" preserveAspectRatio="xMidYMid meet" version="1.0"><defs><clipPath id="f5075a430a"><path d="M 1.648438 47.539062 L 56.382812 47.539062 L 56.382812 53.710938 L 1.648438 53.710938 Z M 1.648438 47.539062 " clip-rule="nonzero"/></clipPath><clipPath id="cd1eb7f330"><path d="M 27 4.226562 L 30 4.226562 L 30 15 L 27 15 Z M 27 4.226562 " clip-rule="nonzero"/></clipPath></defs><path fill="#040606" d="M 7.371094 44.566406 C 7.890625 33.085938 17.410156 23.941406 29.082031 23.941406 C 40.75 23.941406 50.273438 33.085938 50.792969 44.566406 Z M 27.582031 21.21875 C 27.582031 20.441406 28.230469 19.792969 29.015625 19.792969 C 29.796875 19.792969 30.453125 20.441406 30.453125 21.21875 C 30.453125 21.542969 30.316406 21.804688 30.191406 22.0625 L 27.84375 22.0625 C 27.648438 21.804688 27.582031 21.480469 27.582031 21.21875 Z M 32.273438 22.191406 C 32.40625 21.867188 32.472656 21.542969 32.472656 21.15625 C 32.472656 19.269531 30.910156 17.78125 29.082031 17.78125 C 27.191406 17.78125 25.691406 19.339844 25.691406 21.15625 C 25.691406 21.542969 25.753906 21.867188 25.882812 22.191406 C 14.34375 23.746094 5.480469 33.609375 5.480469 45.476562 L 5.480469 46.445312 L 52.816406 46.445312 L 52.816406 45.476562 C 52.683594 33.671875 43.816406 23.8125 32.273438 22.191406 " fill-opacity="1" fill-rule="nonzero"/><path fill="#040606" d="M 10.496094 42.492188 L 10.300781 42.492188 C 9.78125 42.363281 9.519531 41.90625 9.648438 41.390625 C 11.152344 35.097656 15.976562 29.710938 22.691406 26.925781 C 23.144531 26.730469 23.667969 26.925781 23.863281 27.445312 C 24.058594 27.898438 23.863281 28.417969 23.34375 28.609375 C 17.214844 31.144531 12.714844 36.070312 11.347656 41.777344 C 11.277344 42.167969 10.890625 42.492188 10.496094 42.492188 " fill-opacity="1" fill-rule="nonzero"/><g clip-path="url(#f5075a430a)"><path fill="#040606" d="M 6 51.832031 L 52.03125 51.832031 L 53.855469 49.433594 L 4.171875 49.433594 Z M 52.09375 53.710938 L 5.933594 53.710938 C 5.414062 53.710938 4.886719 53.457031 4.5625 53.066406 L 1.890625 49.628906 C 1.632812 49.234375 1.5625 48.78125 1.757812 48.328125 C 1.957031 47.941406 2.414062 47.679688 2.871094 47.679688 L 55.160156 47.679688 C 55.617188 47.679688 56.074219 47.941406 56.265625 48.332031 C 56.464844 48.71875 56.402344 49.234375 56.136719 49.628906 L 53.464844 53.066406 C 53.140625 53.457031 52.617188 53.710938 52.09375 53.710938 " fill-opacity="1" fill-rule="nonzero"/></g><g clip-path="url(#cd1eb7f330)"><path fill="#040606" d="M 28.820312 14.476562 C 28.292969 14.476562 27.90625 14.082031 27.90625 13.566406 L 27.90625 5.132812 C 27.90625 4.613281 28.292969 4.226562 28.820312 4.226562 C 29.339844 4.226562 29.734375 4.613281 29.734375 5.066406 L 29.734375 13.5 C 29.734375 14.019531 29.277344 14.476562 28.820312 14.476562 " fill-opacity="1" fill-rule="nonzero"/></g><path fill="#040606" d="M 17.867188 17.132812 C 17.542969 17.132812 17.214844 16.933594 17.085938 16.679688 L 12.847656 9.351562 C 12.585938 8.898438 12.714844 8.375 13.171875 8.117188 C 13.628906 7.855469 14.148438 7.988281 14.410156 8.441406 L 18.648438 15.769531 C 18.910156 16.226562 18.78125 16.742188 18.324219 17.003906 C 18.191406 17.066406 18.0625 17.132812 17.867188 17.132812 " fill-opacity="1" fill-rule="nonzero"/><path fill="#040606" d="M 39.703125 17.132812 C 39.578125 17.132812 39.382812 17.066406 39.253906 17.003906 C 38.796875 16.742188 38.664062 16.226562 38.925781 15.769531 L 43.164062 8.441406 C 43.425781 7.988281 43.945312 7.855469 44.402344 8.117188 C 44.855469 8.375 44.992188 8.898438 44.730469 9.351562 L 40.488281 16.679688 C 40.359375 16.933594 40.035156 17.132812 39.703125 17.132812 " fill-opacity="1" fill-rule="nonzero"/></svg>