<svg xmlns="http://www.w3.org/2000/svg" xmlns:xlink="http://www.w3.org/1999/xlink" width="40" zoomAndPan="magnify" viewBox="0 0 30 30.000001" height="40" preserveAspectRatio="xMidYMid meet" version="1.0"><defs><clipPath id="a5860fe95b"><path d="M 27 29 L 29 29 L 29 29.03125 L 27 29.03125 Z M 27 29 " clip-rule="nonzero"/></clipPath><clipPath id="0f2945eceb"><path d="M 5.273438 2.183594 L 11 2.183594 L 11 26.859375 L 5.273438 26.859375 Z M 5.273438 2.183594 " clip-rule="nonzero"/></clipPath><clipPath id="1c33e58fa6"><path d="M 11 2.183594 L 17 2.183594 L 17 26.859375 L 11 26.859375 Z M 11 2.183594 " clip-rule="nonzero"/></clipPath><clipPath id="412fb793ff"><path d="M 18 2.183594 L 21.242188 2.183594 L 21.242188 26.859375 L 18 26.859375 Z M 18 2.183594 " clip-rule="nonzero"/></clipPath></defs><g clip-path="url(#a5860fe95b)"><path fill="#000000" d="M 28.648438 29.320312 C 28.621094 29.179688 28.445312 29.203125 28.359375 29.328125 C 28.105469 29.695312 27.980469 28.976562 27.738281 29.203125 C 27.613281 29.324219 27.859375 29.914062 28.027344 30.078125 C 28.058594 30.109375 28.105469 30.113281 28.140625 30.085938 C 28.410156 29.882812 28.667969 29.433594 28.648438 29.320312 Z M 28.851562 29.355469 C 28.898438 29.652344 28.496094 30.3125 28.175781 30.371094 C 27.976562 30.40625 27.726562 29.820312 27.648438 29.605469 C 27.582031 29.421875 27.542969 29.125 27.761719 29.074219 C 27.960938 29.027344 28.09375 29.199219 28.214844 29.332031 C 28.46875 29.117188 28.777344 28.855469 28.851562 29.355469 " fill-opacity="1" fill-rule="nonzero"/></g><g clip-path="url(#0f2945eceb)"><path fill="#211c1d" d="M 8.011719 2.496094 C 6.734375 2.496094 5.601562 5.328125 5.601562 7.558594 C 5.601562 9.210938 6.210938 10.167969 7.410156 10.398438 L 7.542969 10.421875 L 6.789062 24.855469 C 6.765625 25.363281 6.929688 25.859375 7.234375 26.183594 C 7.453125 26.417969 7.726562 26.546875 8.011719 26.546875 C 8.292969 26.546875 8.570312 26.417969 8.789062 26.183594 C 9.09375 25.859375 9.257812 25.363281 9.230469 24.855469 L 8.480469 10.421875 L 8.613281 10.398438 C 9.8125 10.167969 10.421875 9.210938 10.421875 7.558594 C 10.421875 5.328125 9.285156 2.496094 8.011719 2.496094 Z M 8.011719 26.859375 C 7.644531 26.859375 7.285156 26.699219 7.007812 26.402344 C 6.644531 26.007812 6.449219 25.4375 6.480469 24.839844 L 7.21875 10.675781 C 6.308594 10.457031 5.292969 9.726562 5.292969 7.558594 C 5.292969 5.125 6.503906 2.183594 8.011719 2.183594 C 9.515625 2.183594 10.730469 5.125 10.730469 7.558594 C 10.730469 9.726562 9.710938 10.457031 8.800781 10.675781 L 9.539062 24.839844 C 9.570312 25.4375 9.378906 26.007812 9.011719 26.402344 C 8.734375 26.699219 8.378906 26.859375 8.011719 26.859375 " fill-opacity="1" fill-rule="nonzero"/></g><g clip-path="url(#1c33e58fa6)"><path fill="#211c1d" d="M 12.15625 3.464844 L 11.996094 7.316406 L 11.996094 9.285156 C 11.996094 10.207031 12.613281 10.992188 13.496094 11.199219 L 13.625 11.226562 L 13.617188 11.359375 L 12.914062 24.855469 C 12.886719 25.363281 13.054688 25.859375 13.355469 26.183594 C 13.574219 26.417969 13.851562 26.546875 14.132812 26.546875 C 14.417969 26.546875 14.691406 26.417969 14.910156 26.183594 C 15.214844 25.859375 15.378906 25.363281 15.355469 24.855469 L 14.644531 11.226562 L 14.769531 11.199219 C 15.65625 10.992188 16.273438 10.207031 16.273438 9.285156 L 16.269531 7.261719 L 16.109375 3.464844 L 15.882812 6.972656 C 15.871094 7.21875 15.667969 7.414062 15.425781 7.414062 C 15.179688 7.414062 14.976562 7.21875 14.96875 6.96875 L 14.777344 3.464844 L 14.589844 6.972656 C 14.578125 7.21875 14.378906 7.414062 14.132812 7.414062 C 13.886719 7.414062 13.6875 7.21875 13.675781 6.96875 L 13.488281 3.464844 L 13.300781 6.972656 C 13.289062 7.21875 13.089844 7.414062 12.84375 7.414062 C 12.597656 7.414062 12.398438 7.21875 12.386719 6.96875 Z M 14.132812 26.859375 C 13.765625 26.859375 13.410156 26.699219 13.132812 26.402344 C 12.765625 26.007812 12.574219 25.4375 12.605469 24.839844 L 13.300781 11.472656 C 12.34375 11.191406 11.683594 10.3125 11.683594 9.285156 L 11.6875 7.25 L 11.902344 2.183594 L 12.382812 2.183594 L 12.695312 6.953125 C 12.699219 7.035156 12.761719 7.097656 12.84375 7.097656 C 12.921875 7.097656 12.988281 7.035156 12.992188 6.957031 L 13.246094 2.183594 L 13.730469 2.183594 L 13.984375 6.953125 C 13.988281 7.035156 14.054688 7.097656 14.132812 7.097656 C 14.210938 7.097656 14.277344 7.035156 14.28125 6.957031 L 14.539062 2.183594 L 15.019531 2.183594 L 15.277344 6.953125 C 15.28125 7.035156 15.34375 7.097656 15.425781 7.097656 C 15.503906 7.097656 15.566406 7.035156 15.570312 6.957031 L 15.882812 2.183594 L 16.367188 2.183594 L 16.582031 7.304688 L 16.582031 9.285156 C 16.582031 10.3125 15.921875 11.191406 14.964844 11.472656 L 15.664062 24.839844 C 15.695312 25.4375 15.5 26.007812 15.136719 26.402344 C 14.859375 26.699219 14.5 26.859375 14.132812 26.859375 " fill-opacity="1" fill-rule="nonzero"/></g><g clip-path="url(#412fb793ff)"><path fill="#211c1d" d="M 19.542969 18.472656 L 19.542969 18.277344 C 19.542969 17.644531 20.144531 17.121094 20.917969 17.058594 C 20.890625 7.964844 18.640625 3.113281 18.382812 2.585938 C 18.378906 2.582031 18.378906 2.578125 18.367188 2.582031 C 18.355469 2.582031 18.355469 2.585938 18.355469 2.59375 L 18.355469 25.921875 C 18.355469 26.222656 18.691406 26.464844 19.101562 26.464844 C 19.511719 26.464844 19.84375 26.222656 19.84375 25.921875 L 19.84375 18.550781 C 19.84375 18.523438 19.789062 18.472656 19.695312 18.472656 Z M 18.046875 25.921875 L 18.046875 2.59375 C 18.046875 2.4375 18.148438 2.308594 18.296875 2.273438 C 18.445312 2.238281 18.589844 2.308594 18.65625 2.445312 C 18.921875 2.980469 21.226562 7.945312 21.226562 17.207031 L 21.226562 17.367188 L 21.070312 17.367188 C 20.441406 17.367188 19.921875 17.722656 19.859375 18.183594 C 20.03125 18.238281 20.152344 18.378906 20.152344 18.550781 L 20.152344 25.921875 C 20.152344 26.394531 19.679688 26.777344 19.101562 26.777344 C 18.519531 26.777344 18.046875 26.394531 18.046875 25.921875 " fill-opacity="1" fill-rule="nonzero"/></g></svg>