<svg xmlns="http://www.w3.org/2000/svg" xmlns:xlink="http://www.w3.org/1999/xlink" width="120" zoomAndPan="magnify" viewBox="0 0 90 89.999999" height="120" preserveAspectRatio="xMidYMid meet" version="1.0"><defs><clipPath id="ce12d78953"><path d="M 29.917969 9 L 59.917969 9 L 59.917969 89 L 29.917969 89 Z M 29.917969 9 " clip-rule="nonzero"/></clipPath><clipPath id="e94d29bc24"><path d="M 39 23 L 51 23 L 51 26 L 39 26 Z M 39 23 " clip-rule="nonzero"/></clipPath><clipPath id="0df9b03b65"><path d="M 40.605469 23.390625 L 49.636719 23.382812 C 49.863281 23.890625 50.183594 24.539062 50.371094 25.15625 L 39.933594 25.167969 C 40.128906 24.5625 40.1875 24.308594 40.605469 23.390625 Z M 40.605469 23.390625 " clip-rule="nonzero"/></clipPath><linearGradient x1="-0.0000000265846" gradientTransform="matrix(10.435904, 0, 0, 1.784097, 39.934845, 23.381998)" y1="0.5" x2="1" gradientUnits="userSpaceOnUse" y2="0.5" id="1687ff653a"><stop stop-opacity="1" stop-color="rgb(86.698914%, 86.698914%, 86.698914%)" offset="0"/><stop stop-opacity="1" stop-color="rgb(86.851501%, 86.851501%, 86.851501%)" offset="0.25"/><stop stop-opacity="1" stop-color="rgb(87.176514%, 87.176514%, 87.176514%)" offset="0.257812"/><stop stop-opacity="1" stop-color="rgb(87.519836%, 87.519836%, 87.519836%)" offset="0.265625"/><stop stop-opacity="1" stop-color="rgb(87.861633%, 87.861633%, 87.861633%)" offset="0.273438"/><stop stop-opacity="1" stop-color="rgb(88.204956%, 88.204956%, 88.204956%)" offset="0.28125"/><stop stop-opacity="1" stop-color="rgb(88.546753%, 88.546753%, 88.546753%)" offset="0.289062"/><stop stop-opacity="1" stop-color="rgb(88.88855%, 88.88855%, 88.88855%)" offset="0.296875"/><stop stop-opacity="1" stop-color="rgb(89.231873%, 89.231873%, 89.231873%)" offset="0.304688"/><stop stop-opacity="1" stop-color="rgb(89.573669%, 89.573669%, 89.573669%)" offset="0.3125"/><stop stop-opacity="1" stop-color="rgb(89.916992%, 89.916992%, 89.916992%)" offset="0.320312"/><stop stop-opacity="1" stop-color="rgb(90.258789%, 90.258789%, 90.258789%)" offset="0.328125"/><stop stop-opacity="1" stop-color="rgb(90.602112%, 90.602112%, 90.602112%)" offset="0.335938"/><stop stop-opacity="1" stop-color="rgb(90.943909%, 90.943909%, 90.943909%)" offset="0.34375"/><stop stop-opacity="1" stop-color="rgb(91.285706%, 91.285706%, 91.285706%)" offset="0.351563"/><stop stop-opacity="1" stop-color="rgb(91.629028%, 91.629028%, 91.629028%)" offset="0.359375"/><stop stop-opacity="1" stop-color="rgb(91.970825%, 91.970825%, 91.970825%)" offset="0.367188"/><stop stop-opacity="1" stop-color="rgb(92.314148%, 92.314148%, 92.314148%)" offset="0.375"/><stop stop-opacity="1" stop-color="rgb(92.655945%, 92.655945%, 92.655945%)" offset="0.382812"/><stop stop-opacity="1" stop-color="rgb(92.999268%, 92.999268%, 92.999268%)" offset="0.390625"/><stop stop-opacity="1" stop-color="rgb(93.341064%, 93.341064%, 93.341064%)" offset="0.398438"/><stop stop-opacity="1" stop-color="rgb(93.682861%, 93.682861%, 93.682861%)" offset="0.40625"/><stop stop-opacity="1" stop-color="rgb(94.026184%, 94.026184%, 94.026184%)" offset="0.414063"/><stop stop-opacity="1" stop-color="rgb(94.367981%, 94.367981%, 94.367981%)" offset="0.421875"/><stop stop-opacity="1" stop-color="rgb(94.711304%, 94.711304%, 94.711304%)" offset="0.429688"/><stop stop-opacity="1" stop-color="rgb(95.053101%, 95.053101%, 95.053101%)" offset="0.4375"/><stop stop-opacity="1" stop-color="rgb(95.396423%, 95.396423%, 95.396423%)" offset="0.445313"/><stop stop-opacity="1" stop-color="rgb(95.73822%, 95.73822%, 95.73822%)" offset="0.453125"/><stop stop-opacity="1" stop-color="rgb(96.080017%, 96.080017%, 96.080017%)" offset="0.460938"/><stop stop-opacity="1" stop-color="rgb(96.42334%, 96.42334%, 96.42334%)" offset="0.46875"/><stop stop-opacity="1" stop-color="rgb(96.765137%, 96.765137%, 96.765137%)" offset="0.476562"/><stop stop-opacity="1" stop-color="rgb(97.108459%, 97.108459%, 97.108459%)" offset="0.484375"/><stop stop-opacity="1" stop-color="rgb(97.450256%, 97.450256%, 97.450256%)" offset="0.492188"/><stop stop-opacity="1" stop-color="rgb(97.792053%, 97.792053%, 97.792053%)" offset="0.5"/><stop stop-opacity="1" stop-color="rgb(97.850037%, 97.850037%, 97.850037%)" offset="0.507813"/><stop stop-opacity="1" stop-color="rgb(97.587585%, 97.587585%, 97.587585%)" offset="0.515625"/><stop stop-opacity="1" stop-color="rgb(97.293091%, 97.293091%, 97.293091%)" offset="0.523438"/><stop stop-opacity="1" stop-color="rgb(97.000122%, 97.000122%, 97.000122%)" offset="0.53125"/><stop stop-opacity="1" stop-color="rgb(96.705627%, 96.705627%, 96.705627%)" offset="0.539062"/><stop stop-opacity="1" stop-color="rgb(96.411133%, 96.411133%, 96.411133%)" offset="0.546875"/><stop stop-opacity="1" stop-color="rgb(96.116638%, 96.116638%, 96.116638%)" offset="0.554688"/><stop stop-opacity="1" stop-color="rgb(95.823669%, 95.823669%, 95.823669%)" offset="0.5625"/><stop stop-opacity="1" stop-color="rgb(95.529175%, 95.529175%, 95.529175%)" offset="0.570313"/><stop stop-opacity="1" stop-color="rgb(95.23468%, 95.23468%, 95.23468%)" offset="0.578125"/><stop stop-opacity="1" stop-color="rgb(94.940186%, 94.940186%, 94.940186%)" offset="0.585938"/><stop stop-opacity="1" stop-color="rgb(94.647217%, 94.647217%, 94.647217%)" offset="0.59375"/><stop stop-opacity="1" stop-color="rgb(94.352722%, 94.352722%, 94.352722%)" offset="0.601562"/><stop stop-opacity="1" stop-color="rgb(94.058228%, 94.058228%, 94.058228%)" offset="0.609375"/><stop stop-opacity="1" stop-color="rgb(93.765259%, 93.765259%, 93.765259%)" offset="0.617188"/><stop stop-opacity="1" stop-color="rgb(93.470764%, 93.470764%, 93.470764%)" offset="0.625"/><stop stop-opacity="1" stop-color="rgb(93.17627%, 93.17627%, 93.17627%)" offset="0.632812"/><stop stop-opacity="1" stop-color="rgb(92.881775%, 92.881775%, 92.881775%)" offset="0.640625"/><stop stop-opacity="1" stop-color="rgb(92.588806%, 92.588806%, 92.588806%)" offset="0.648438"/><stop stop-opacity="1" stop-color="rgb(92.294312%, 92.294312%, 92.294312%)" offset="0.65625"/><stop stop-opacity="1" stop-color="rgb(91.999817%, 91.999817%, 91.999817%)" offset="0.664062"/><stop stop-opacity="1" stop-color="rgb(91.706848%, 91.706848%, 91.706848%)" offset="0.671875"/><stop stop-opacity="1" stop-color="rgb(91.412354%, 91.412354%, 91.412354%)" offset="0.679688"/><stop stop-opacity="1" stop-color="rgb(91.117859%, 91.117859%, 91.117859%)" offset="0.6875"/><stop stop-opacity="1" stop-color="rgb(90.823364%, 90.823364%, 90.823364%)" offset="0.695312"/><stop stop-opacity="1" stop-color="rgb(90.530396%, 90.530396%, 90.530396%)" offset="0.703125"/><stop stop-opacity="1" stop-color="rgb(90.235901%, 90.235901%, 90.235901%)" offset="0.710938"/><stop stop-opacity="1" stop-color="rgb(89.941406%, 89.941406%, 89.941406%)" offset="0.71875"/><stop stop-opacity="1" stop-color="rgb(89.646912%, 89.646912%, 89.646912%)" offset="0.726563"/><stop stop-opacity="1" stop-color="rgb(89.353943%, 89.353943%, 89.353943%)" offset="0.734375"/><stop stop-opacity="1" stop-color="rgb(89.059448%, 89.059448%, 89.059448%)" offset="0.742188"/><stop stop-opacity="1" stop-color="rgb(88.764954%, 88.764954%, 88.764954%)" offset="0.75"/><stop stop-opacity="1" stop-color="rgb(88.471985%, 88.471985%, 88.471985%)" offset="0.757812"/><stop stop-opacity="1" stop-color="rgb(88.17749%, 88.17749%, 88.17749%)" offset="0.765625"/><stop stop-opacity="1" stop-color="rgb(87.882996%, 87.882996%, 87.882996%)" offset="0.773438"/><stop stop-opacity="1" stop-color="rgb(87.588501%, 87.588501%, 87.588501%)" offset="0.78125"/><stop stop-opacity="1" stop-color="rgb(87.295532%, 87.295532%, 87.295532%)" offset="0.789063"/><stop stop-opacity="1" stop-color="rgb(87.001038%, 87.001038%, 87.001038%)" offset="0.796875"/><stop stop-opacity="1" stop-color="rgb(86.776733%, 86.776733%, 86.776733%)" offset="0.8125"/><stop stop-opacity="1" stop-color="rgb(86.698914%, 86.698914%, 86.698914%)" offset="0.875"/><stop stop-opacity="1" stop-color="rgb(86.698914%, 86.698914%, 86.698914%)" offset="1"/></linearGradient></defs><path fill="#e9c6af" d="M 54.945312 9.300781 C 53.839844 8.433594 52.925781 8.871094 51.304688 9.386719 C 51.8125 10.949219 51.636719 12.382812 51.296875 14.089844 C 52.914062 13.390625 53.167969 13.070312 54.785156 13.972656 C 56.238281 12.492188 56.261719 10.679688 54.945312 9.300781 Z M 54.945312 9.300781 " fill-opacity="1" fill-rule="nonzero"/><path fill="#e9c6af" d="M 35.496094 9.40625 C 36.554688 8.476562 37.492188 8.863281 39.136719 9.285156 C 38.710938 10.878906 38.964844 12.296875 39.390625 13.984375 C 37.738281 13.375 37.472656 13.066406 35.898438 14.0625 C 34.375 12.667969 34.257812 10.855469 35.496094 9.40625 Z M 35.496094 9.40625 " fill-opacity="1" fill-rule="nonzero"/><path fill="#e9c6af" d="M 46.09375 4.5625 L 46.09375 42.351562 L 46.121094 78.292969 C 52.25 82.398438 52.335938 87.195312 54.921875 88.304688 L 52.097656 88.304688 C 51.210938 85.707031 47.507812 80.550781 46.089844 80.347656 L 46.09375 86.515625 L 44.097656 86.519531 L 44.097656 80.351562 C 42.679688 80.546875 38.980469 85.765625 38.921875 88.304688 L 36.125 88.304688 C 38.410156 87.207031 38.042969 82.320312 44.097656 78.292969 L 44.097656 4.570312 C 42.648438 3.078125 43.625 1.078125 45.128906 0 C 46.523438 1.074219 47.511719 3.003906 46.09375 4.566406 Z M 46.09375 4.5625 " fill-opacity="1" fill-rule="nonzero"/><path fill="#e9c6af" d="M 37.785156 40.269531 C 50.59375 40.230469 41.902344 40.230469 52.382812 40.269531 C 53.042969 34.375 52.203125 30.144531 49.480469 23.292969 C 51.773438 16.078125 52.324219 12.40625 51.558594 9.609375 C 51.382812 9.066406 48.808594 8.761719 47.167969 8.773438 C 46.511719 8.78125 47.355469 6.59375 46.484375 6.597656 C 45.152344 6.601562 44.773438 6.613281 43.816406 6.609375 C 42.707031 6.609375 43.769531 8.722656 43.089844 8.761719 C 40.710938 8.902344 39.03125 8.96875 38.890625 9.585938 C 38.207031 12.527344 38.554688 16.078125 40.835938 23.292969 C 38.5625 28.753906 37.359375 34.367188 37.785156 40.269531 Z M 37.785156 40.269531 " fill-opacity="1" fill-rule="nonzero"/><g clip-path="url(#ce12d78953)"><path fill="#000000" d="M 29.917969 88.085938 C 33.394531 86.957031 34.652344 85.507812 39.199219 88.035156 C 41.347656 89.226562 41.257812 84.511719 44.121094 88.101562 C 45.636719 90.003906 46.890625 84.804688 49.738281 88.136719 C 51.140625 89.773438 56.128906 84.480469 59.921875 88.085938 C 56.929688 80.5 50.175781 61.226562 53.191406 47.320312 C 54.296875 42.210938 53.136719 31.1875 49.613281 23.328125 C 50.519531 20.652344 52.039062 17.992188 52.398438 15.910156 C 52.890625 13.039062 52.386719 10.554688 51.65625 9.503906 C 50.996094 8.671875 48.140625 12.921875 45.71875 16.773438 C 45.023438 17.871094 45.695312 17.871094 42.894531 14.027344 C 42.011719 12.8125 39.089844 8.679688 38.878906 9.316406 C 38.378906 11.035156 37.304688 13.140625 37.761719 15.972656 C 38.058594 17.796875 39.585938 20.40625 40.609375 23.410156 C 37.222656 31.539062 36.699219 42.167969 37.625 47.320312 C 40.773438 61.074219 33.523438 80.707031 29.921875 88.085938 Z M 29.917969 88.085938 " fill-opacity="1" fill-rule="nonzero"/></g><g clip-path="url(#e94d29bc24)"><g clip-path="url(#0df9b03b65)"><path fill="url(#1687ff653a)" d="M 39.933594 23.382812 L 39.933594 25.167969 L 50.371094 25.167969 L 50.371094 23.382812 Z M 39.933594 23.382812 " fill-rule="nonzero"/></g></g><path stroke-linecap="butt" transform="matrix(0.0372299, 0, 0, 0.0374189, 23.362825, 18.26418)" fill-opacity="1" fill="#f2f2f2" fill-rule="nonzero" stroke-linejoin="miter" d="M 604.050963 -13.114823 C 604.050963 -3.197549 597.335925 4.945056 589.151971 4.945056 C 580.968018 4.945056 574.252979 -3.197549 574.252979 -13.114823 C 574.252979 -23.13649 580.968018 -31.174703 589.151971 -31.174703 C 597.335925 -31.174703 604.050963 -23.13649 604.050963 -13.114823 Z M 604.050963 -13.114823 " stroke="#cccccc" stroke-width="1" stroke-opacity="1" stroke-miterlimit="4"/><path stroke-linecap="butt" transform="matrix(0.0372299, 0, 0, 0.0374189, 23.362825, 18.26418)" fill-opacity="1" fill="#f2f2f2" fill-rule="nonzero" stroke-linejoin="miter" d="M 586.423987 -39.839269 C 584.955072 -44.223748 586.214142 -50.48729 587.683057 -52.992707 C 588.942126 -55.915693 592.299646 -58.212326 594.398095 -58.42111 C 596.2867 -57.481579 599.119607 -55.080555 599.854064 -51.322429 C 600.588522 -45.998419 599.958987 -42.135901 597.96546 -38.899738 C 596.2867 -36.394321 593.453793 -32.531803 591.460266 -31.174703 C 588.942126 -33.471335 587.683057 -36.707498 586.423987 -39.839269 Z M 586.423987 -39.839269 " stroke="#cccccc" stroke-width="1" stroke-opacity="1" stroke-miterlimit="4"/><path stroke-linecap="butt" transform="matrix(0.0372299, 0, 0, 0.0374189, 23.362825, 18.26418)" fill-opacity="1" fill="#f2f2f2" fill-rule="nonzero" stroke-linejoin="miter" d="M 574.987437 -34.724043 C 571.839762 -37.751422 570.265925 -44.014964 570.580692 -47.042342 C 570.47577 -50.278506 572.469297 -54.036631 574.148057 -55.289339 C 576.246506 -55.498124 579.813871 -54.87177 581.91232 -51.844391 C 584.85015 -47.564304 585.899374 -43.910571 585.584607 -39.943661 C 585.164917 -36.916283 584.325537 -31.905449 583.066467 -29.71321 C 579.918793 -30.339564 577.505576 -32.636196 574.987437 -34.724043 Z M 574.987437 -34.724043 " stroke="#cccccc" stroke-width="1" stroke-opacity="1" stroke-miterlimit="4"/><path stroke-linecap="butt" transform="matrix(0.0372299, 0, 0, 0.0374189, 23.362825, 18.26418)" fill-opacity="1" fill="#f2f2f2" fill-rule="nonzero" stroke-linejoin="miter" d="M 598.699917 -38.273384 C 599.644219 -42.762255 603.841118 -47.251127 606.359258 -48.399443 C 608.877397 -50.069721 612.759529 -49.860936 614.543211 -48.817013 C 615.697359 -46.833558 616.956428 -43.075432 615.592436 -39.526092 C 613.598909 -34.619651 611.080769 -31.801057 607.828173 -30.339564 C 605.310033 -29.29564 601.008211 -27.834147 598.594994 -27.938539 C 597.650692 -31.383487 598.280227 -34.828435 598.699917 -38.273384 Z M 598.699917 -38.273384 " stroke="#cccccc" stroke-width="1" stroke-opacity="1" stroke-miterlimit="4"/><path stroke-linecap="butt" transform="matrix(0.0372299, 0, 0, 0.0374189, 23.362825, 18.26418)" fill-opacity="1" fill="#f2f2f2" fill-rule="nonzero" stroke-linejoin="miter" d="M 568.587165 -24.076022 C 564.495189 -24.389199 559.8786 -28.251716 558.409685 -30.757133 C 556.52108 -33.26255 555.996468 -37.647029 556.626003 -39.734877 C 558.19984 -41.405155 561.347514 -43.284217 564.705034 -42.449078 C 569.321623 -41.091977 572.259452 -38.899738 574.148057 -35.45479 C 575.407126 -32.844981 577.505576 -28.356109 577.820344 -25.7463 C 574.987437 -24.180414 571.73484 -24.180414 568.587165 -24.076022 Z M 568.587165 -24.076022 " stroke="#cccccc" stroke-width="1" stroke-opacity="1" stroke-miterlimit="4"/><path stroke-linecap="butt" transform="matrix(0.0372299, 0, 0, 0.0374189, 23.362825, 18.26418)" fill-opacity="1" fill="#f2f2f2" fill-rule="nonzero" stroke-linejoin="miter" d="M 566.593638 -10.609407 C 562.711506 -8.939129 557.045693 -10.296229 554.737398 -11.966507 C 552.114336 -13.323608 550.120809 -17.081733 549.910964 -19.378365 C 550.750344 -21.570605 552.743871 -24.702376 556.206313 -25.537515 C 560.927824 -26.477046 564.390266 -25.7463 567.328096 -23.55406 C 569.531468 -21.77939 573.098832 -18.647619 574.357902 -16.350987 C 572.364375 -13.532393 569.426545 -12.175292 566.593638 -10.609407 Z M 566.593638 -10.609407 " stroke="#cccccc" stroke-width="1" stroke-opacity="1" stroke-miterlimit="4"/><path stroke-linecap="butt" transform="matrix(0.0372299, 0, 0, 0.0374189, 23.362825, 18.26418)" fill-opacity="1" fill="#f2f2f2" fill-rule="nonzero" stroke-linejoin="miter" d="M 593.139025 13.818407 C 592.824258 18.411671 595.552243 24.153251 597.650692 26.136706 C 599.539297 28.537731 603.316506 29.686047 605.310033 29.268477 C 606.988793 27.806984 609.192165 24.675213 608.877397 20.812696 C 608.352785 15.488685 606.778948 11.939345 604.050963 9.433928 C 601.847591 7.554865 598.175304 4.631879 595.971932 3.901132 C 594.083328 6.824119 593.663638 10.373459 593.139025 13.818407 Z M 593.139025 13.818407 " stroke="#cccccc" stroke-width="1" stroke-opacity="1" stroke-miterlimit="4"/><path stroke-linecap="butt" transform="matrix(0.0372299, 0, 0, 0.0374189, 23.362825, 18.26418)" fill-opacity="1" fill="#f2f2f2" fill-rule="nonzero" stroke-linejoin="miter" d="M 580.758173 11.939345 C 578.344956 15.69747 578.030188 22.169796 578.869568 25.092783 C 579.499103 28.224554 582.227088 31.460717 584.115692 32.191464 C 586.214142 31.878286 589.466739 30.416793 591.040576 26.971845 C 593.034103 22.065404 593.243948 18.098494 592.089801 14.340369 C 591.145498 11.521775 589.256894 6.928511 587.683057 5.049448 C 584.745227 6.510941 582.7517 9.329535 580.758173 11.939345 Z M 580.758173 11.939345 " stroke="#cccccc" stroke-width="1" stroke-opacity="1" stroke-miterlimit="4"/><path stroke-linecap="butt" transform="matrix(0.0372299, 0, 0, 0.0374189, 23.362825, 18.26418)" fill-opacity="1" fill="#f2f2f2" fill-rule="nonzero" stroke-linejoin="miter" d="M 603.841118 7.868042 C 605.939568 11.939345 610.975847 14.966723 613.703831 15.2799 C 616.536738 16.115039 620.209025 14.757938 621.67794 13.087661 C 622.307475 10.791029 622.51732 6.928511 620.41887 3.901132 C 617.271196 -0.274562 614.228444 -2.153625 610.66108 -2.571194 C 607.933095 -2.779979 603.421428 -2.884371 601.218056 -2.049233 C 601.113134 1.6045 602.582049 4.736271 603.841118 7.868042 Z M 603.841118 7.868042 " stroke="#cccccc" stroke-width="1" stroke-opacity="1" stroke-miterlimit="4"/><path stroke-linecap="butt" transform="matrix(0.0372299, 0, 0, 0.0374189, 23.362825, 18.26418)" fill-opacity="1" fill="#f2f2f2" fill-rule="nonzero" stroke-linejoin="miter" d="M 572.15453 3.901132 C 568.062553 5.049448 564.180421 9.747105 563.131196 12.565699 C 561.767204 15.488685 561.977049 19.768772 563.026274 21.752227 C 564.809956 23.004935 568.167475 24.257644 571.31515 22.691758 C 575.721894 20.395126 578.135111 17.576532 579.394181 13.922799 C 580.338483 10.999813 581.597553 6.197764 581.387708 3.587955 C 578.344956 2.544032 575.197282 3.379171 572.15453 3.901132 Z M 572.15453 3.901132 " stroke="#cccccc" stroke-width="1" stroke-opacity="1" stroke-miterlimit="4"/><path stroke-linecap="butt" transform="matrix(0.0372299, 0, 0, 0.0374189, 23.362825, 18.26418)" fill-opacity="1" fill="#f2f2f2" fill-rule="nonzero" stroke-linejoin="miter" d="M 569.111778 -8.312774 C 565.229646 -9.983052 559.563832 -8.625952 557.255538 -6.955674 C 554.632476 -5.598573 552.638948 -1.840448 552.429104 0.351792 C 553.268483 2.544032 555.26201 5.780195 558.724452 6.510941 C 563.445964 7.450473 566.908406 6.824119 569.846235 4.631879 C 572.049607 2.752816 575.616971 -0.274562 576.876041 -2.571194 C 574.882514 -5.389788 571.944685 -6.746889 569.111778 -8.312774 Z M 569.111778 -8.312774 " stroke="#cccccc" stroke-width="1" stroke-opacity="1" stroke-miterlimit="4"/><path stroke-linecap="butt" transform="matrix(0.0372299, 0, 0, 0.0374189, 23.362825, 18.26418)" fill-opacity="1" fill="#f2f2f2" fill-rule="nonzero" stroke-linejoin="miter" d="M 610.975847 -3.823903 C 614.438289 -1.214094 620.209025 -1.005309 622.727165 -2.049233 C 625.664994 -2.675587 628.392979 -5.807358 629.022513 -7.895205 C 628.707746 -10.296229 627.343754 -13.949962 624.301002 -15.515848 C 619.789335 -17.708087 616.326893 -17.916872 612.969374 -16.559771 C 610.451235 -15.411455 606.359258 -13.323608 604.680498 -11.444545 C 606.04449 -8.208382 608.56263 -6.120535 610.975847 -3.823903 Z M 610.975847 -3.823903 " stroke="#cccccc" stroke-width="1" stroke-opacity="1" stroke-miterlimit="4"/><path stroke-linecap="butt" transform="matrix(0.0372299, 0, 0, 0.0374189, 23.362825, 18.26418)" fill-opacity="1" fill="#f2f2f2" fill-rule="nonzero" stroke-linejoin="miter" d="M 607.408483 -28.878071 C 610.031545 -32.531803 615.487514 -34.515258 618.215498 -34.410866 C 621.153327 -34.619651 624.615769 -32.531803 625.769917 -30.757133 C 626.084684 -28.356109 625.664994 -24.389199 623.146855 -21.883782 C 619.369645 -18.334442 616.117048 -17.081733 612.549684 -17.290518 C 609.8217 -17.603695 605.414956 -18.334442 603.316506 -19.58715 C 603.736196 -23.13649 605.729723 -25.955084 607.408483 -28.878071 Z M 607.408483 -28.878071 " stroke="#cccccc" stroke-width="1" stroke-opacity="1" stroke-miterlimit="4"/></svg>