<svg xmlns="http://www.w3.org/2000/svg" xmlns:xlink="http://www.w3.org/1999/xlink" width="120" zoomAndPan="magnify" viewBox="0 0 90 89.999999" height="120" preserveAspectRatio="xMidYMid meet" version="1.0"><defs><clipPath id="8cdcc2c223"><path d="M 41 0.00390625 L 49 0.00390625 L 49 2 L 41 2 Z M 41 0.00390625 " clip-rule="nonzero"/></clipPath><clipPath id="63c1bd6825"><path d="M 42 0.00390625 L 49 0.00390625 L 49 2 L 42 2 Z M 42 0.00390625 " clip-rule="nonzero"/></clipPath><clipPath id="09bc82f762"><path d="M 22.808594 1 L 67.058594 1 L 67.058594 89.996094 L 22.808594 89.996094 Z M 22.808594 1 " clip-rule="nonzero"/></clipPath></defs><g clip-path="url(#8cdcc2c223)"><path stroke-linecap="butt" transform="matrix(0.0769565, 0, 0, 0.0771807, 22.808746, 0.0036501)" fill="none" stroke-linejoin="miter" d="M 275.265055 0.00331886 L 305.263731 0.00331886 C 314.197347 2.989412 322.978685 6.937128 330.186489 13.162372 C 330.947877 14.123995 331.760024 15.13623 332.572171 16.148465 C 322.623371 12.959925 313.334441 7.949363 303.131846 5.722446 C 285.924483 2.179624 267.854215 6.380399 252.474183 14.377054 C 251.814314 14.022772 251.205204 13.719102 250.545334 13.415431 C 258.108452 7.848139 265.925366 2.179624 275.265055 0.00331886 Z M 275.265055 0.00331886 " stroke="#010101" stroke-width="0.1" stroke-opacity="1" stroke-miterlimit="10"/></g><g clip-path="url(#63c1bd6825)"><path fill="#010101" d="M 43.992188 0.00390625 L 46.300781 0.00390625 C 46.988281 0.234375 47.664062 0.539062 48.21875 1.019531 C 48.277344 1.09375 48.339844 1.171875 48.402344 1.25 C 47.636719 1.003906 46.921875 0.617188 46.136719 0.445312 C 44.8125 0.171875 43.421875 0.496094 42.238281 1.113281 C 42.1875 1.085938 42.140625 1.0625 42.089844 1.039062 C 42.671875 0.609375 43.273438 0.171875 43.992188 0.00390625 " fill-opacity="1" fill-rule="nonzero"/></g><g clip-path="url(#09bc82f762)"><path stroke-linecap="butt" transform="matrix(0.0769565, 0, 0, 0.0771807, 22.808746, 0.0036501)" fill="none" stroke-linejoin="miter" d="M 268.564844 19.590064 C 277.092386 16.654583 286.178279 18.274159 294.959618 17.869265 C 307.903209 16.806418 319.679339 23.385945 330.592563 29.408742 C 333.079762 30.825871 335.617722 28.598954 337.851125 27.637331 C 336.582146 24.600627 335.211648 21.563922 334.044187 18.476605 C 337.800366 20.04557 338.81555 24.296956 340.592121 27.637331 C 333.638113 36.646222 322.72489 40.998832 313.080645 46.566123 C 306.329674 49.602828 299.629462 52.943203 292.472418 54.967673 C 299.730981 64.685128 306.989543 74.503806 311.963943 85.587778 C 316.227714 95.254621 320.8468 104.820241 323.283241 115.094425 C 315.923159 106.186758 311.151796 95.254621 302.725772 87.156742 C 300.238572 89.282436 296.583911 91.256294 296.482393 94.900339 C 296.68543 101.378642 298.614279 107.654499 300.086295 113.930355 C 302.573495 125.267386 305.822082 136.401969 307.598654 147.890835 C 310.085854 163.074359 313.537478 178.257882 313.486719 193.745075 C 315.314049 204.474765 313.334441 215.406902 315.111012 226.136592 C 315.415567 241.016445 315.111012 255.946909 315.26329 270.877374 C 320.339208 266.676599 324.806016 261.666036 328.206881 255.946909 C 338.612513 239.093198 344.500578 219.911347 349.728774 200.931943 C 357.748724 169.097156 362.570847 136.503193 364.347418 103.757394 C 363.789067 91.863634 365.768675 79.615592 362.215532 68.076115 C 361.14959 62.458211 352.875843 61.445976 353.484953 55.068896 C 352.41901 49.855887 356.022912 45.098383 355.210765 39.986597 C 351.708382 31.180153 341.658064 27.181825 337.800366 18.527217 C 350.337884 21.159028 359.982128 30.117307 369.981687 37.506621 C 378.864544 44.794712 389.219417 50.615063 396.173424 59.978236 C 408.355628 73.896465 426.628933 79.514369 443.887054 84.018814 C 469.469682 90.395894 495.509141 95.811351 521.954675 96.772974 C 533.680045 100.72069 541.496959 112.91812 541.953792 125.11555 C 543.9334 147.941447 547.63882 170.564897 550.278298 193.28957 C 551.191963 198.603803 550.836649 204.069871 550.785889 209.434716 C 554.795865 211.155515 559.008877 212.673868 562.054428 215.963631 C 559.161154 220.771747 554.592828 224.719463 553.476126 230.387978 C 552.816257 234.082636 555.811048 236.765058 558.247489 238.991975 C 560.328615 240.611551 560.734689 243.293973 561.496077 245.622113 C 559.008877 246.634348 556.521677 247.646583 554.085236 248.658818 C 556.31864 256.149356 560.68393 262.880718 561.851391 270.624315 C 565.912125 292.691035 565.049219 315.263873 569.109954 337.330594 C 571.343358 354.083081 572.46006 370.987403 573.526002 387.841114 C 574.642704 393.104736 573.475243 398.621416 574.94726 403.885037 L 574.94726 435.365542 C 573.018411 445.791561 572.155505 456.369416 570.429692 466.846047 C 561.242281 474.235362 553.120812 483.092417 542.867457 489.165826 C 536.014968 493.518436 529.314756 498.174717 522.513026 502.62855 C 505.254904 514.370475 486.778562 524.08793 469.418922 535.627407 C 471.347771 540.992252 470.028033 546.812603 471.093975 552.379895 C 474.850155 607.546696 478.403297 662.713497 482.311754 717.880298 C 473.378139 723.093308 462.76947 723.650037 452.719152 724.459825 C 452.668393 742.680053 449.216768 760.748445 448.810695 778.968673 C 448.049307 794.050973 445.054516 808.880214 444.19161 823.911902 C 443.024148 844.865164 438.303545 865.36292 435.816345 886.113735 C 430.892704 921.238286 420.487072 955.198766 413.78686 989.969034 C 412.619399 998.775478 414.091415 1007.733757 412.873195 1016.590812 C 412.061048 1028.13029 413.279268 1039.720379 412.213326 1051.259857 C 411.096624 1057.434489 412.061048 1063.760957 411.29966 1069.93559 C 409.421571 1083.600761 407.898795 1097.468379 409.675366 1111.234773 C 410.08144 1150.053981 417.441521 1188.468295 418.050631 1227.287503 C 419.725684 1236.49884 418.101391 1245.862013 419.37037 1255.123962 C 420.131758 1265.448758 418.862778 1275.874777 420.487072 1286.199573 C 419.725684 1303.610013 424.141733 1320.666171 427.339561 1337.671717 C 429.674484 1351.185052 434.801161 1364.546553 443.836295 1375.073796 C 445.815903 1378.161112 449.825879 1376.895818 452.922189 1377.098265 C 459.267086 1378.66723 460.485307 1386.107156 465.86578 1388.992025 C 470.231069 1391.72506 474.697877 1394.35687 478.809371 1397.494798 C 482.210236 1401.341291 484.291362 1406.149407 484.189844 1411.413028 C 485.915656 1412.830157 487.590709 1414.297897 489.316521 1415.81625 C 489.316521 1418.245613 489.316521 1420.674977 489.316521 1423.154953 C 483.377697 1425.584316 477.388114 1428.01368 471.39853 1430.392432 C 459.114809 1435.301771 445.562107 1436.971959 432.466239 1435.099324 C 425.664508 1434.137701 418.710501 1434.542595 412.010289 1432.821796 C 406.071465 1429.380197 398.965179 1428.266739 393.584706 1423.812905 C 387.899678 1417.992555 384.498813 1409.692229 377.037213 1405.744513 C 374.14394 1403.92249 370.895352 1405.289007 367.900561 1405.845736 C 366.530063 1407.364088 365.159565 1408.831829 363.789067 1410.350181 C 356.327467 1410.451405 349.170423 1408.123265 342.216415 1405.592677 C 334.957852 1402.555973 326.937902 1399.974774 321.608188 1393.951976 C 320.8468 1387.170003 320.389967 1380.438641 320.440726 1373.707279 C 319.324024 1366.824081 319.780857 1359.890272 319.222506 1353.007075 C 316.989102 1352.602181 314.755698 1352.197287 312.573053 1351.893617 C 312.014702 1349.261806 311.659388 1346.629995 311.253315 1343.947573 C 310.085854 1334.533789 304.350066 1326.132239 305.009935 1316.364172 C 305.212972 1306.646718 306.786507 1296.979874 306.938784 1287.313031 C 303.893233 1263.677347 300.035536 1240.092274 299.12187 1216.254143 C 299.578703 1201.981631 297.649854 1187.860954 296.07632 1173.689666 C 294.655063 1162.150188 295.264173 1150.458875 293.081528 1139.020621 C 287.091945 1100.454472 280.137937 1062.040158 273.539243 1023.625844 C 266.432958 981.010756 258.565285 938.496891 253.083293 895.679355 C 252.321906 915.013041 252.931016 934.397339 252.727979 953.731026 C 252.778738 1002.470135 252.67722 1051.209245 252.778738 1099.948354 C 254.098477 1108.653574 252.880257 1117.561241 254.301514 1126.266461 C 254.758346 1131.681918 254.047718 1137.198598 254.961383 1142.664667 C 257.144028 1165.237504 252.880257 1187.607895 250.342298 1209.978286 C 248.565726 1222.428775 249.276355 1234.980488 249.124077 1247.481589 C 249.428632 1273.293578 247.652061 1299.510462 239.530592 1324.158381 C 237.144911 1330.78852 233.541009 1337.722329 235.419098 1344.959808 C 236.688078 1361.914742 233.287213 1378.768453 233.033417 1395.672776 C 227.602185 1401.796797 219.683752 1404.377996 212.069875 1406.453077 C 204.557516 1408.2751 196.740603 1410.350181 188.974448 1408.983664 C 184.964473 1406.706136 180.954497 1404.479219 176.284653 1403.92249 C 173.34062 1404.681666 170.24431 1405.137172 167.604833 1406.756748 C 159.534123 1411.666087 154.76276 1420.725589 146.235217 1425.027587 C 140.803985 1427.861845 134.560606 1428.216127 128.977096 1430.594879 C 121.058664 1434.340148 112.125048 1434.188313 103.648265 1435.959724 C 97.861718 1437.5793 91.973653 1435.909112 86.136347 1435.8585 C 69.639613 1434.491983 54.208822 1427.963068 38.21968 1424.065964 C 38.321199 1420.978648 38.676513 1417.992555 39.640938 1415.107685 C 41.519027 1414.196674 43.447876 1413.285663 45.325966 1412.425263 C 45.732039 1407.11103 47.711647 1401.695573 52.330733 1398.608257 C 58.827908 1394.458094 66.187989 1391.775671 72.888201 1387.929179 C 76.593621 1385.702262 78.979303 1381.906381 82.430927 1379.325182 C 86.491662 1377.148877 91.313784 1378.262336 95.679073 1378.1105 C 103.34371 1373.403608 107.912036 1365.406953 112.63264 1358.06825 C 117.657799 1348.401407 122.276884 1337.519882 119.992721 1326.43591 C 119.332852 1315.200102 117.911595 1304.014907 116.845652 1292.829711 C 118.926778 1291.159524 123.698141 1291.0583 123.241309 1287.515478 C 122.073847 1265.043864 117.607039 1242.521638 120.449554 1219.9488 C 121.109423 1195.705774 126.337619 1171.817031 127.149765 1147.574006 C 128.520263 1139.223068 126.997488 1130.720295 128.266467 1122.419969 C 129.33241 1106.932775 127.454321 1091.293746 129.230892 1075.907776 C 127.403561 1046.552964 122.023088 1017.653658 116.33806 988.855576 C 114.104656 969.572502 108.825701 950.795544 106.896852 931.461858 C 104.714207 912.229395 104.257375 892.845097 101.008787 873.713858 C 96.998812 848.863492 95.120722 823.760067 92.125931 798.808477 C 91.059988 779.930296 94.359335 761.254563 96.288183 742.578829 C 97.455645 735.442573 96.846534 728.10387 98.420069 720.967614 C 98.724624 720.309662 99.232216 718.943145 99.536771 718.285192 C 92.582763 715.096652 85.019645 713.679523 78.014878 710.642818 C 75.172364 709.833031 72.279091 707.757949 69.284299 708.770184 C 70.350242 705.935926 70.654797 702.899222 71.060871 699.913129 C 77.862601 644.999386 84.918127 590.085644 91.770616 535.222513 C 90.90771 531.578468 91.770616 527.377693 89.638731 524.189153 C 84.765849 519.482261 79.030062 515.635768 73.446552 511.839887 C 64.157622 505.412196 56.036153 497.466152 47.356333 490.279284 C 41.112954 485.572392 36.899942 478.942254 31.722505 473.172515 C 24.159387 463.505672 16.443992 453.88944 9.946817 443.412809 C 6.03836 436.883894 1.774589 430.304368 0.657887 422.661994 C -0.81413 415.57635 0.860923 408.440094 0.911682 401.35445 C 1.774589 378.731 7.104303 356.563056 8.271764 333.990219 C 9.896058 316.782226 12.637053 299.624844 15.784123 282.619298 C 18.474359 268.802292 21.773706 255.137121 23.550277 241.16828 C 23.956351 236.309552 28.676954 233.171624 28.778473 228.262285 C 25.83444 226.996991 21.113837 224.415792 23.194963 220.5693 C 25.682163 217.735042 29.692138 216.570972 32.737689 214.394667 C 33.194522 212.926927 33.651354 211.408574 34.057428 209.940834 C 32.331615 207.713917 30.453526 205.487 29.59062 202.703354 C 28.524677 196.47811 31.722505 190.758983 32.889966 184.786797 C 36.696905 164.997605 40.960676 145.360248 46.594945 126.026562 C 48.929868 118.4348 49.538978 110.387533 52.330733 102.947606 C 54.107304 97.329703 59.538536 93.685657 64.969769 92.217917 C 81.821817 87.865307 99.181457 86.296343 116.185782 82.804132 C 130.60139 79.615592 145.47383 77.742958 159.026531 71.618937 C 166.894204 68.177338 175.370987 65.292469 181.715885 59.269671 C 185.370546 55.321955 188.263819 50.615063 192.781386 47.527747 C 203.288537 40.037208 215.064667 34.57114 225.825613 27.485496 C 224.099801 33.255235 221.71412 38.771915 219.83603 44.491042 C 217.754903 50.868122 218.770087 57.903154 222.120193 63.672893 C 221.003491 71.517713 217.247312 78.755193 214.658593 86.245731 C 210.394822 97.430926 209.227361 109.527133 208.66901 121.420893 C 207.044716 131.391407 208.821288 141.463144 209.684194 151.383046 C 214.100242 178.662776 222.678544 205.487 236.58656 229.426355 C 245.621694 246.027007 254.758346 262.728883 266.788272 277.406289 C 267.194346 277.203842 268.057252 276.798948 268.463325 276.596501 L 266.889791 274.217749 C 267.143586 257.768932 266.737513 241.320115 267.092827 224.92191 C 268.76788 215.761184 266.991309 206.448623 268.564844 197.287898 C 269.275472 182.86355 269.630786 168.439203 270.747488 154.014856 C 273.793039 133.567712 282.878933 114.487084 284.706263 93.786881 C 282.371341 90.8514 279.630345 88.168977 277.041627 85.435943 C 273.894558 87.004907 270.849007 88.82693 269.021676 91.914246 C 263.793481 98.190103 260.291097 105.832476 254.149236 111.247933 C 256.687195 100.821913 262.778297 91.762411 266.686754 81.842509 C 271.711913 72.58056 274.706704 61.496588 283.894116 55.220732 C 277.955292 51.627298 271.407358 49.197934 265.214738 46.009394 C 254.352273 40.897608 242.626902 36.291939 233.896323 27.789166 C 232.576584 22.424322 238.41389 21.665145 242.271588 22.171263 C 241.104127 23.234109 239.936665 24.296956 238.870723 25.359803 C 240.139702 27.384272 241.713237 29.206295 243.134494 31.129542 C 251.306722 26.675708 259.529709 22.120651 268.564844 19.590064 Z M 268.564844 19.590064 " stroke="#010101" stroke-width="0.1" stroke-opacity="1" stroke-miterlimit="10"/><path fill="#010101" d="M 43.476562 1.515625 C 44.132812 1.289062 44.832031 1.414062 45.507812 1.382812 C 46.503906 1.300781 47.410156 1.808594 48.25 2.273438 C 48.441406 2.382812 48.636719 2.210938 48.808594 2.136719 C 48.710938 1.902344 48.605469 1.667969 48.515625 1.429688 C 48.804688 1.550781 48.882812 1.878906 49.019531 2.136719 C 48.484375 2.832031 47.644531 3.167969 46.902344 3.597656 C 46.382812 3.832031 45.867188 4.089844 45.316406 4.246094 C 45.875 4.996094 46.433594 5.753906 46.816406 6.609375 C 47.144531 7.355469 47.5 8.09375 47.6875 8.886719 C 47.121094 8.199219 46.753906 7.355469 46.105469 6.730469 C 45.914062 6.894531 45.632812 7.046875 45.625 7.328125 C 45.640625 7.828125 45.789062 8.3125 45.902344 8.796875 C 46.09375 9.671875 46.34375 10.53125 46.480469 11.417969 C 46.671875 12.589844 46.9375 13.761719 46.933594 14.957031 C 47.074219 15.785156 46.921875 16.628906 47.058594 17.457031 C 47.082031 18.605469 47.058594 19.757812 47.070312 20.910156 C 47.460938 20.585938 47.804688 20.199219 48.066406 19.757812 C 48.867188 18.457031 49.320312 16.976562 49.722656 15.511719 C 50.339844 13.054688 50.710938 10.539062 50.847656 8.011719 C 50.804688 7.09375 50.957031 6.148438 50.683594 5.257812 C 50.601562 4.824219 49.964844 4.746094 50.011719 4.253906 C 49.929688 3.851562 50.207031 3.484375 50.144531 3.089844 C 49.875 2.410156 49.101562 2.101562 48.804688 1.433594 C 49.769531 1.636719 50.511719 2.328125 51.28125 2.898438 C 51.964844 3.460938 52.761719 3.910156 53.296875 4.632812 C 54.234375 5.707031 55.640625 6.140625 56.96875 6.488281 C 58.9375 6.980469 60.941406 7.398438 62.976562 7.472656 C 63.878906 7.777344 64.480469 8.71875 64.515625 9.660156 C 64.667969 11.421875 64.953125 13.167969 65.15625 14.921875 C 65.226562 15.332031 65.199219 15.753906 65.195312 16.167969 C 65.503906 16.300781 65.828125 16.417969 66.0625 16.671875 C 65.839844 17.042969 65.488281 17.347656 65.402344 17.785156 C 65.351562 18.070312 65.582031 18.277344 65.769531 18.449219 C 65.929688 18.574219 65.960938 18.78125 66.019531 18.960938 C 65.828125 19.039062 65.636719 19.117188 65.449219 19.195312 C 65.621094 19.773438 65.957031 20.292969 66.046875 20.890625 C 66.359375 22.59375 66.292969 24.335938 66.605469 26.039062 C 66.777344 27.332031 66.863281 28.636719 66.945312 29.9375 C 67.03125 30.34375 66.941406 30.769531 67.054688 31.175781 L 67.054688 33.605469 C 66.90625 34.410156 66.839844 35.226562 66.707031 36.035156 C 66 36.605469 65.375 37.289062 64.585938 37.757812 C 64.058594 38.09375 63.542969 38.453125 63.019531 38.796875 C 61.691406 39.703125 60.269531 40.453125 58.933594 41.34375 C 59.082031 41.757812 58.980469 42.207031 59.0625 42.636719 C 59.351562 46.894531 59.625 51.152344 59.925781 55.410156 C 59.238281 55.8125 58.421875 55.855469 57.648438 55.917969 C 57.644531 57.324219 57.378906 58.71875 57.347656 60.125 C 57.289062 61.289062 57.058594 62.433594 56.992188 63.59375 C 56.902344 65.210938 56.539062 66.792969 56.347656 68.394531 C 55.96875 71.105469 55.167969 73.726562 54.652344 76.410156 C 54.5625 77.089844 54.675781 77.78125 54.582031 78.464844 C 54.519531 79.355469 54.613281 80.25 54.53125 81.140625 C 54.445312 81.617188 54.519531 82.105469 54.460938 82.582031 C 54.316406 83.636719 54.199219 84.707031 54.335938 85.769531 C 54.367188 88.765625 54.933594 91.730469 54.980469 94.726562 C 55.109375 95.4375 54.984375 96.160156 55.082031 96.875 C 55.140625 97.671875 55.042969 98.476562 55.167969 99.273438 C 55.109375 100.617188 55.449219 101.933594 55.695312 103.246094 C 55.875 104.289062 56.269531 105.320312 56.964844 106.132812 C 57.117188 106.371094 57.425781 106.273438 57.664062 106.289062 C 58.152344 106.410156 58.246094 106.984375 58.660156 107.207031 C 58.996094 107.417969 59.339844 107.621094 59.65625 107.863281 C 59.917969 108.160156 60.078125 108.53125 60.070312 108.9375 C 60.203125 109.046875 60.332031 109.160156 60.464844 109.277344 C 60.464844 109.464844 60.464844 109.652344 60.464844 109.84375 C 60.007812 110.03125 59.546875 110.21875 59.085938 110.402344 C 58.140625 110.78125 57.097656 110.910156 56.089844 110.765625 C 55.566406 110.691406 55.03125 110.722656 54.515625 110.589844 C 54.058594 110.324219 53.511719 110.238281 53.097656 109.894531 C 52.660156 109.445312 52.398438 108.804688 51.824219 108.5 C 51.601562 108.359375 51.351562 108.464844 51.121094 108.507812 C 51.015625 108.625 50.910156 108.738281 50.804688 108.855469 C 50.230469 108.863281 49.679688 108.683594 49.144531 108.488281 C 48.585938 108.253906 47.96875 108.054688 47.558594 107.589844 C 47.5 107.066406 47.464844 106.546875 47.46875 106.027344 C 47.382812 105.496094 47.417969 104.960938 47.375 104.429688 C 47.203125 104.398438 47.03125 104.367188 46.863281 104.34375 C 46.820312 104.140625 46.792969 103.9375 46.761719 103.730469 C 46.671875 103.003906 46.230469 102.355469 46.28125 101.601562 C 46.296875 100.851562 46.417969 100.105469 46.429688 99.359375 C 46.195312 97.535156 45.898438 95.714844 45.828125 93.875 C 45.863281 92.773438 45.714844 91.683594 45.59375 90.589844 C 45.484375 89.699219 45.53125 88.796875 45.363281 87.914062 C 44.902344 84.9375 44.367188 81.972656 43.859375 79.007812 C 43.3125 75.71875 42.707031 72.4375 42.285156 69.132812 C 42.226562 70.625 42.273438 72.121094 42.257812 73.613281 C 42.261719 77.375 42.253906 81.136719 42.261719 84.898438 C 42.363281 85.570312 42.269531 86.257812 42.378906 86.929688 C 42.414062 87.347656 42.359375 87.773438 42.429688 88.195312 C 42.597656 89.9375 42.269531 91.664062 42.074219 93.390625 C 41.9375 94.351562 41.992188 95.320312 41.980469 96.285156 C 42.003906 98.277344 41.867188 100.300781 41.242188 102.203125 C 41.058594 102.714844 40.78125 103.25 40.925781 103.808594 C 41.023438 105.117188 40.761719 106.417969 40.742188 107.722656 C 40.324219 108.195312 39.714844 108.394531 39.128906 108.554688 C 38.550781 108.695312 37.949219 108.855469 37.351562 108.75 C 37.042969 108.574219 36.734375 108.402344 36.375 108.359375 C 36.148438 108.417969 35.910156 108.453125 35.707031 108.578125 C 35.085938 108.957031 34.71875 109.65625 34.0625 109.988281 C 33.644531 110.207031 33.164062 110.234375 32.734375 110.417969 C 32.125 110.707031 31.4375 110.695312 30.785156 110.832031 C 30.339844 110.957031 29.886719 110.828125 29.4375 110.824219 C 28.167969 110.71875 26.980469 110.214844 25.75 109.914062 C 25.757812 109.675781 25.785156 109.445312 25.859375 109.222656 C 26.003906 109.152344 26.152344 109.082031 26.296875 109.015625 C 26.328125 108.605469 26.480469 108.1875 26.835938 107.949219 C 27.335938 107.628906 27.902344 107.421875 28.417969 107.125 C 28.703125 106.953125 28.886719 106.660156 29.152344 106.460938 C 29.464844 106.292969 29.835938 106.378906 30.171875 106.367188 C 30.761719 106.003906 31.113281 105.386719 31.476562 104.820312 C 31.863281 104.074219 32.21875 103.234375 32.042969 102.378906 C 31.992188 101.511719 31.882812 100.648438 31.800781 99.785156 C 31.960938 99.65625 32.328125 99.648438 32.292969 99.375 C 32.203125 97.640625 31.859375 95.902344 32.078125 94.160156 C 32.128906 92.289062 32.53125 90.445312 32.59375 88.574219 C 32.699219 87.929688 32.582031 87.273438 32.679688 86.632812 C 32.761719 85.4375 32.617188 84.230469 32.753906 83.042969 C 32.613281 80.777344 32.199219 78.546875 31.761719 76.324219 C 31.589844 74.835938 31.183594 73.386719 31.035156 71.894531 C 30.867188 70.410156 30.832031 68.914062 30.582031 67.4375 C 30.273438 65.519531 30.128906 63.582031 29.898438 61.65625 C 29.816406 60.199219 30.070312 58.757812 30.21875 57.316406 C 30.308594 56.765625 30.261719 56.199219 30.382812 55.648438 C 30.40625 55.597656 30.445312 55.492188 30.46875 55.441406 C 29.933594 55.195312 29.351562 55.085938 28.8125 54.851562 C 28.59375 54.789062 28.371094 54.628906 28.140625 54.707031 C 28.222656 54.488281 28.246094 54.253906 28.277344 54.023438 C 28.800781 49.785156 29.34375 45.546875 29.871094 41.3125 C 29.804688 41.03125 29.871094 40.707031 29.707031 40.460938 C 29.332031 40.097656 28.890625 39.800781 28.460938 39.507812 C 27.746094 39.011719 27.121094 38.398438 26.453125 37.84375 C 25.972656 37.480469 25.648438 36.96875 25.25 36.523438 C 24.667969 35.777344 24.074219 35.035156 23.574219 34.226562 C 23.273438 33.722656 22.945312 33.214844 22.859375 32.625 C 22.746094 32.078125 22.875 31.527344 22.878906 30.980469 C 22.945312 29.234375 23.355469 27.523438 23.445312 25.78125 C 23.570312 24.453125 23.78125 23.128906 24.023438 21.816406 C 24.230469 20.75 24.484375 19.695312 24.621094 18.617188 C 24.652344 18.242188 25.015625 18 25.023438 17.621094 C 24.796875 17.523438 24.433594 17.324219 24.59375 17.027344 C 24.785156 16.808594 25.09375 16.71875 25.328125 16.550781 C 25.363281 16.4375 25.398438 16.320312 25.429688 16.207031 C 25.296875 16.035156 25.152344 15.863281 25.085938 15.648438 C 25.003906 15.167969 25.25 14.726562 25.339844 14.265625 C 25.632812 12.738281 25.960938 11.222656 26.394531 9.730469 C 26.574219 9.144531 26.621094 8.523438 26.835938 7.949219 C 26.972656 7.515625 27.390625 7.234375 27.808594 7.121094 C 29.105469 6.785156 30.441406 6.664062 31.75 6.394531 C 32.859375 6.148438 34.003906 6.003906 35.046875 5.53125 C 35.652344 5.265625 36.304688 5.042969 36.792969 4.578125 C 37.074219 4.273438 37.296875 3.910156 37.644531 3.671875 C 38.453125 3.09375 39.359375 2.671875 40.1875 2.125 C 40.054688 2.570312 39.871094 2.996094 39.726562 3.4375 C 39.566406 3.929688 39.644531 4.472656 39.902344 4.917969 C 39.816406 5.523438 39.527344 6.082031 39.328125 6.660156 C 39 7.523438 38.910156 8.457031 38.867188 9.375 C 38.742188 10.144531 38.878906 10.921875 38.945312 11.6875 C 39.285156 13.792969 39.945312 15.863281 41.015625 17.710938 C 41.710938 18.992188 42.414062 20.28125 43.339844 21.414062 C 43.371094 21.398438 43.4375 21.367188 43.46875 21.351562 L 43.347656 21.167969 C 43.367188 19.898438 43.335938 18.628906 43.363281 17.363281 C 43.492188 16.65625 43.355469 15.9375 43.476562 15.230469 C 43.53125 14.117188 43.558594 13.003906 43.644531 11.890625 C 43.878906 10.3125 44.578125 8.839844 44.71875 7.242188 C 44.539062 7.015625 44.328125 6.808594 44.128906 6.597656 C 43.886719 6.71875 43.652344 6.859375 43.511719 7.097656 C 43.109375 7.582031 42.839844 8.171875 42.367188 8.589844 C 42.5625 7.785156 43.03125 7.085938 43.332031 6.320312 C 43.71875 5.605469 43.949219 4.75 44.65625 4.265625 C 44.199219 3.988281 43.695312 3.800781 43.21875 3.554688 C 42.382812 3.160156 41.480469 2.804688 40.808594 2.148438 C 40.707031 1.734375 41.15625 1.675781 41.453125 1.714844 C 41.363281 1.796875 41.273438 1.878906 41.191406 1.960938 C 41.289062 2.117188 41.410156 2.257812 41.519531 2.40625 C 42.148438 2.0625 42.78125 1.710938 43.476562 1.515625 " fill-opacity="1" fill-rule="nonzero"/></g></svg>