<svg xmlns="http://www.w3.org/2000/svg" xmlns:xlink="http://www.w3.org/1999/xlink" width="40" zoomAndPan="magnify" viewBox="0 0 30 30.000001" height="40" preserveAspectRatio="xMidYMid meet" version="1.0"><defs><clipPath id="16b478f43e"><path d="M 27 29 L 29 29 L 29 29.03125 L 27 29.03125 Z M 27 29 " clip-rule="nonzero"/></clipPath><clipPath id="7285912787"><path d="M 6 12 L 21 12 L 21 25.386719 L 6 25.386719 Z M 6 12 " clip-rule="nonzero"/></clipPath><clipPath id="7213b26ab7"><path d="M 6 12 L 22 12 L 22 25.386719 L 6 25.386719 Z M 6 12 " clip-rule="nonzero"/></clipPath><clipPath id="ebee57fb5c"><path d="M 7 23 L 11 23 L 11 25.386719 L 7 25.386719 Z M 7 23 " clip-rule="nonzero"/></clipPath><clipPath id="46712cafef"><path d="M 1.433594 3.613281 L 14 3.613281 L 14 14 L 1.433594 14 Z M 1.433594 3.613281 " clip-rule="nonzero"/></clipPath><clipPath id="e1c4e04334"><path d="M 21 3.613281 L 28.289062 3.613281 L 28.289062 14 L 21 14 Z M 21 3.613281 " clip-rule="nonzero"/></clipPath></defs><g clip-path="url(#16b478f43e)"><path fill="#000000" d="M 28.648438 29.320312 C 28.621094 29.179688 28.445312 29.203125 28.359375 29.328125 C 28.105469 29.695312 27.980469 28.976562 27.738281 29.203125 C 27.613281 29.324219 27.859375 29.914062 28.027344 30.078125 C 28.058594 30.109375 28.105469 30.113281 28.140625 30.085938 C 28.410156 29.882812 28.667969 29.433594 28.648438 29.320312 Z M 28.851562 29.355469 C 28.898438 29.652344 28.496094 30.3125 28.175781 30.371094 C 27.976562 30.40625 27.726562 29.820312 27.648438 29.605469 C 27.582031 29.421875 27.542969 29.125 27.761719 29.074219 C 27.960938 29.027344 28.09375 29.199219 28.214844 29.332031 C 28.46875 29.117188 28.777344 28.855469 28.851562 29.355469 " fill-opacity="1" fill-rule="nonzero"/></g><g clip-path="url(#7285912787)"><path fill="#ffffff" d="M 20.824219 14.25 C 20.925781 14.039062 20.988281 13.777344 20.988281 13.488281 C 20.988281 12.789062 20.621094 12.21875 20.167969 12.21875 L 11.804688 12.21875 C 11.355469 12.21875 10.988281 12.789062 10.988281 13.488281 C 10.988281 13.726562 11.03125 13.945312 11.101562 14.136719 L 9.613281 21.945312 C 9.269531 21.726562 8.851562 21.597656 8.394531 21.597656 C 7.257812 21.597656 6.335938 22.398438 6.335938 23.382812 C 6.335938 24.371094 7.257812 25.167969 8.394531 25.167969 C 9.480469 25.167969 10.371094 24.4375 10.445312 23.511719 L 10.449219 23.511719 L 12.121094 14.757812 L 19.589844 14.757812 L 18.21875 21.945312 C 17.878906 21.726562 17.457031 21.597656 17 21.597656 C 15.863281 21.597656 14.941406 22.398438 14.941406 23.382812 C 14.941406 24.371094 15.863281 25.167969 17 25.167969 C 18.085938 25.167969 18.976562 24.4375 19.050781 23.511719 L 19.054688 23.511719 L 20.824219 14.25 " fill-opacity="1" fill-rule="nonzero"/></g><g clip-path="url(#7213b26ab7)"><path stroke-linecap="round" transform="matrix(0.0131641, 0, 0, -0.013279, -13.086549, 42.796692)" fill="none" stroke-linejoin="round" d="M 2575.996214 2149.762652 C 2583.711304 2165.6477 2588.459051 2185.356925 2588.459051 2207.125323 C 2588.459051 2259.781313 2560.566035 2302.729774 2526.144865 2302.729774 L 1890.836903 2302.729774 C 1856.712468 2302.729774 1828.819451 2259.781313 1828.819451 2207.125323 C 1828.819451 2189.181103 1832.083528 2172.707721 1837.424743 2158.293511 L 1724.369006 1570.252593 C 1698.256395 1586.725976 1666.505833 1596.433504 1631.78793 1596.433504 C 1545.438272 1596.433504 1475.408997 1536.129158 1475.408997 1461.998937 C 1475.408997 1387.574549 1545.438272 1327.56437 1631.78793 1327.56437 C 1714.280043 1327.56437 1781.935445 1382.573701 1787.573395 1452.291409 L 1787.870129 1452.291409 L 1914.872375 2111.520872 L 2482.228201 2111.520872 L 2378.07449 1570.252593 C 2352.258613 1586.725976 2320.211317 1596.433504 2285.493414 1596.433504 C 2199.143756 1596.433504 2129.11448 1536.129158 2129.11448 1461.998937 C 2129.11448 1387.574549 2199.143756 1327.56437 2285.493414 1327.56437 C 2367.985527 1327.56437 2435.640928 1382.573701 2441.278879 1452.291409 L 2441.575613 1452.291409 Z M 2575.996214 2149.762652 " stroke="#231f20" stroke-width="30" stroke-opacity="1" stroke-miterlimit="10"/></g><path stroke-linecap="round" transform="matrix(0.0131641, 0, 0, -0.013279, -13.086549, 42.796692)" fill="none" stroke-linejoin="round" d="M 2216.651075 1371.983669 C 2216.651075 1371.983669 2350.478208 1308.149313 2418.13361 1452.879744 " stroke="#231f20" stroke-width="30" stroke-opacity="1" stroke-miterlimit="10"/><g clip-path="url(#ebee57fb5c)"><path stroke-linecap="round" transform="matrix(0.0131641, 0, 0, -0.013279, -13.086549, 42.796692)" fill="none" stroke-linejoin="round" d="M 1568.286807 1371.983669 C 1568.286807 1371.983669 1694.102116 1304.325135 1754.042428 1437.877199 " stroke="#231f20" stroke-width="30" stroke-opacity="1" stroke-miterlimit="10"/></g><path stroke-linecap="round" transform="matrix(0.0131641, 0, 0, -0.013279, -13.086549, 42.796692)" fill="none" stroke-linejoin="round" d="M 1928.818883 2154.469333 L 2397.06548 2154.469333 " stroke="#231f20" stroke-width="30" stroke-opacity="1" stroke-miterlimit="10"/><path stroke-linecap="round" transform="matrix(0.0131641, 0, 0, -0.013279, -13.086549, 42.796692)" fill="none" stroke-linejoin="round" d="M 2527.035068 2274.48969 C 2527.035068 2274.48969 2575.69948 2245.072936 2547.509729 2159.176014 " stroke="#231f20" stroke-width="30" stroke-opacity="1" stroke-miterlimit="10"/><g clip-path="url(#46712cafef)"><path fill="#ffffff" d="M 12.902344 7.523438 C 13.015625 7.421875 13.117188 7.277344 13.1875 7.105469 C 13.359375 6.679688 13.277344 6.242188 13.007812 6.128906 L 7.953125 3.988281 C 7.679688 3.875 7.320312 4.125 7.148438 4.546875 C 7.089844 4.691406 7.0625 4.835938 7.058594 4.96875 L 4.246094 9.304688 C 4.09375 9.085938 3.871094 8.898438 3.59375 8.78125 C 2.910156 8.492188 2.15625 8.738281 1.914062 9.335938 C 1.671875 9.929688 2.035156 10.648438 2.71875 10.941406 C 3.375 11.21875 4.09375 11.003906 4.363281 10.460938 L 4.367188 10.464844 L 7.523438 5.605469 L 12.035156 7.515625 L 9.445312 11.503906 C 9.292969 11.285156 9.070312 11.097656 8.792969 10.980469 C 8.105469 10.691406 7.355469 10.9375 7.113281 11.535156 C 6.871094 12.132812 7.230469 12.847656 7.917969 13.140625 C 8.574219 13.417969 9.289062 13.203125 9.5625 12.660156 L 9.566406 12.664062 L 12.902344 7.523438 " fill-opacity="1" fill-rule="nonzero"/><path stroke-linecap="round" transform="matrix(0.0131641, 0, 0, -0.013279, -13.086549, 42.796692)" fill="none" stroke-linejoin="round" d="M 1974.219218 2656.319161 C 1982.824511 2663.967517 1990.5396 2674.851716 1995.880816 2687.795088 C 2008.937122 2719.85935 2002.705703 2752.806115 1982.231042 2761.336973 L 1598.256963 2922.540787 C 1577.485568 2931.071646 1550.18602 2912.244923 1537.129714 2880.474828 C 1532.678701 2869.590629 1530.601561 2858.70643 1530.304827 2848.704734 L 1316.65619 2522.178761 C 1305.083555 2538.652144 1288.169705 2552.772186 1267.101575 2561.597212 C 1215.173087 2583.36561 1157.903383 2564.833055 1139.505861 2519.825421 C 1121.108339 2475.111954 1148.704622 2420.985127 1200.63311 2398.922561 C 1250.484459 2378.036665 1305.083555 2394.21588 1325.558216 2435.105169 L 1325.85495 2434.811001 L 1565.616199 2800.755424 L 1908.344222 2656.907496 L 1711.609435 2356.562435 C 1700.0368 2373.035817 1683.12295 2387.155859 1662.05482 2395.980885 C 1609.829598 2417.749284 1552.856628 2399.216728 1534.459106 2354.209094 C 1516.061585 2309.20146 1543.361133 2255.3688 1595.586355 2233.306234 C 1645.437704 2212.420339 1699.740066 2228.599554 1720.511461 2269.488842 L 1720.808196 2269.194675 Z M 1974.219218 2656.319161 " stroke="#231f20" stroke-width="30" stroke-opacity="1" stroke-miterlimit="10"/></g><path stroke-linecap="round" transform="matrix(0.0131641, 0, 0, -0.013279, -13.086549, 42.796692)" fill="none" stroke-linejoin="round" d="M 1565.022731 2277.725533 C 1565.022731 2277.725533 1630.007525 2205.360318 1706.861687 2275.66636 " stroke="#231f20" stroke-width="30" stroke-opacity="1" stroke-miterlimit="10"/><path stroke-linecap="round" transform="matrix(0.0131641, 0, 0, -0.013279, -13.086549, 42.796692)" fill="none" stroke-linejoin="round" d="M 1173.333562 2441.871022 C 1173.333562 2441.871022 1232.680406 2369.211639 1301.819479 2434.811001 " stroke="#231f20" stroke-width="30" stroke-opacity="1" stroke-miterlimit="10"/><path stroke-linecap="round" transform="matrix(0.0131641, 0, 0, -0.013279, -13.086549, 42.796692)" fill="none" stroke-linejoin="round" d="M 1584.607189 2823.112157 L 1867.3949 2704.562638 " stroke="#231f20" stroke-width="30" stroke-opacity="1" stroke-miterlimit="10"/><path stroke-linecap="round" transform="matrix(0.0131641, 0, 0, -0.013279, -13.086549, 42.796692)" fill="none" stroke-linejoin="round" d="M 1975.702889 2744.275256 C 1975.702889 2744.275256 1997.661222 2714.270167 1959.382507 2669.262533 " stroke="#231f20" stroke-width="30" stroke-opacity="1" stroke-miterlimit="10"/><path fill="#ffffff" d="M 25.152344 4.714844 C 25.113281 4.605469 25.042969 4.492188 24.945312 4.394531 C 24.699219 4.160156 24.378906 4.097656 24.222656 4.261719 L 21.382812 7.292969 C 21.230469 7.457031 21.300781 7.78125 21.546875 8.019531 C 21.628906 8.101562 21.71875 8.160156 21.808594 8.199219 L 24.015625 11.390625 C 23.824219 11.441406 23.636719 11.550781 23.480469 11.714844 C 23.097656 12.128906 23.0625 12.734375 23.402344 13.070312 C 23.746094 13.402344 24.335938 13.339844 24.722656 12.929688 C 25.09375 12.535156 25.140625 11.964844 24.84375 11.625 L 24.84375 11.621094 L 22.371094 8.042969 L 24.910156 5.335938 L 26.941406 8.273438 C 26.75 8.324219 26.5625 8.429688 26.40625 8.597656 C 26.019531 9.007812 25.984375 9.613281 26.328125 9.949219 C 26.671875 10.285156 27.261719 10.222656 27.648438 9.8125 C 28.015625 9.417969 28.0625 8.847656 27.765625 8.503906 L 27.769531 8.5 L 25.152344 4.714844 " fill-opacity="1" fill-rule="nonzero"/><g clip-path="url(#e1c4e04334)"><path stroke-linecap="round" transform="matrix(0.0131641, 0, 0, -0.013279, -13.086549, 42.796692)" fill="none" stroke-linejoin="round" d="M 2904.777728 2867.825624 C 2901.810386 2876.062315 2896.46917 2884.593174 2889.050815 2891.947362 C 2870.356559 2909.597415 2846.024353 2914.304096 2834.154984 2901.949059 L 2618.429207 2673.675046 C 2606.856573 2661.320009 2612.197789 2636.904103 2630.892044 2618.959883 C 2637.123463 2612.782364 2643.94835 2608.369851 2650.773237 2605.428176 L 2818.428071 2365.093293 C 2803.888094 2361.269115 2789.644851 2353.032424 2777.775483 2340.677387 C 2748.695529 2309.495628 2746.024921 2263.899659 2771.840798 2238.60125 C 2797.95341 2213.597009 2842.760277 2218.30369 2872.136964 2249.191282 C 2900.326715 2278.902203 2903.887526 2321.850665 2881.335725 2347.443241 L 2881.335725 2347.737408 L 2693.502965 2617.194878 L 2886.380207 2821.052985 L 3040.682 2599.838993 C 3026.142024 2596.014814 3011.898781 2588.072291 3000.029413 2575.423086 C 2970.652725 2544.535494 2967.982117 2498.939525 2994.094728 2473.641117 C 3020.207339 2448.342708 3065.014206 2453.049389 3094.390894 2483.936981 C 3122.283911 2513.647903 3125.844721 2556.596364 3103.292921 2582.483107 L 3103.589655 2582.777275 Z M 2904.777728 2867.825624 " stroke="#231f20" stroke-width="30" stroke-opacity="1" stroke-miterlimit="10"/></g><path stroke-linecap="round" transform="matrix(0.0131641, 0, 0, -0.013279, -13.086549, 42.796692)" fill="none" stroke-linejoin="round" d="M 3055.221977 2474.523619 C 3055.221977 2474.523619 3123.174113 2500.704531 3095.281097 2574.246416 " stroke="#231f20" stroke-width="30" stroke-opacity="1" stroke-miterlimit="10"/><path stroke-linecap="round" transform="matrix(0.0131641, 0, 0, -0.013279, -13.086549, 42.796692)" fill="none" stroke-linejoin="round" d="M 2835.045187 2241.542926 C 2835.045187 2241.542926 2901.513652 2263.605491 2875.104306 2330.675691 " stroke="#231f20" stroke-width="30" stroke-opacity="1" stroke-miterlimit="10"/><path stroke-linecap="round" transform="matrix(0.0131641, 0, 0, -0.013279, -13.086549, 42.796692)" fill="none" stroke-linejoin="round" d="M 2683.117267 2636.904103 L 2842.463542 2805.167937 " stroke="#231f20" stroke-width="30" stroke-opacity="1" stroke-miterlimit="10"/><path stroke-linecap="round" transform="matrix(0.0131641, 0, 0, -0.013279, -13.086549, 42.796692)" fill="none" stroke-linejoin="round" d="M 2844.540682 2892.535697 C 2844.540682 2892.535697 2871.246762 2900.184054 2892.018157 2860.765603 " stroke="#231f20" stroke-width="30" stroke-opacity="1" stroke-miterlimit="10"/></svg>