<svg xmlns="http://www.w3.org/2000/svg" xmlns:xlink="http://www.w3.org/1999/xlink" width="40" zoomAndPan="magnify" viewBox="0 0 30 30.000001" height="40" preserveAspectRatio="xMidYMid meet" version="1.0"><defs><clipPath id="bc273d69aa"><path d="M 0.484375 0 L 29.515625 0 L 29.515625 29.03125 L 0.484375 29.03125 Z M 0.484375 0 " clip-rule="nonzero"/></clipPath><clipPath id="fdf1a9b2ca"><path d="M 27 29 L 29 29 L 29 29.03125 L 27 29.03125 Z M 27 29 " clip-rule="nonzero"/></clipPath><clipPath id="02e8c71e8f"><path d="M 14 2.902344 L 15 2.902344 L 15 7 L 14 7 Z M 14 2.902344 " clip-rule="nonzero"/></clipPath><clipPath id="c89fe25c41"><path d="M 2.480469 26 L 26.433594 26 L 26.433594 28.304688 L 2.480469 28.304688 Z M 2.480469 26 " clip-rule="nonzero"/></clipPath></defs><g clip-path="url(#bc273d69aa)"><path fill="#ffffff" d="M 0.484375 0 L 29.515625 0 L 29.515625 36.289062 L 0.484375 36.289062 Z M 0.484375 0 " fill-opacity="1" fill-rule="nonzero"/><path fill="#ffffff" d="M 0.484375 0 L 29.515625 0 L 29.515625 29.03125 L 0.484375 29.03125 Z M 0.484375 0 " fill-opacity="1" fill-rule="nonzero"/><path fill="#ffffff" d="M 0.484375 0 L 29.515625 0 L 29.515625 29.03125 L 0.484375 29.03125 Z M 0.484375 0 " fill-opacity="1" fill-rule="nonzero"/></g><g clip-path="url(#fdf1a9b2ca)"><path fill="#000000" d="M 28.648438 29.320312 C 28.621094 29.179688 28.445312 29.203125 28.359375 29.328125 C 28.105469 29.695312 27.980469 28.976562 27.738281 29.203125 C 27.613281 29.324219 27.859375 29.914062 28.027344 30.078125 C 28.058594 30.109375 28.105469 30.113281 28.140625 30.085938 C 28.410156 29.882812 28.667969 29.433594 28.648438 29.320312 Z M 28.851562 29.355469 C 28.898438 29.652344 28.496094 30.3125 28.175781 30.371094 C 27.976562 30.40625 27.726562 29.820312 27.648438 29.605469 C 27.582031 29.421875 27.542969 29.125 27.761719 29.074219 C 27.960938 29.027344 28.09375 29.199219 28.214844 29.332031 C 28.46875 29.117188 28.777344 28.855469 28.851562 29.355469 " fill-opacity="1" fill-rule="nonzero"/></g><path fill="#000000" d="M 19.984375 27.28125 L 8.9375 27.28125 L 8.9375 14.011719 L 14.460938 6.46875 L 19.984375 14.011719 Z M 9.527344 26.683594 L 19.398438 26.683594 L 19.398438 14.207031 L 14.460938 7.46875 L 9.527344 14.207031 Z M 9.527344 26.683594 " fill-opacity="1" fill-rule="nonzero"/><path fill="#000000" d="M 17.335938 27.28125 L 11.574219 27.28125 L 11.574219 19.15625 C 11.574219 17.585938 12.851562 16.304688 14.417969 16.304688 L 14.503906 16.304688 C 16.066406 16.304688 17.34375 17.585938 17.34375 19.15625 L 17.34375 27.28125 Z M 12.167969 26.683594 L 16.742188 26.683594 L 16.742188 19.15625 C 16.742188 17.917969 15.738281 16.898438 14.492188 16.898438 L 14.410156 16.898438 C 13.175781 16.898438 12.160156 17.910156 12.160156 19.15625 L 12.160156 26.683594 Z M 12.167969 26.683594 " fill-opacity="1" fill-rule="nonzero"/><path fill="#000000" d="M 9.527344 27.28125 L 3.675781 27.28125 L 3.675781 18.691406 L 9.527344 15.050781 Z M 4.269531 26.683594 L 8.9375 26.683594 L 8.9375 16.109375 L 4.269531 19.019531 Z M 4.269531 26.683594 " fill-opacity="1" fill-rule="nonzero"/><path fill="#000000" d="M 25.242188 27.28125 L 19.390625 27.28125 L 19.390625 15.050781 L 25.242188 18.691406 Z M 19.984375 26.683594 L 24.652344 26.683594 L 24.652344 19.019531 L 19.984375 16.109375 Z M 19.984375 26.683594 " fill-opacity="1" fill-rule="nonzero"/><g clip-path="url(#02e8c71e8f)"><path fill="#000000" d="M 14.164062 2.902344 L 14.757812 2.902344 L 14.757812 6.96875 L 14.164062 6.96875 Z M 14.164062 2.902344 " fill-opacity="1" fill-rule="nonzero"/></g><path fill="#000000" d="M 12.964844 4.039062 L 15.957031 4.039062 L 15.957031 4.632812 L 12.964844 4.632812 Z M 12.964844 4.039062 " fill-opacity="1" fill-rule="nonzero"/><path fill="#000000" d="M 14.460938 13.699219 C 13.613281 13.699219 12.921875 13.011719 12.921875 12.15625 C 12.921875 11.296875 13.605469 10.609375 14.460938 10.609375 C 15.3125 10.609375 16 11.296875 16 12.15625 C 16 13.011719 15.304688 13.699219 14.460938 13.699219 Z M 14.460938 11.210938 C 13.945312 11.210938 13.511719 11.636719 13.511719 12.164062 C 13.511719 12.6875 13.9375 13.113281 14.460938 13.113281 C 14.984375 13.113281 15.40625 12.6875 15.40625 12.164062 C 15.40625 11.636719 14.976562 11.210938 14.460938 11.210938 Z M 14.460938 11.210938 " fill-opacity="1" fill-rule="nonzero"/><path fill="#000000" d="M 7.828125 24.851562 L 5.359375 24.851562 L 5.359375 20.507812 C 5.359375 19.835938 5.910156 19.285156 6.578125 19.285156 L 6.609375 19.285156 C 7.28125 19.285156 7.828125 19.835938 7.828125 20.507812 Z M 5.960938 24.257812 L 7.246094 24.257812 L 7.246094 20.507812 C 7.246094 20.160156 6.964844 19.878906 6.621094 19.878906 L 6.585938 19.878906 C 6.238281 19.878906 5.960938 20.160156 5.960938 20.507812 Z M 5.960938 24.257812 " fill-opacity="1" fill-rule="nonzero"/><path fill="#000000" d="M 23.550781 24.851562 L 21.082031 24.851562 L 21.082031 20.507812 C 21.082031 19.835938 21.632812 19.285156 22.300781 19.285156 L 22.335938 19.285156 C 23.003906 19.285156 23.550781 19.835938 23.550781 20.507812 Z M 21.675781 24.257812 L 22.960938 24.257812 L 22.960938 20.507812 C 22.960938 20.160156 22.679688 19.878906 22.335938 19.878906 L 22.300781 19.878906 C 21.953125 19.878906 21.675781 20.160156 21.675781 20.507812 Z M 21.675781 24.257812 " fill-opacity="1" fill-rule="nonzero"/><path fill="#000000" d="M 14.164062 16.609375 L 14.757812 16.609375 L 14.757812 26.980469 L 14.164062 26.980469 Z M 14.164062 16.609375 " fill-opacity="1" fill-rule="nonzero"/><g clip-path="url(#c89fe25c41)"><path fill="#000000" d="M 26.429688 28.304688 L 2.484375 28.304688 L 2.484375 26.71875 L 26.429688 26.71875 Z M 3.074219 27.710938 L 25.835938 27.710938 L 25.835938 27.3125 L 3.074219 27.3125 Z M 3.074219 27.710938 " fill-opacity="1" fill-rule="nonzero"/></g></svg>