<svg xmlns="http://www.w3.org/2000/svg" xmlns:xlink="http://www.w3.org/1999/xlink" width="80" zoomAndPan="magnify" viewBox="0 0 60 60" height="80" preserveAspectRatio="xMidYMid meet" version="1.0"><defs><clipPath id="cc82c2fd68"><path d="M 1.386719 1.386719 L 58.386719 1.386719 L 58.386719 58.386719 L 1.386719 58.386719 Z M 1.386719 1.386719 " clip-rule="nonzero"/></clipPath></defs><path fill="#000000" d="M 15.414062 39.484375 C 15.152344 39.316406 14.820312 39.292969 14.539062 39.421875 L 8.941406 41.957031 C 8.613281 42.105469 8.402344 42.433594 8.402344 42.796875 L 8.402344 50.671875 C 8.402344 51.179688 8.816406 51.59375 9.324219 51.59375 L 14.917969 51.59375 C 15.425781 51.59375 15.835938 51.179688 15.835938 50.671875 L 15.835938 40.257812 C 15.835938 39.945312 15.679688 39.652344 15.414062 39.484375 Z M 14 49.753906 L 10.242188 49.753906 L 10.242188 43.386719 L 14 41.683594 Z M 14 49.753906 " fill-opacity="1" fill-rule="nonzero"/><g clip-path="url(#cc82c2fd68)"><path fill="#000000" d="M 4.199219 40.164062 L 4.199219 56.546875 L 3.878906 56.546875 C 3.371094 56.546875 2.960938 56.960938 2.960938 57.464844 C 2.960938 57.972656 3.371094 58.386719 3.878906 58.386719 L 55.835938 58.386719 C 56.34375 58.386719 56.753906 57.972656 56.753906 57.464844 C 56.753906 56.960938 56.34375 56.546875 55.835938 56.546875 L 55.570312 56.546875 L 55.570312 40.070312 C 56.824219 39.914062 57.785156 39.085938 58.066406 37.859375 C 58.394531 36.445312 57.703125 35.007812 56.382812 34.363281 L 41.507812 27.085938 L 41.507812 25.195312 C 42.011719 25.410156 42.507812 25.523438 42.988281 25.523438 C 44.382812 25.523438 45.535156 24.617188 45.925781 23.214844 C 46.328125 21.785156 45.789062 20.335938 44.589844 19.605469 L 32.984375 12.554688 C 32.027344 11.933594 31.320312 11.542969 30.648438 11.355469 L 30.648438 6.445312 L 32.8125 6.445312 C 33.320312 6.445312 33.730469 6.035156 33.730469 5.527344 C 33.730469 5.019531 33.320312 4.605469 32.8125 4.605469 L 30.648438 4.605469 L 30.648438 2.304688 C 30.648438 1.796875 30.234375 1.386719 29.726562 1.386719 C 29.21875 1.386719 28.808594 1.796875 28.808594 2.304688 L 28.808594 4.605469 L 26.644531 4.605469 C 26.136719 4.605469 25.726562 5.019531 25.726562 5.527344 C 25.726562 6.035156 26.136719 6.445312 26.644531 6.445312 L 28.808594 6.445312 L 28.808594 11.40625 C 28.324219 11.566406 27.882812 11.8125 27.484375 12.078125 L 15.039062 19.699219 C 13.65625 20.546875 13 22.085938 13.40625 23.527344 C 13.78125 24.859375 14.949219 25.722656 16.382812 25.722656 C 16.980469 25.722656 17.609375 25.574219 18.261719 25.28125 L 18.261719 27.175781 L 3.386719 34.453125 C 2.070312 35.097656 1.375 36.539062 1.703125 37.953125 C 1.988281 39.179688 2.949219 40.007812 4.199219 40.164062 Z M 6.039062 39.945312 C 6.265625 39.871094 6.496094 39.789062 6.726562 39.679688 L 18.261719 34.339844 L 18.261719 56.546875 L 6.039062 56.546875 Z M 33.625 56.546875 L 25.714844 56.546875 L 25.714844 45.660156 L 29.671875 42.511719 L 33.625 45.660156 Z M 35.464844 56.546875 L 35.464844 45.21875 C 35.464844 44.9375 35.335938 44.675781 35.117188 44.5 L 30.246094 40.617188 C 29.910156 40.347656 29.433594 40.347656 29.101562 40.617188 L 24.222656 44.5 C 24.003906 44.675781 23.875 44.9375 23.875 45.21875 L 23.875 56.546875 L 20.097656 56.546875 L 20.097656 24.183594 L 29.820312 17.980469 L 39.667969 24.136719 L 39.667969 56.546875 Z M 41.507812 56.546875 L 41.507812 34.25 L 53.042969 39.589844 C 53.277344 39.695312 53.507812 39.78125 53.734375 39.855469 L 53.734375 56.546875 Z M 55.578125 36.015625 C 56.214844 36.328125 56.386719 36.957031 56.277344 37.445312 C 56.21875 37.691406 55.996094 38.265625 55.144531 38.265625 C 54.757812 38.265625 54.308594 38.148438 53.8125 37.917969 L 41.507812 32.222656 L 41.507812 29.132812 Z M 15.175781 23.027344 C 15.035156 22.53125 15.167969 21.773438 16 21.265625 L 28.472656 13.628906 C 29.070312 13.234375 29.464844 13.0625 29.792969 13.0625 C 30.292969 13.0625 30.972656 13.441406 32.007812 14.113281 L 43.632812 21.179688 C 44.234375 21.542969 44.289062 22.238281 44.15625 22.71875 C 44.089844 22.949219 43.820312 23.6875 42.988281 23.6875 C 42.613281 23.6875 42.171875 23.535156 41.707031 23.246094 L 30.300781 16.113281 C 30 15.925781 29.621094 15.925781 29.320312 16.117188 L 17.949219 23.375 C 16.628906 24.148438 15.4375 23.96875 15.175781 23.027344 Z M 4.195312 36.105469 L 18.261719 29.222656 L 18.261719 32.3125 L 5.953125 38.011719 C 5.460938 38.242188 5.011719 38.355469 4.625 38.355469 C 3.777344 38.355469 3.554688 37.785156 3.496094 37.539062 C 3.382812 37.050781 3.554688 36.417969 4.195312 36.105469 Z M 4.195312 36.105469 " fill-opacity="1" fill-rule="nonzero"/></g><path fill="#000000" d="M 50.828125 41.867188 L 45.230469 39.332031 C 44.945312 39.203125 44.617188 39.226562 44.351562 39.398438 C 44.089844 39.566406 43.929688 39.855469 43.929688 40.167969 L 43.929688 50.582031 C 43.929688 51.089844 44.34375 51.5 44.851562 51.5 L 50.449219 51.5 C 50.957031 51.5 51.367188 51.089844 51.367188 50.582031 L 51.367188 42.703125 C 51.367188 42.34375 51.15625 42.015625 50.828125 41.867188 Z M 49.53125 49.660156 L 45.769531 49.660156 L 45.769531 41.59375 L 49.53125 43.296875 Z M 49.53125 49.660156 " fill-opacity="1" fill-rule="nonzero"/><path fill="#000000" d="M 29.542969 25.496094 C 27.078125 25.496094 25.070312 27.5 25.070312 29.964844 C 25.070312 32.425781 27.078125 34.429688 29.542969 34.429688 C 32.003906 34.429688 34.007812 32.425781 34.007812 29.964844 C 34.007812 27.5 32.003906 25.496094 29.542969 25.496094 Z M 29.542969 32.59375 C 28.089844 32.59375 26.910156 31.414062 26.910156 29.964844 C 26.910156 28.511719 28.089844 27.332031 29.542969 27.332031 C 30.992188 27.332031 32.171875 28.511719 32.171875 29.964844 C 32.171875 31.414062 30.992188 32.59375 29.542969 32.59375 Z M 29.542969 32.59375 " fill-opacity="1" fill-rule="nonzero"/></svg>