<svg xmlns="http://www.w3.org/2000/svg" xmlns:xlink="http://www.w3.org/1999/xlink" width="80" zoomAndPan="magnify" viewBox="0 0 60 60" height="80" preserveAspectRatio="xMidYMid meet" version="1.0"><defs><clipPath id="452394dfa2"><path d="M 8 19 L 36 19 L 36 52.78125 L 8 52.78125 Z M 8 19 " clip-rule="nonzero"/></clipPath><clipPath id="f2d0f871dc"><path d="M 40 22 L 58.839844 22 L 58.839844 42 L 40 42 Z M 40 22 " clip-rule="nonzero"/></clipPath><clipPath id="3f300ddb2d"><path d="M 1.089844 14 L 15 14 L 15 36 L 1.089844 36 Z M 1.089844 14 " clip-rule="nonzero"/></clipPath><clipPath id="73d89e0f85"><path d="M 36 7.03125 L 57 7.03125 L 57 31 L 36 31 Z M 36 7.03125 " clip-rule="nonzero"/></clipPath></defs><g clip-path="url(#452394dfa2)"><path fill="#000000" d="M 34.460938 19.933594 L 17.914062 24.671875 C 17.71875 24.730469 17.582031 24.90625 17.582031 25.109375 L 17.582031 45.019531 C 16.542969 44.730469 15.316406 44.667969 14.019531 44.894531 C 12.503906 45.164062 11.136719 45.800781 10.175781 46.6875 C 9.160156 47.625 8.707031 48.730469 8.898438 49.808594 C 9.089844 50.882812 9.898438 51.765625 11.175781 52.296875 C 11.96875 52.628906 12.894531 52.796875 13.863281 52.796875 C 14.367188 52.796875 14.882812 52.75 15.402344 52.660156 C 16.921875 52.390625 18.289062 51.753906 19.25 50.867188 C 20.144531 50.039062 20.601562 49.078125 20.566406 48.125 C 20.566406 48.125 20.566406 48.121094 20.566406 48.121094 L 20.566406 29.558594 L 32.355469 26.082031 L 32.355469 40.453125 C 31.214844 40.070312 29.863281 39.984375 28.496094 40.226562 C 26.976562 40.496094 25.609375 41.132812 24.648438 42.019531 C 23.632812 42.957031 23.179688 44.0625 23.371094 45.140625 C 23.695312 46.957031 25.742188 48.132812 28.308594 48.132812 C 28.816406 48.132812 29.339844 48.085938 29.878906 47.992188 C 31.394531 47.722656 32.761719 47.085938 33.722656 46.199219 C 34.679688 45.316406 35.128906 44.285156 35.019531 43.269531 C 35.03125 43.234375 35.042969 43.199219 35.042969 43.160156 L 35.042969 20.371094 C 35.042969 20.226562 34.976562 20.09375 34.863281 20.007812 C 34.746094 19.921875 34.601562 19.894531 34.460938 19.933594 Z M 18.628906 50.203125 C 17.796875 50.972656 16.59375 51.527344 15.242188 51.765625 C 13.894531 52.003906 12.574219 51.898438 11.523438 51.460938 C 10.542969 51.054688 9.925781 50.410156 9.792969 49.648438 C 9.65625 48.886719 10.011719 48.074219 10.792969 47.355469 C 11.628906 46.582031 12.828125 46.027344 14.179688 45.789062 C 14.636719 45.707031 15.089844 45.667969 15.527344 45.667969 C 17.636719 45.667969 19.390625 46.566406 19.628906 47.90625 C 19.765625 48.667969 19.410156 49.480469 18.628906 50.203125 Z M 19.984375 28.785156 C 19.789062 28.839844 19.65625 29.019531 19.65625 29.21875 L 19.65625 46.15625 C 19.335938 45.84375 18.945312 45.574219 18.492188 45.359375 L 18.492188 25.449219 L 34.132812 20.972656 L 34.132812 41.5 C 33.886719 41.257812 33.597656 41.042969 33.261719 40.855469 L 33.261719 25.472656 C 33.261719 25.332031 33.195312 25.195312 33.082031 25.109375 C 32.964844 25.023438 32.816406 25 32.679688 25.039062 Z M 33.105469 45.535156 C 32.269531 46.304688 31.066406 46.859375 29.71875 47.097656 C 27.050781 47.570312 24.554688 46.601562 24.265625 44.980469 C 24.132812 44.21875 24.484375 43.40625 25.265625 42.6875 C 26.101562 41.914062 27.304688 41.359375 28.652344 41.121094 C 29.121094 41.039062 29.585938 40.996094 30.039062 40.996094 C 30.886719 40.996094 31.6875 41.140625 32.375 41.425781 C 33.355469 41.835938 33.96875 42.476562 34.105469 43.238281 C 34.238281 44 33.882812 44.8125 33.105469 45.535156 Z M 33.105469 45.535156 " fill-opacity="1" fill-rule="nonzero"/></g><g clip-path="url(#f2d0f871dc)"><path fill="#000000" d="M 54.191406 22.261719 C 53.746094 21.980469 53.210938 21.929688 52.722656 22.121094 C 52.238281 22.3125 51.886719 22.710938 51.757812 23.210938 L 48.453125 36.105469 C 48.074219 35.769531 47.640625 35.453125 47.160156 35.175781 C 46.019531 34.523438 44.78125 34.175781 43.683594 34.207031 C 42.5 34.238281 41.59375 34.691406 41.136719 35.484375 C 40.214844 37.074219 41.421875 39.425781 43.878906 40.839844 C 45.015625 41.496094 46.195312 41.820312 47.222656 41.820312 C 48.417969 41.820312 49.410156 41.386719 49.902344 40.53125 C 50.019531 40.328125 50.101562 40.109375 50.152344 39.882812 L 53.441406 27.46875 C 55.078125 28.707031 56.414062 31.351562 57.515625 35.523438 C 57.574219 35.738281 57.777344 35.878906 58 35.855469 C 58.222656 35.835938 58.394531 35.65625 58.410156 35.433594 C 58.8125 28.625 57.433594 24.316406 54.191406 22.261719 Z M 44.335938 40.054688 C 42.382812 38.933594 41.28125 37.046875 41.921875 35.9375 C 42.21875 35.429688 42.851562 35.136719 43.707031 35.113281 C 43.746094 35.113281 43.78125 35.113281 43.816406 35.113281 C 44.726562 35.113281 45.75 35.410156 46.703125 35.960938 C 48.652344 37.085938 49.757812 38.96875 49.113281 40.078125 C 48.472656 41.1875 46.28125 41.179688 44.335938 40.054688 Z M 53.386719 26.351562 C 53.261719 26.28125 53.117188 26.273438 52.984375 26.328125 C 52.855469 26.382812 52.757812 26.492188 52.722656 26.628906 L 49.777344 37.753906 C 49.621094 37.457031 49.421875 37.164062 49.191406 36.878906 L 52.640625 23.4375 C 52.695312 23.21875 52.847656 23.046875 53.054688 22.964844 C 53.269531 22.878906 53.507812 22.902344 53.703125 23.027344 C 56.140625 24.574219 57.433594 27.761719 57.554688 32.523438 C 56.421875 29.289062 55.070312 27.300781 53.386719 26.351562 Z M 53.386719 26.351562 " fill-opacity="1" fill-rule="nonzero"/></g><g clip-path="url(#3f300ddb2d)"><path fill="#000000" d="M 12.902344 35.53125 C 13.421875 35.46875 13.871094 35.167969 14.125 34.710938 C 14.378906 34.257812 14.398438 33.730469 14.179688 33.257812 L 8.546875 21.1875 C 8.65625 21.191406 8.761719 21.199219 8.875 21.199219 C 9.289062 21.199219 9.714844 21.164062 10.140625 21.097656 C 12.941406 20.640625 14.902344 18.863281 14.605469 17.054688 C 14.308594 15.242188 11.882812 14.183594 9.082031 14.640625 C 7.785156 14.851562 6.613281 15.363281 5.777344 16.085938 C 4.878906 16.855469 4.46875 17.78125 4.617188 18.683594 C 4.652344 18.914062 4.726562 19.132812 4.832031 19.339844 L 10.171875 31.027344 C 8.121094 31.101562 5.40625 29.898438 1.90625 27.367188 C 1.722656 27.238281 1.476562 27.257812 1.316406 27.414062 C 1.160156 27.574219 1.140625 27.820312 1.269531 28 C 4.96875 33.09375 8.492188 35.585938 12.007812 35.582031 C 12.304688 35.582031 12.601562 35.566406 12.902344 35.53125 Z M 6.371094 16.769531 C 7.082031 16.160156 8.09375 15.722656 9.226562 15.535156 C 9.605469 15.476562 9.972656 15.445312 10.332031 15.445312 C 12.089844 15.445312 13.535156 16.148438 13.707031 17.199219 C 13.914062 18.464844 12.214844 19.839844 9.992188 20.203125 C 8.859375 20.386719 7.757812 20.292969 6.890625 19.9375 C 6.097656 19.617188 5.609375 19.117188 5.511719 18.539062 C 5.417969 17.957031 5.722656 17.328125 6.371094 16.769531 Z M 3.777344 29.714844 C 6.710938 31.503906 9.019531 32.1875 10.925781 31.859375 C 11.066406 31.835938 11.183594 31.75 11.25 31.625 C 11.316406 31.5 11.320312 31.351562 11.261719 31.222656 L 6.472656 20.746094 C 6.5 20.753906 6.519531 20.769531 6.546875 20.777344 C 6.839844 20.898438 7.15625 20.984375 7.480469 21.054688 L 13.355469 33.644531 C 13.449219 33.847656 13.441406 34.074219 13.332031 34.269531 C 13.21875 34.472656 13.023438 34.601562 12.792969 34.628906 C 9.921875 34.972656 6.898438 33.320312 3.777344 29.714844 Z M 3.777344 29.714844 " fill-opacity="1" fill-rule="nonzero"/></g><g clip-path="url(#73d89e0f85)"><path fill="#000000" d="M 49.148438 26.886719 L 49.164062 11.824219 C 49.808594 12.265625 50.746094 12.515625 51.8125 12.515625 C 52.1875 12.515625 52.582031 12.484375 52.984375 12.421875 C 55.394531 12.027344 57.09375 10.578125 56.855469 9.117188 C 56.730469 8.375 56.140625 7.773438 55.183594 7.425781 C 54.320312 7.113281 53.234375 7.039062 52.132812 7.21875 C 51.027344 7.398438 50.023438 7.8125 49.304688 8.386719 C 48.535156 8.996094 48.167969 9.726562 48.253906 10.449219 L 48.242188 23.765625 L 37.191406 26.621094 L 37.191406 15.097656 C 37.839844 15.535156 38.773438 15.789062 39.839844 15.789062 C 40.21875 15.789062 40.609375 15.757812 41.011719 15.691406 C 43.421875 15.296875 45.121094 13.847656 44.882812 12.390625 C 44.761719 11.644531 44.167969 11.042969 43.214844 10.699219 C 42.347656 10.382812 41.261719 10.308594 40.160156 10.488281 C 39.054688 10.667969 38.050781 11.085938 37.332031 11.65625 C 36.5625 12.269531 36.195312 12.996094 36.285156 13.71875 L 36.285156 30.140625 C 36.285156 30.28125 36.351562 30.414062 36.460938 30.5 C 36.542969 30.558594 36.640625 30.59375 36.738281 30.59375 C 36.777344 30.59375 36.820312 30.585938 36.859375 30.578125 L 48.8125 27.324219 C 49.011719 27.269531 49.148438 27.089844 49.148438 26.886719 Z M 49.871094 9.09375 C 50.472656 8.617188 51.324219 8.269531 52.277344 8.113281 C 52.625 8.054688 52.96875 8.027344 53.304688 8.027344 C 53.878906 8.027344 54.414062 8.113281 54.875 8.277344 C 55.496094 8.503906 55.890625 8.863281 55.957031 9.265625 C 56.089844 10.070312 54.839844 11.199219 52.839844 11.523438 C 50.835938 11.851562 49.289062 11.179688 49.160156 10.371094 C 49.09375 9.972656 49.351562 9.507812 49.871094 9.09375 Z M 37.898438 12.367188 C 38.5 11.886719 39.355469 11.539062 40.304688 11.382812 C 40.65625 11.328125 41 11.296875 41.332031 11.296875 C 41.90625 11.296875 42.445312 11.382812 42.902344 11.550781 C 43.523438 11.777344 43.917969 12.136719 43.984375 12.535156 C 44.117188 13.34375 42.871094 14.46875 40.867188 14.796875 C 38.863281 15.121094 37.320312 14.453125 37.1875 13.644531 C 37.121094 13.246094 37.378906 12.777344 37.898438 12.367188 Z M 37.191406 29.542969 L 37.191406 27.554688 L 48.242188 24.703125 L 48.238281 26.539062 Z M 37.191406 29.542969 " fill-opacity="1" fill-rule="nonzero"/></g></svg>