<svg xmlns="http://www.w3.org/2000/svg" xmlns:xlink="http://www.w3.org/1999/xlink" width="80" zoomAndPan="magnify" viewBox="0 0 60 60" height="80" preserveAspectRatio="xMidYMid meet" version="1.0"><defs><clipPath id="7819317eb1"><path d="M 3.136719 3.542969 L 55.636719 3.542969 L 55.636719 55.292969 L 3.136719 55.292969 Z M 3.136719 3.542969 " clip-rule="nonzero"/></clipPath></defs><g clip-path="url(#7819317eb1)"><path fill="#929292" d="M 54.394531 16.285156 L 36.035156 16.285156 L 41.03125 14.402344 C 41.195312 14.339844 41.34375 14.242188 41.472656 14.117188 C 42.640625 12.949219 43.285156 11.394531 43.285156 9.738281 C 43.285156 8.082031 42.640625 6.527344 41.472656 5.359375 C 40.300781 4.1875 38.746094 3.542969 37.09375 3.542969 C 35.441406 3.542969 33.886719 4.1875 32.71875 5.359375 C 32.59375 5.484375 32.496094 5.632812 32.433594 5.800781 L 29.375 13.929688 L 26.316406 5.800781 C 26.253906 5.632812 26.15625 5.484375 26.03125 5.359375 C 24.863281 4.1875 23.308594 3.542969 21.65625 3.542969 C 20.003906 3.542969 18.449219 4.1875 17.28125 5.359375 C 16.113281 6.527344 15.46875 8.082031 15.46875 9.738281 C 15.46875 11.394531 16.113281 12.949219 17.28125 14.117188 C 17.40625 14.242188 17.554688 14.339844 17.722656 14.402344 L 22.714844 16.285156 L 4.382812 16.285156 C 3.695312 16.285156 3.140625 16.84375 3.140625 17.53125 L 3.140625 24.285156 C 3.140625 24.972656 3.695312 25.527344 4.382812 25.527344 L 6.414062 25.527344 L 6.414062 54.042969 C 6.414062 54.730469 6.972656 55.289062 7.65625 55.289062 L 51.09375 55.289062 C 51.78125 55.289062 52.335938 54.730469 52.335938 54.042969 L 52.335938 25.527344 L 54.394531 25.527344 C 55.078125 25.527344 55.636719 24.972656 55.636719 24.285156 L 55.636719 17.53125 C 55.636719 16.84375 55.078125 16.285156 54.394531 16.285156 Z M 34.660156 6.949219 C 35.335938 6.355469 36.191406 6.035156 37.09375 6.035156 C 38.082031 6.035156 39.011719 6.417969 39.710938 7.121094 C 40.410156 7.820312 40.796875 8.75 40.796875 9.738281 C 40.796875 10.644531 40.472656 11.5 39.882812 12.175781 L 31.507812 15.332031 Z M 17.957031 9.738281 C 17.957031 8.75 18.339844 7.820312 19.039062 7.117188 C 19.738281 6.417969 20.667969 6.035156 21.65625 6.035156 C 22.5625 6.035156 23.417969 6.355469 24.089844 6.949219 L 27.242188 15.332031 L 18.867188 12.175781 C 18.277344 11.5 17.957031 10.644531 17.957031 9.738281 Z M 5.628906 18.773438 L 23.1875 18.773438 L 23.1875 23.039062 L 5.628906 23.039062 Z M 8.902344 25.527344 L 23.1875 25.527344 L 23.1875 52.796875 L 8.902344 52.796875 Z M 25.675781 52.796875 L 25.675781 18.773438 L 33.078125 18.773438 L 33.078125 52.796875 Z M 49.847656 52.796875 L 35.566406 52.796875 L 35.566406 25.527344 L 49.847656 25.527344 Z M 53.148438 23.039062 L 35.566406 23.039062 L 35.566406 18.773438 L 53.148438 18.773438 Z M 53.148438 23.039062 " fill-opacity="1" fill-rule="nonzero"/></g></svg>