<svg xmlns="http://www.w3.org/2000/svg" xmlns:xlink="http://www.w3.org/1999/xlink" width="80" zoomAndPan="magnify" viewBox="0 0 60 60" height="80" preserveAspectRatio="xMidYMid meet" version="1.0"><defs><clipPath id="1e64db6c5c"><path d="M 2.84375 10.617188 L 57.59375 10.617188 L 57.59375 49.617188 L 2.84375 49.617188 Z M 2.84375 10.617188 " clip-rule="nonzero"/></clipPath></defs><g clip-path="url(#1e64db6c5c)"><path fill="#929292" d="M 8.730469 10.617188 C 5.496094 10.617188 2.871094 13.234375 2.871094 16.46875 C 2.945312 25.339844 2.871094 34.726562 2.871094 43.769531 C 2.871094 46.882812 5.296875 49.402344 8.363281 49.585938 L 51.953125 49.617188 C 55.078125 49.492188 57.570312 46.921875 57.570312 43.769531 L 57.570312 15.464844 C 57.09375 12.703125 54.695312 10.617188 51.800781 10.617188 C 37.453125 10.625 23.085938 10.617188 8.730469 10.617188 Z M 8.640625 13.695312 L 51.984375 13.695312 L 31.011719 34.628906 C 30.628906 35.007812 30.023438 35.007812 29.640625 34.628906 Z M 54.640625 15.1875 L 54.640625 43.554688 C 54.640625 45.246094 54.027344 46.199219 52.808594 46.539062 L 38.035156 31.765625 Z M 6.136719 15.308594 L 22.46875 31.609375 L 7.542969 46.511719 C 6.519531 46.164062 6.164062 45.34375 6.136719 44.226562 Z M 24.542969 33.652344 L 29.640625 38.769531 C 30.023438 39.152344 30.632812 39.152344 31.015625 38.769531 L 35.960938 33.835938 L 48.839844 46.691406 L 11.480469 46.691406 Z M 24.542969 33.652344 " fill-opacity="1" fill-rule="nonzero"/></g></svg>