<svg xmlns="http://www.w3.org/2000/svg" xmlns:xlink="http://www.w3.org/1999/xlink" width="120" zoomAndPan="magnify" viewBox="0 0 90 89.999999" height="120" preserveAspectRatio="xMidYMid meet" version="1.0"><defs><clipPath id="947d7b68f1"><path d="M 22.1875 0 L 67.933594 0 L 67.933594 90 L 22.1875 90 Z M 22.1875 0 " clip-rule="nonzero"/></clipPath></defs><path stroke-linecap="butt" transform="matrix(0.07956, 0, 0, 0.0797599, 22.186554, -1.264758)" fill="none" stroke-linejoin="miter" d="M 275.256353 -0.0108702 L 305.255347 -0.0108702 C 314.191218 2.976613 322.979794 6.943599 330.197229 13.163442 C 330.9828 14.142944 331.768371 15.122447 332.553942 16.150925 C 322.636107 12.918566 313.356549 7.923102 303.144125 5.719221 C 285.959758 2.144036 267.842526 6.355898 252.474792 14.338845 C 251.836515 14.044994 251.198239 13.751143 250.559962 13.408317 C 258.121084 7.874127 265.927696 2.193011 275.256353 -0.0108702 Z M 275.256353 -0.0108702 " stroke="#010101" stroke-width="0.1" stroke-opacity="1" stroke-miterlimit="10"/><path fill="#010101" d="M 44.085938 -1.265625 L 46.472656 -1.265625 C 47.183594 -1.027344 47.882812 -0.710938 48.457031 -0.214844 C 48.519531 -0.136719 48.582031 -0.0585938 48.644531 0.0234375 C 47.855469 -0.234375 47.117188 -0.632812 46.304688 -0.808594 C 44.9375 -1.09375 43.496094 -0.757812 42.273438 -0.121094 C 42.222656 -0.144531 42.171875 -0.167969 42.121094 -0.195312 C 42.722656 -0.636719 43.34375 -1.089844 44.085938 -1.265625 " fill-opacity="1" fill-rule="nonzero"/><g clip-path="url(#947d7b68f1)"><path stroke-linecap="butt" transform="matrix(0.07956, 0, 0, 0.0797599, 22.186554, -1.264758)" fill="none" stroke-linejoin="miter" d="M 268.578999 19.579185 C 277.072986 16.689652 286.156151 18.305831 294.944727 17.865055 C 307.90665 16.787602 319.641117 23.399245 330.639112 29.374212 C 333.094022 30.843466 335.59803 28.59061 337.807448 27.660082 C 336.579993 24.574649 335.205244 21.587165 334.026888 18.501732 C 337.807448 20.068936 338.83851 24.329773 340.606045 27.611107 C 333.634102 36.671508 322.734304 41.030295 313.111058 46.564485 C 306.335508 49.600944 299.658154 52.931253 292.489818 54.988209 C 299.707252 64.685286 306.973784 74.529289 311.9818 85.59767 C 316.253342 95.245772 320.819474 104.795923 323.323482 115.129677 C 315.909655 106.167227 311.14713 95.245772 302.75134 87.164874 C 300.247332 89.270805 296.614066 91.22981 296.466771 94.902946 C 296.663164 101.367664 298.627092 107.636481 300.100037 113.905299 C 302.604045 125.267531 305.795428 136.433862 307.612061 147.894044 C 310.06697 163.076337 313.552942 178.258629 313.503844 193.734773 C 315.271378 204.460328 313.307451 215.381783 315.124084 226.107338 C 315.418673 241.044755 315.124084 255.982172 315.271378 270.870614 C 320.37759 266.658752 324.796428 261.663288 328.184203 255.982172 C 338.593019 239.08575 344.484802 219.936471 349.738309 200.934118 C 357.790412 169.100279 362.552937 136.482837 364.320471 103.71847 C 363.780391 91.866487 365.744319 79.622703 362.209249 68.064571 C 361.129089 62.43243 352.880593 61.452927 353.469771 55.086159 C 352.389611 49.84582 356.022877 45.095231 355.188208 40.001817 C 351.702236 31.137317 341.686205 27.170331 337.75835 18.550707 C 350.327487 21.146389 359.950732 30.157814 369.966763 37.504085 C 378.902634 44.80138 389.213254 50.629422 396.185198 59.983673 C 408.361549 73.892612 426.626076 79.524753 443.908639 84.030465 C 469.488797 90.397233 495.510838 95.833473 521.925665 96.764001 C 533.660133 100.730987 541.515844 112.925796 541.957727 125.120605 C 543.921655 147.943019 547.604019 170.569533 550.255322 193.293996 C 551.188187 198.632286 550.8445 204.068527 550.795402 209.455792 C 554.772355 211.120946 559.043898 212.688151 562.087986 215.969485 C 559.191192 220.769048 554.575962 224.736035 553.495802 230.41715 C 552.808427 234.090286 555.852515 236.734943 558.258327 238.987799 C 560.369549 240.603979 560.762334 243.297612 561.498807 245.648418 C 558.9948 246.627921 556.53989 247.656399 554.08498 248.684877 C 556.294399 256.129098 560.664138 262.838691 561.842495 270.625738 C 565.868546 292.66455 565.033877 315.291063 569.109027 337.329875 C 571.318446 354.079372 572.496802 370.975794 573.527864 387.823242 C 574.657123 393.112556 573.478766 398.646747 574.951712 403.887087 L 574.951712 435.3781 C 573.036882 445.809804 572.153115 456.388434 570.434678 466.820138 C 561.204218 474.215384 553.103017 483.079883 542.890593 489.1528 C 536.016846 493.560563 529.339492 498.164226 522.514844 502.669938 C 505.281378 514.374996 486.77136 524.072073 469.439699 535.630206 C 471.354528 541.017471 470.028877 546.796537 471.059939 552.379703 C 474.8405 607.525707 478.424668 662.720687 482.303425 717.866691 C 473.367554 723.107031 462.762345 723.645757 452.697216 724.478335 C 452.648117 742.697086 449.211244 760.719936 448.818459 778.987663 C 448.032887 794.02303 445.086996 808.862496 444.15413 823.946839 C 443.024872 844.859222 438.311446 865.330829 435.807438 886.145263 C 430.897619 921.211461 420.488802 955.200206 413.76235 989.923579 C 412.633092 998.788078 414.106037 1007.750529 412.878583 1016.566053 C 412.043913 1028.124186 413.271368 1039.731293 412.240306 1051.24045 C 411.111048 1057.411318 412.043913 1063.72911 411.258342 1069.948953 C 409.392611 1083.613016 407.919665 1097.47298 409.638102 1111.234993 C 410.079986 1150.023302 417.444714 1188.468785 418.082991 1227.257094 C 419.703231 1236.464419 418.082991 1245.867646 419.359544 1255.123947 C 420.145115 1265.457701 418.819464 1275.889405 420.488802 1286.174184 C 419.703231 1303.609333 424.171167 1320.65268 427.313451 1337.647053 C 429.670164 1351.164191 434.776376 1364.583378 443.810443 1375.064058 C 445.823469 1378.149491 449.849521 1376.876138 452.893608 1377.072038 C 459.276373 1378.639243 460.45473 1386.083464 465.855531 1388.972997 C 470.22527 1391.715604 474.693205 1394.311287 478.817453 1397.494671 C 482.205229 1401.363706 484.316451 1406.16327 484.169156 1411.40361 C 485.887593 1412.823889 487.60603 1414.293143 489.324466 1415.811372 C 489.275368 1418.260129 489.324466 1420.708886 489.324466 1423.157642 C 483.334487 1425.557424 477.393606 1428.006181 471.403626 1430.405963 C 459.129079 1435.303477 445.577978 1436.968631 432.468761 1435.107576 C 425.69321 1434.128073 418.672169 1434.519874 411.994815 1432.85472 C 406.103032 1429.377485 398.934696 1428.251057 393.582993 1423.843294 C 387.936701 1417.966278 384.499828 1409.68948 377.036903 1405.722494 C 374.14011 1403.910414 370.899629 1405.281717 367.904639 1405.869419 C 366.52989 1407.338673 365.155141 1408.856902 363.780391 1410.375132 C 356.317466 1410.424107 349.14913 1408.122275 342.226285 1405.624543 C 334.959753 1402.588085 326.956748 1399.992403 321.605045 1393.919486 C 320.868572 1387.209892 320.37759 1380.451323 320.426689 1373.692754 C 319.346528 1366.836235 319.788412 1359.881765 319.199234 1352.976271 C 316.989815 1352.58447 314.780397 1352.241644 312.570978 1351.898818 C 312.030898 1349.303136 311.638112 1346.609503 311.245327 1343.964846 C 310.06697 1334.512644 304.37158 1326.088921 305.009857 1316.391843 C 305.255347 1306.645791 306.777391 1296.997689 306.924686 1287.300612 C 303.880598 1263.694596 300.050939 1240.08858 299.118074 1216.286663 C 299.609055 1201.985923 297.645128 1187.832108 296.073986 1173.727269 C 294.650138 1162.169136 295.239316 1150.464078 293.078996 1139.003896 C 287.089017 1100.460463 280.117074 1062.063956 273.537916 1023.618473 C 266.418678 981.010104 258.562968 938.499684 253.06397 895.646439 C 252.327497 914.991619 252.916676 934.385773 252.720283 953.730952 C 252.769381 1002.510189 252.671185 1051.24045 252.769381 1099.970712 C 254.095032 1108.688286 252.867577 1117.552786 254.291425 1126.270361 C 254.782407 1131.706601 254.045934 1137.191816 254.9788 1142.628056 C 257.13912 1165.205595 252.867577 1187.636208 250.314472 1209.96887 C 248.546937 1222.408555 249.28341 1234.995165 249.136115 1247.483825 C 249.430704 1273.293723 247.663169 1299.495421 239.512869 1324.17889 C 237.156156 1330.790534 233.571988 1337.745003 235.388621 1344.993323 C 236.714273 1361.889746 233.326497 1378.786168 233.031908 1395.682591 C 227.631107 1401.755508 219.6772 1404.400165 212.066981 1406.457121 C 204.554957 1408.269201 196.748345 1410.326157 188.990831 1409.003828 C 184.964779 1406.701996 180.938727 1404.44914 176.274399 1403.959389 C 173.328508 1404.694016 170.235322 1405.134792 167.584019 1406.750972 C 159.531916 1411.69746 154.769391 1420.708886 146.226306 1425.018698 C 140.825505 1427.859256 134.590035 1428.202082 128.992841 1430.601863 C 121.088032 1434.323974 112.103063 1434.177048 103.658174 1435.989128 C 97.864588 1437.556333 91.972805 1435.891178 86.13012 1435.842203 C 69.633128 1434.519874 54.216296 1427.957206 38.259384 1424.039195 C 38.308482 1421.002736 38.652169 1417.966278 39.634133 1415.076745 C 41.548963 1414.195192 43.414694 1413.264665 45.329523 1412.432087 C 45.771407 1407.142773 47.735335 1401.706532 52.301466 1398.621099 C 58.831526 1394.458212 66.196255 1391.76458 72.922707 1387.944519 C 76.605071 1385.691663 79.010882 1381.920577 82.447756 1379.324895 C 86.473807 1377.121013 91.28543 1378.247442 95.704267 1378.100516 C 103.363585 1373.398903 107.880619 1365.415956 112.643143 1358.069685 C 117.651159 1348.421583 122.315487 1337.549103 120.007872 1326.431746 C 119.369596 1315.167465 117.89665 1304.001134 116.81649 1292.785827 C 118.927712 1291.169648 123.690236 1291.022722 123.248353 1287.545488 C 122.069996 1265.016924 117.602061 1242.537336 120.449756 1219.959798 C 121.13713 1195.66813 126.341539 1171.817238 127.12711 1147.52557 C 128.501859 1139.199797 127.028913 1130.727098 128.256368 1122.401325 C 129.336528 1106.925181 127.470797 1091.302113 129.238332 1075.874944 C 127.421699 1046.587812 122.020898 1017.643506 116.325508 988.846126 C 114.116089 969.549921 108.813484 950.792444 106.898655 931.447265 C 104.738335 912.249011 104.247353 892.805881 101.006872 873.705578 C 96.98082 848.875183 95.115089 823.750938 92.120099 798.822593 C 91.039939 779.967165 94.378616 761.258663 96.293446 742.599136 C 97.422704 735.448766 96.833526 728.102495 98.453766 721.0011 C 98.699257 720.315448 99.239337 718.944144 99.533926 718.258492 C 92.611081 715.124084 85.000862 713.654829 78.028919 710.618371 C 75.181224 709.785794 72.28443 707.728838 69.289441 708.757316 C 70.320503 705.916758 70.66419 702.880299 71.056975 699.892816 C 77.881624 644.991687 84.951764 590.090558 91.776412 535.189429 C 90.892645 531.614244 91.776412 527.402383 89.616092 524.218999 C 84.755371 519.46841 79.059981 515.64835 73.462787 511.828289 C 64.134131 505.412546 56.032929 497.478574 47.342549 490.279229 C 41.156177 485.577615 36.884634 478.916997 31.729324 473.186906 C 24.168203 463.489829 16.410689 453.890702 9.929727 443.410022 C 6.05097 436.896329 1.779428 430.333661 0.650169 422.644564 C -0.822776 415.592144 0.846562 408.441774 0.89566 401.340379 C 1.779428 378.713866 7.082032 356.577104 8.309487 333.999566 C 9.929727 316.760317 12.679226 299.667995 15.772412 282.624647 C 18.472813 268.813658 21.762392 255.10062 23.579025 241.142706 C 23.97181 236.294167 28.685236 233.159758 28.783433 228.262244 C 25.837541 226.988891 21.075017 224.442184 23.186239 220.573148 C 25.690247 217.73259 29.6672 216.606162 32.760386 214.402281 C 33.20227 212.884051 33.644154 211.414797 34.086037 209.945543 C 32.318503 207.741662 30.452771 205.488806 29.618102 202.697223 C 28.537942 196.47738 31.729324 190.747289 32.858583 184.772323 C 36.688242 165.035342 41.008882 145.347337 46.556978 126.051133 C 48.913691 118.459987 49.551968 110.428064 52.350565 102.934868 C 54.1181 97.351703 59.518901 93.678567 64.9688 92.209313 C 81.809479 87.899501 99.190239 86.283322 116.178213 82.806087 C 130.563983 79.622703 145.489833 77.761648 158.991836 71.59078 C 166.896645 68.162521 175.390632 65.321963 181.724298 59.298021 C 185.357565 55.331035 188.254358 50.629422 192.771391 47.543988 C 203.278404 40.001817 215.06197 34.565577 225.863572 27.513157 C 224.096037 33.243248 221.690226 38.777439 219.824495 44.50753 C 217.762371 50.874297 218.793433 57.926717 222.13211 63.656808 C 221.002851 71.49283 217.222291 78.790126 214.669185 86.234346 C 210.397642 97.449653 209.219285 109.497537 208.679205 121.398495 C 207.058965 131.389423 208.8265 141.429326 209.661169 151.420254 C 214.080006 178.65043 222.67219 205.488806 236.566978 229.437648 C 245.601045 246.040219 254.782407 262.740741 266.762366 277.384307 C 267.204249 277.188407 268.038919 276.796605 268.480802 276.600705 L 266.90966 274.200923 C 267.155151 257.794252 266.713267 241.338606 267.106053 224.931935 C 268.775391 215.773584 267.007857 206.419333 268.578999 197.309958 C 269.266373 182.862292 269.610061 168.463602 270.788417 154.015936 C 273.832505 133.593304 282.866572 114.493001 284.683205 93.776518 C 282.326492 90.838009 279.67519 88.144377 277.023888 85.450744 C 273.930701 87.017949 270.837515 88.830029 269.020882 91.915462 C 263.816474 98.18428 260.281404 105.824401 254.14413 111.260642 C 256.697236 100.828937 262.785412 91.768537 266.713267 81.875559 C 271.721283 72.570283 274.716273 61.501902 283.897634 55.233085 C 277.956753 51.608924 271.377596 49.160168 265.191223 46.025759 C 254.340523 40.883369 242.606056 36.328682 233.915676 27.807008 C 232.590024 22.419743 238.432709 21.685116 242.262368 22.174867 C 241.084012 23.203345 239.954753 24.280798 238.874593 25.358251 C 240.151146 27.366232 241.722288 29.227287 243.146136 31.137317 C 251.345534 26.68058 259.544931 22.125892 268.578999 19.579185 Z M 268.578999 19.579185 " stroke="#010101" stroke-width="0.1" stroke-opacity="1" stroke-miterlimit="10"/><path fill="#010101" d="M 43.554688 0.296875 C 44.230469 0.0664062 44.953125 0.195312 45.652344 0.160156 C 46.683594 0.0742188 47.617188 0.601562 48.492188 1.078125 C 48.6875 1.195312 48.886719 1.015625 49.0625 0.941406 C 48.964844 0.695312 48.855469 0.457031 48.761719 0.210938 C 49.0625 0.335938 49.144531 0.675781 49.285156 0.9375 C 48.730469 1.660156 47.863281 2.007812 47.097656 2.449219 C 46.558594 2.691406 46.027344 2.957031 45.457031 3.121094 C 46.03125 3.894531 46.609375 4.679688 47.007812 5.5625 C 47.347656 6.332031 47.710938 7.09375 47.910156 7.917969 C 47.320312 7.203125 46.941406 6.332031 46.273438 5.6875 C 46.074219 5.855469 45.785156 6.011719 45.773438 6.304688 C 45.789062 6.820312 45.945312 7.320312 46.0625 7.820312 C 46.261719 8.726562 46.515625 9.617188 46.660156 10.53125 C 46.855469 11.742188 47.132812 12.953125 47.128906 14.1875 C 47.269531 15.042969 47.113281 15.914062 47.257812 16.769531 C 47.28125 17.960938 47.257812 19.152344 47.269531 20.339844 C 47.675781 20.003906 48.027344 19.605469 48.296875 19.152344 C 49.125 17.804688 49.59375 16.277344 50.011719 14.761719 C 50.652344 12.222656 51.03125 9.621094 51.171875 7.007812 C 51.128906 6.0625 51.285156 5.085938 51.003906 4.164062 C 50.917969 3.714844 50.261719 3.636719 50.308594 3.128906 C 50.222656 2.710938 50.511719 2.332031 50.445312 1.925781 C 50.167969 1.21875 49.371094 0.902344 49.058594 0.214844 C 50.058594 0.421875 50.824219 1.140625 51.621094 1.726562 C 52.332031 2.308594 53.152344 2.773438 53.707031 3.519531 C 54.675781 4.628906 56.128906 5.078125 57.503906 5.4375 C 59.539062 5.945312 61.609375 6.378906 63.710938 6.453125 C 64.644531 6.769531 65.269531 7.742188 65.304688 8.714844 C 65.460938 10.535156 65.753906 12.339844 65.964844 14.152344 C 66.039062 14.578125 66.011719 15.011719 66.007812 15.441406 C 66.324219 15.574219 66.664062 15.699219 66.90625 15.960938 C 66.675781 16.34375 66.308594 16.660156 66.222656 17.113281 C 66.167969 17.40625 66.410156 17.617188 66.601562 17.796875 C 66.769531 17.925781 66.800781 18.140625 66.859375 18.328125 C 66.660156 18.40625 66.464844 18.488281 66.269531 18.570312 C 66.445312 19.164062 66.792969 19.699219 66.886719 20.320312 C 67.207031 22.078125 67.140625 23.882812 67.464844 25.640625 C 67.640625 26.976562 67.734375 28.324219 67.816406 29.667969 C 67.90625 30.089844 67.8125 30.53125 67.929688 30.949219 L 67.929688 33.460938 C 67.777344 34.292969 67.707031 35.136719 67.570312 35.96875 C 66.835938 36.558594 66.191406 37.265625 65.378906 37.75 C 64.832031 38.101562 64.300781 38.46875 63.757812 38.828125 C 62.386719 39.761719 60.914062 40.535156 59.535156 41.457031 C 59.6875 41.886719 59.582031 42.347656 59.664062 42.792969 C 59.964844 47.191406 60.25 51.59375 60.558594 55.992188 C 59.847656 56.410156 59.003906 56.453125 58.203125 56.519531 C 58.199219 57.972656 57.925781 59.410156 57.894531 60.867188 C 57.832031 62.066406 57.597656 63.25 57.523438 64.453125 C 57.433594 66.121094 57.058594 67.753906 56.859375 69.414062 C 56.46875 72.210938 55.640625 74.921875 55.105469 77.691406 C 55.015625 78.398438 55.132812 79.113281 55.035156 79.816406 C 54.96875 80.738281 55.066406 81.664062 54.984375 82.582031 C 54.894531 83.074219 54.96875 83.578125 54.90625 84.074219 C 54.757812 85.164062 54.640625 86.269531 54.777344 87.367188 C 54.8125 90.460938 55.398438 93.527344 55.449219 96.621094 C 55.578125 97.355469 55.449219 98.105469 55.550781 98.84375 C 55.613281 99.667969 55.507812 100.5 55.640625 101.320312 C 55.578125 102.710938 55.933594 104.070312 56.183594 105.425781 C 56.371094 106.503906 56.777344 107.574219 57.496094 108.410156 C 57.65625 108.65625 57.976562 108.554688 58.21875 108.570312 C 58.726562 108.695312 58.820312 109.289062 59.25 109.519531 C 59.597656 109.738281 59.953125 109.945312 60.28125 110.199219 C 60.550781 110.507812 60.71875 110.890625 60.707031 111.308594 C 60.84375 111.421875 60.980469 111.539062 61.117188 111.660156 C 61.113281 111.855469 61.117188 112.050781 61.117188 112.246094 C 60.640625 112.4375 60.167969 112.632812 59.691406 112.824219 C 58.714844 113.214844 57.636719 113.347656 56.59375 113.199219 C 56.054688 113.121094 55.496094 113.152344 54.964844 113.019531 C 54.496094 112.742188 53.925781 112.652344 53.5 112.300781 C 53.050781 111.832031 52.777344 111.171875 52.183594 110.855469 C 51.953125 110.710938 51.695312 110.820312 51.457031 110.867188 C 51.347656 110.984375 51.238281 111.105469 51.128906 111.226562 C 50.535156 111.230469 49.964844 111.046875 49.414062 110.847656 C 48.835938 110.605469 48.199219 110.398438 47.773438 109.914062 C 47.714844 109.378906 47.675781 108.839844 47.679688 108.300781 C 47.59375 107.753906 47.628906 107.199219 47.582031 106.648438 C 47.40625 106.617188 47.230469 106.589844 47.054688 106.5625 C 47.011719 106.355469 46.980469 106.140625 46.949219 105.929688 C 46.855469 105.175781 46.402344 104.503906 46.453125 103.730469 C 46.472656 102.953125 46.59375 102.183594 46.605469 101.410156 C 46.363281 99.527344 46.058594 97.644531 45.984375 95.746094 C 46.023438 94.605469 45.867188 93.476562 45.742188 92.351562 C 45.628906 91.429688 45.675781 90.496094 45.503906 89.582031 C 45.027344 86.507812 44.472656 83.445312 43.949219 80.378906 C 43.382812 76.980469 42.757812 73.589844 42.320312 70.171875 C 42.261719 71.714844 42.308594 73.261719 42.292969 74.804688 C 42.296875 78.695312 42.289062 82.582031 42.296875 86.46875 C 42.402344 87.164062 42.304688 87.871094 42.417969 88.566406 C 42.457031 89 42.398438 89.4375 42.472656 89.871094 C 42.644531 91.671875 42.304688 93.460938 42.101562 95.242188 C 41.960938 96.234375 42.019531 97.238281 42.007812 98.234375 C 42.03125 100.292969 41.890625 102.382812 41.242188 104.351562 C 41.054688 104.878906 40.769531 105.433594 40.914062 106.011719 C 41.019531 107.359375 40.75 108.707031 40.726562 110.054688 C 40.296875 110.539062 39.664062 110.75 39.058594 110.914062 C 38.460938 111.058594 37.839844 111.222656 37.222656 111.117188 C 36.902344 110.933594 36.582031 110.753906 36.210938 110.714844 C 35.976562 110.773438 35.730469 110.808594 35.519531 110.9375 C 34.878906 111.332031 34.5 112.050781 33.820312 112.394531 C 33.390625 112.621094 32.894531 112.648438 32.449219 112.839844 C 31.820312 113.136719 31.105469 113.125 30.433594 113.269531 C 29.972656 113.394531 29.503906 113.261719 29.039062 113.257812 C 27.726562 113.152344 26.5 112.628906 25.230469 112.316406 C 25.234375 112.074219 25.261719 111.832031 25.339844 111.601562 C 25.492188 111.53125 25.640625 111.457031 25.792969 111.390625 C 25.828125 110.96875 25.984375 110.535156 26.347656 110.289062 C 26.867188 109.957031 27.453125 109.742188 27.988281 109.4375 C 28.28125 109.257812 28.472656 108.957031 28.746094 108.75 C 29.066406 108.574219 29.449219 108.664062 29.800781 108.652344 C 30.410156 108.277344 30.769531 107.640625 31.148438 107.054688 C 31.546875 106.285156 31.917969 105.417969 31.734375 104.53125 C 31.683594 103.632812 31.566406 102.742188 31.480469 101.847656 C 31.648438 101.71875 32.027344 101.707031 31.992188 101.429688 C 31.898438 99.632812 31.542969 97.839844 31.769531 96.039062 C 31.824219 94.101562 32.238281 92.199219 32.300781 90.261719 C 32.410156 89.597656 32.292969 88.921875 32.390625 88.257812 C 32.476562 87.023438 32.328125 85.777344 32.46875 84.546875 C 32.324219 82.210938 31.894531 79.902344 31.441406 77.605469 C 31.265625 76.066406 30.84375 74.570312 30.691406 73.027344 C 30.519531 71.496094 30.480469 69.945312 30.222656 68.421875 C 29.902344 66.441406 29.753906 64.4375 29.515625 62.449219 C 29.429688 60.945312 29.695312 59.453125 29.847656 57.964844 C 29.9375 57.394531 29.890625 56.808594 30.019531 56.242188 C 30.039062 56.1875 30.082031 56.078125 30.105469 56.023438 C 29.554688 55.773438 28.949219 55.65625 28.394531 55.414062 C 28.167969 55.347656 27.9375 55.183594 27.699219 55.265625 C 27.78125 55.039062 27.808594 54.796875 27.839844 54.558594 C 28.382812 50.179688 28.945312 45.800781 29.488281 41.421875 C 29.417969 41.136719 29.488281 40.800781 29.316406 40.546875 C 28.929688 40.167969 28.476562 39.863281 28.03125 39.558594 C 27.289062 39.046875 26.644531 38.414062 25.953125 37.839844 C 25.460938 37.464844 25.121094 36.933594 24.710938 36.476562 C 24.109375 35.703125 23.492188 34.9375 22.976562 34.101562 C 22.667969 33.582031 22.328125 33.058594 22.238281 32.445312 C 22.121094 31.882812 22.253906 31.3125 22.257812 30.746094 C 22.328125 28.941406 22.75 27.175781 22.847656 25.375 C 22.976562 24 23.195312 22.636719 23.441406 21.277344 C 23.65625 20.175781 23.917969 19.082031 24.0625 17.96875 C 24.09375 17.582031 24.46875 17.332031 24.476562 16.941406 C 24.242188 16.839844 23.863281 16.636719 24.03125 16.328125 C 24.230469 16.101562 24.546875 16.011719 24.792969 15.835938 C 24.828125 15.714844 24.863281 15.597656 24.898438 15.480469 C 24.757812 15.304688 24.609375 15.125 24.542969 14.902344 C 24.457031 14.40625 24.710938 13.949219 24.800781 13.472656 C 25.105469 11.898438 25.449219 10.328125 25.890625 8.789062 C 26.078125 8.183594 26.128906 7.542969 26.351562 6.945312 C 26.492188 6.5 26.921875 6.207031 27.355469 6.089844 C 28.695312 5.746094 30.078125 5.617188 31.429688 5.339844 C 32.574219 5.085938 33.761719 4.9375 34.835938 4.445312 C 35.464844 4.171875 36.140625 3.945312 36.644531 3.464844 C 36.933594 3.148438 37.164062 2.773438 37.523438 2.527344 C 38.359375 1.925781 39.296875 1.492188 40.15625 0.929688 C 40.015625 1.386719 39.824219 1.828125 39.675781 2.285156 C 39.511719 2.792969 39.59375 3.355469 39.859375 3.8125 C 39.769531 4.4375 39.46875 5.019531 39.265625 5.613281 C 38.925781 6.507812 38.832031 7.46875 38.789062 8.417969 C 38.660156 9.214844 38.800781 10.015625 38.867188 10.8125 C 39.21875 12.984375 39.902344 15.125 41.007812 17.035156 C 41.726562 18.359375 42.457031 19.691406 43.410156 20.859375 C 43.445312 20.84375 43.511719 20.8125 43.546875 20.796875 L 43.421875 20.605469 C 43.441406 19.296875 43.40625 17.984375 43.4375 16.675781 C 43.570312 15.945312 43.429688 15.199219 43.554688 14.472656 C 43.609375 13.320312 43.636719 12.171875 43.730469 11.019531 C 43.972656 9.390625 44.691406 7.867188 44.835938 6.214844 C 44.648438 5.980469 44.4375 5.765625 44.226562 5.550781 C 43.980469 5.675781 43.734375 5.820312 43.589844 6.066406 C 43.175781 6.566406 42.894531 7.175781 42.40625 7.609375 C 42.609375 6.777344 43.09375 6.054688 43.40625 5.265625 C 43.804688 4.523438 44.042969 3.640625 44.773438 3.140625 C 44.300781 2.851562 43.777344 2.65625 43.285156 2.40625 C 42.421875 1.996094 41.488281 1.632812 40.796875 0.953125 C 40.691406 0.523438 41.15625 0.464844 41.460938 0.503906 C 41.367188 0.585938 41.277344 0.671875 41.191406 0.757812 C 41.292969 0.917969 41.417969 1.066406 41.53125 1.21875 C 42.183594 0.863281 42.835938 0.5 43.554688 0.296875 " fill-opacity="1" fill-rule="nonzero"/></g></svg>