<svg xmlns="http://www.w3.org/2000/svg" xmlns:xlink="http://www.w3.org/1999/xlink" width="40" zoomAndPan="magnify" viewBox="0 0 30 30.000001" height="40" preserveAspectRatio="xMidYMid meet" version="1.0"><defs><clipPath id="d9a2976a98"><path d="M 27 29 L 29 29 L 29 29.03125 L 27 29.03125 Z M 27 29 " clip-rule="nonzero"/></clipPath><clipPath id="a87a6f2bae"><path d="M 11 1.042969 L 15 1.042969 L 15 6 L 11 6 Z M 11 1.042969 " clip-rule="nonzero"/></clipPath><clipPath id="87da4cc0c5"><path d="M 9 11 L 23.847656 11 L 23.847656 27.894531 L 9 27.894531 Z M 9 11 " clip-rule="nonzero"/></clipPath><clipPath id="fe9b2ec06a"><path d="M 5.703125 4 L 14 4 L 14 27.894531 L 5.703125 27.894531 Z M 5.703125 4 " clip-rule="nonzero"/></clipPath><clipPath id="dc2ee6982c"><path d="M 19 2 L 23.847656 2 L 23.847656 10 L 19 10 Z M 19 2 " clip-rule="nonzero"/></clipPath></defs><g clip-path="url(#d9a2976a98)"><path fill="#000000" d="M 28.648438 29.320312 C 28.621094 29.179688 28.445312 29.203125 28.359375 29.328125 C 28.105469 29.695312 27.980469 28.976562 27.738281 29.203125 C 27.613281 29.324219 27.859375 29.914062 28.027344 30.078125 C 28.058594 30.109375 28.105469 30.113281 28.140625 30.085938 C 28.410156 29.882812 28.667969 29.433594 28.648438 29.320312 Z M 28.851562 29.355469 C 28.898438 29.652344 28.496094 30.3125 28.175781 30.371094 C 27.976562 30.40625 27.726562 29.820312 27.648438 29.605469 C 27.582031 29.421875 27.542969 29.125 27.761719 29.074219 C 27.960938 29.027344 28.09375 29.199219 28.214844 29.332031 C 28.46875 29.117188 28.777344 28.855469 28.851562 29.355469 " fill-opacity="1" fill-rule="nonzero"/></g><g clip-path="url(#a87a6f2bae)"><path fill="#100f0d" d="M 12.621094 1.523438 C 12.214844 1.523438 11.855469 1.777344 11.65625 2.207031 C 11.558594 2.421875 11.496094 2.859375 11.78125 3.746094 C 11.878906 4.042969 12.113281 4.589844 12.617188 4.851562 C 13.023438 5.066406 13.535156 5.007812 13.808594 4.710938 C 13.988281 4.511719 14.085938 4.210938 14.109375 3.78125 C 14.144531 3.191406 14.039062 2.667969 13.800781 2.269531 C 13.535156 1.820312 13.074219 1.527344 12.628906 1.523438 C 12.625 1.523438 12.621094 1.523438 12.621094 1.523438 Z M 13.136719 5.441406 C 12.890625 5.441406 12.640625 5.382812 12.410156 5.261719 C 11.929688 5.007812 11.554688 4.519531 11.351562 3.886719 C 11.085938 3.050781 11.050781 2.433594 11.25 2.007812 C 11.527344 1.417969 12.039062 1.0625 12.621094 1.0625 C 12.625 1.0625 12.628906 1.0625 12.632812 1.0625 C 13.242188 1.070312 13.835938 1.441406 14.1875 2.03125 C 14.46875 2.507812 14.597656 3.125 14.558594 3.808594 C 14.53125 4.347656 14.390625 4.746094 14.136719 5.023438 C 13.886719 5.296875 13.519531 5.441406 13.136719 5.441406 " fill-opacity="1" fill-rule="nonzero"/></g><path fill="#100f0d" d="M 18.953125 12.304688 C 18.84375 12.304688 18.730469 12.292969 18.617188 12.265625 L 18.648438 12.039062 L 18.601562 12.261719 C 17.191406 11.945312 15.816406 11.417969 14.621094 10.746094 C 14.511719 10.683594 14.472656 10.542969 14.53125 10.429688 C 14.59375 10.320312 14.730469 10.28125 14.839844 10.339844 C 15.996094 10.996094 17.332031 11.503906 18.699219 11.8125 L 18.664062 12.042969 L 18.710938 11.816406 C 19.03125 11.886719 19.359375 11.816406 19.632812 11.613281 C 19.917969 11.40625 20.105469 11.078125 20.148438 10.71875 C 20.183594 10.433594 20.117188 10.3125 19.957031 10.027344 L 19.925781 9.964844 C 19.863281 9.851562 19.902344 9.714844 20.011719 9.652344 C 20.121094 9.589844 20.257812 9.628906 20.316406 9.742188 L 20.351562 9.800781 C 20.523438 10.113281 20.644531 10.339844 20.597656 10.773438 C 20.539062 11.261719 20.285156 11.703125 19.894531 11.988281 C 19.613281 12.195312 19.289062 12.304688 18.953125 12.304688 " fill-opacity="1" fill-rule="nonzero"/><path fill="#100f0d" d="M 17.808594 7.066406 C 17.761719 7.066406 17.710938 7.066406 17.664062 7.0625 C 16.980469 7.015625 16.332031 6.742188 15.757812 6.5 L 14.371094 5.914062 C 14.257812 5.867188 14.199219 5.730469 14.25 5.613281 C 14.296875 5.496094 14.425781 5.441406 14.542969 5.488281 L 15.929688 6.074219 C 16.5 6.316406 17.082031 6.5625 17.691406 6.601562 C 18.292969 6.640625 19.0625 6.390625 19.382812 5.835938 C 19.445312 5.722656 19.582031 5.6875 19.6875 5.75 C 19.796875 5.816406 19.832031 5.957031 19.769531 6.066406 C 19.371094 6.765625 18.503906 7.066406 17.808594 7.066406 " fill-opacity="1" fill-rule="nonzero"/><g clip-path="url(#87da4cc0c5)"><path fill="#100f0d" d="M 16.214844 27.785156 C 13.820312 27.785156 10.753906 27.410156 9.253906 26.351562 C 9.152344 26.277344 9.125 26.132812 9.195312 26.03125 C 9.269531 25.925781 9.410156 25.898438 9.511719 25.972656 C 10.707031 26.816406 13.308594 27.335938 16.292969 27.328125 C 19.089844 27.316406 21.527344 26.828125 22.589844 26.074219 C 22.300781 25.324219 21.914062 24.265625 21.503906 23.144531 C 20.621094 20.734375 19.523438 17.734375 18.875 16.382812 C 18.449219 15.492188 18.136719 14.730469 18.003906 13.90625 C 17.886719 13.1875 17.933594 12.933594 18.039062 12.382812 C 18.066406 12.25 18.09375 12.105469 18.125 11.925781 C 18.144531 11.800781 18.261719 11.71875 18.382812 11.742188 C 18.507812 11.761719 18.589844 11.878906 18.566406 12.007812 C 18.535156 12.1875 18.507812 12.335938 18.480469 12.46875 C 18.378906 12.996094 18.34375 13.191406 18.445312 13.832031 C 18.574219 14.601562 18.871094 15.328125 19.277344 16.179688 C 19.9375 17.550781 20.992188 20.4375 21.925781 22.984375 C 22.367188 24.183594 22.78125 25.320312 23.074219 26.066406 C 23.109375 26.160156 23.082031 26.265625 23.003906 26.332031 C 21.71875 27.390625 18.695312 27.78125 16.292969 27.785156 C 16.265625 27.785156 16.242188 27.785156 16.214844 27.785156 " fill-opacity="1" fill-rule="nonzero"/></g><path fill="#100f0d" d="M 19.199219 10.445312 C 19.164062 10.445312 19.125 10.445312 19.09375 10.445312 C 19.089844 10.445312 19.085938 10.445312 19.082031 10.445312 C 18.953125 10.4375 15.886719 10.1875 12.707031 7.664062 C 12.609375 7.585938 12.589844 7.441406 12.667969 7.339844 C 12.742188 7.242188 12.886719 7.222656 12.984375 7.300781 C 15.984375 9.6875 18.957031 9.972656 19.105469 9.988281 C 19.5625 9.992188 19.867188 9.9375 19.96875 9.652344 C 20.007812 9.539062 20 9.40625 19.949219 9.277344 C 19.929688 9.226562 19.910156 9.171875 19.886719 9.113281 C 19.847656 9.007812 19.804688 8.894531 19.753906 8.777344 C 19.558594 8.304688 19.554688 7.773438 19.742188 7.320312 C 19.867188 7.007812 20.058594 6.722656 20.300781 6.472656 C 20.390625 6.382812 20.53125 6.382812 20.621094 6.472656 C 20.707031 6.558594 20.707031 6.707031 20.621094 6.796875 C 20.417969 7.003906 20.261719 7.242188 20.15625 7.5 C 20.015625 7.839844 20.019531 8.238281 20.167969 8.59375 C 20.21875 8.71875 20.265625 8.835938 20.308594 8.949219 C 20.328125 9.003906 20.347656 9.054688 20.367188 9.105469 C 20.460938 9.339844 20.46875 9.589844 20.390625 9.808594 C 20.183594 10.398438 19.574219 10.445312 19.199219 10.445312 " fill-opacity="1" fill-rule="nonzero"/><g clip-path="url(#fe9b2ec06a)"><path fill="#100f0d" d="M 6.957031 27.871094 C 6.949219 27.871094 6.945312 27.871094 6.9375 27.871094 C 6.523438 27.867188 6.144531 27.648438 5.929688 27.285156 C 5.714844 26.921875 5.695312 26.480469 5.882812 26.101562 C 7.519531 22.746094 9.089844 19.453125 10.335938 16.0625 C 10.929688 14.273438 11.167969 12.203125 11.007812 11.472656 L 10.503906 9.191406 C 10.363281 8.554688 10.1875 7.761719 10.46875 7.035156 C 10.632812 6.617188 10.957031 6.253906 11.273438 5.902344 C 11.609375 5.523438 11.929688 5.167969 11.988281 4.8125 C 12.007812 4.683594 12.125 4.601562 12.246094 4.621094 C 12.367188 4.640625 12.453125 4.757812 12.433594 4.882812 C 12.355469 5.375 11.972656 5.800781 11.601562 6.214844 C 11.316406 6.535156 11.019531 6.867188 10.886719 7.203125 C 10.675781 7.753906 10.785156 8.382812 10.941406 9.089844 L 11.445312 11.371094 C 11.644531 12.277344 11.332031 14.496094 10.757812 16.21875 C 9.503906 19.632812 7.925781 22.9375 6.285156 26.304688 C 6.167969 26.542969 6.179688 26.820312 6.316406 27.046875 C 6.449219 27.273438 6.6875 27.410156 6.945312 27.414062 C 6.949219 27.414062 6.953125 27.414062 6.957031 27.414062 C 7.226562 27.414062 7.476562 27.265625 7.609375 27.023438 C 9.25 24.050781 11.164062 20.5 12.921875 16.679688 C 12.976562 16.566406 13.109375 16.515625 13.222656 16.570312 C 13.335938 16.625 13.382812 16.761719 13.332031 16.878906 C 11.566406 20.707031 9.644531 24.273438 8 27.25 C 7.789062 27.636719 7.386719 27.871094 6.957031 27.871094 " fill-opacity="1" fill-rule="nonzero"/></g><path fill="#100f0d" d="M 13.125 17.007812 C 13.097656 17.007812 13.0625 17.003906 13.035156 16.988281 C 12.921875 16.9375 12.871094 16.796875 12.921875 16.683594 C 13.867188 14.574219 14.613281 12.90625 15.21875 10.960938 C 15.257812 10.84375 15.382812 10.773438 15.503906 10.8125 C 15.621094 10.851562 15.6875 10.980469 15.648438 11.101562 C 15.035156 13.074219 14.285156 14.75 13.332031 16.875 C 13.292969 16.957031 13.210938 17.007812 13.125 17.007812 " fill-opacity="1" fill-rule="nonzero"/><path fill="#100f0d" d="M 17.75 8.496094 C 17.742188 8.496094 17.730469 8.496094 17.71875 8.496094 C 16.679688 8.335938 15.667969 8.027344 14.714844 7.578125 L 14.589844 7.519531 C 14.296875 7.378906 14.019531 7.246094 13.726562 7.207031 C 13.453125 7.171875 13.101562 7.246094 12.941406 7.488281 C 12.875 7.59375 12.734375 7.625 12.628906 7.554688 C 12.527344 7.484375 12.5 7.339844 12.566406 7.234375 C 12.800781 6.875 13.28125 6.683594 13.785156 6.75 C 14.144531 6.800781 14.46875 6.953125 14.78125 7.101562 L 14.902344 7.160156 C 15.820312 7.589844 16.789062 7.886719 17.785156 8.039062 C 17.910156 8.058594 17.992188 8.175781 17.972656 8.300781 C 17.957031 8.414062 17.863281 8.496094 17.75 8.496094 " fill-opacity="1" fill-rule="nonzero"/><g clip-path="url(#dc2ee6982c)"><path fill="#100f0d" d="M 21.296875 6.226562 C 21.351562 6.226562 21.40625 6.246094 21.445312 6.285156 C 21.511719 6.347656 21.539062 6.445312 21.511719 6.53125 C 21.238281 7.367188 21.460938 8.296875 22.027344 8.851562 C 22.070312 8.304688 22.171875 7.742188 22.445312 7.199219 C 22.488281 7.113281 22.53125 7.027344 22.578125 6.945312 C 22.84375 6.425781 23.121094 5.886719 23.25 5.324219 C 23.386719 4.710938 23.320312 4.109375 23.0625 3.710938 C 22.882812 3.425781 22.617188 3.246094 22.265625 3.175781 C 21.777344 3.078125 21.433594 3.371094 20.703125 4.042969 L 20.613281 4.125 C 20.097656 4.554688 19.746094 5.257812 19.808594 5.726562 C 19.84375 6.007812 19.957031 6.203125 20.144531 6.3125 C 20.402344 6.460938 20.800781 6.433594 21.203125 6.25 C 21.234375 6.234375 21.265625 6.226562 21.296875 6.226562 Z M 22.226562 9.527344 C 22.1875 9.527344 22.148438 9.515625 22.113281 9.492188 C 21.257812 8.96875 20.8125 7.871094 20.980469 6.8125 C 20.585938 6.90625 20.210938 6.875 19.925781 6.714844 C 19.703125 6.589844 19.429688 6.328125 19.359375 5.789062 C 19.28125 5.152344 19.683594 4.304688 20.320312 3.773438 L 20.402344 3.699219 C 21.136719 3.023438 21.625 2.578125 22.351562 2.726562 C 22.820312 2.816406 23.199219 3.070312 23.441406 3.460938 C 23.761719 3.960938 23.851562 4.699219 23.6875 5.429688 C 23.546875 6.046875 23.257812 6.613281 22.976562 7.15625 C 22.933594 7.242188 22.890625 7.328125 22.847656 7.410156 C 22.539062 8.019531 22.476562 8.679688 22.453125 9.304688 C 22.449219 9.386719 22.40625 9.457031 22.335938 9.496094 C 22.300781 9.515625 22.265625 9.527344 22.226562 9.527344 " fill-opacity="1" fill-rule="nonzero"/></g></svg>