<svg xmlns="http://www.w3.org/2000/svg" xmlns:xlink="http://www.w3.org/1999/xlink" width="80" zoomAndPan="magnify" viewBox="0 0 60 60" height="80" preserveAspectRatio="xMidYMid meet" version="1.0"><defs><clipPath id="a27413b582"><path d="M 22 1.679688 L 30 1.679688 L 30 12 L 22 12 Z M 22 1.679688 " clip-rule="nonzero"/></clipPath><clipPath id="eb6d4a4dd9"><path d="M 18 24 L 49 24 L 49 58.679688 L 18 58.679688 Z M 18 24 " clip-rule="nonzero"/></clipPath><clipPath id="0eed6a67a6"><path d="M 10.460938 9 L 28 9 L 28 58.679688 L 10.460938 58.679688 Z M 10.460938 9 " clip-rule="nonzero"/></clipPath><clipPath id="f7697162c8"><path d="M 40 5 L 50.210938 5 L 50.210938 20 L 40 20 Z M 40 5 " clip-rule="nonzero"/></clipPath></defs><g clip-path="url(#a27413b582)"><path fill="#100f0d" d="M 25.613281 2.703125 C 24.730469 2.703125 23.941406 3.246094 23.503906 4.15625 C 23.285156 4.609375 23.15625 5.539062 23.777344 7.417969 C 23.988281 8.054688 24.503906 9.207031 25.605469 9.769531 C 26.5 10.226562 27.621094 10.097656 28.214844 9.46875 C 28.609375 9.050781 28.824219 8.40625 28.878906 7.5 C 28.953125 6.242188 28.71875 5.132812 28.203125 4.289062 C 27.617188 3.335938 26.609375 2.714844 25.636719 2.703125 C 25.628906 2.703125 25.621094 2.703125 25.613281 2.703125 Z M 26.746094 11.019531 C 26.207031 11.019531 25.65625 10.894531 25.152344 10.636719 C 24.105469 10.101562 23.285156 9.066406 22.839844 7.722656 C 22.25 5.945312 22.175781 4.640625 22.613281 3.734375 C 23.21875 2.476562 24.339844 1.730469 25.613281 1.730469 C 25.625 1.730469 25.632812 1.730469 25.644531 1.730469 C 26.972656 1.742188 28.277344 2.527344 29.046875 3.785156 C 29.667969 4.796875 29.953125 6.101562 29.863281 7.554688 C 29.796875 8.699219 29.492188 9.542969 28.9375 10.132812 C 28.386719 10.714844 27.582031 11.019531 26.746094 11.019531 " fill-opacity="1" fill-rule="nonzero"/></g><path fill="#100f0d" d="M 39.488281 25.585938 C 39.246094 25.585938 39 25.558594 38.75 25.507812 L 38.824219 25.023438 L 38.714844 25.5 C 35.628906 24.824219 32.613281 23.707031 30 22.277344 C 29.761719 22.144531 29.675781 21.847656 29.804688 21.613281 C 29.9375 21.375 30.238281 21.292969 30.476562 21.421875 C 33.011719 22.808594 35.933594 23.890625 38.929688 24.546875 L 38.855469 25.03125 L 38.957031 24.554688 C 39.660156 24.703125 40.378906 24.546875 40.976562 24.125 C 41.605469 23.679688 42.015625 22.988281 42.109375 22.226562 C 42.179688 21.617188 42.035156 21.363281 41.691406 20.753906 L 41.617188 20.621094 C 41.484375 20.386719 41.570312 20.089844 41.808594 19.957031 C 42.046875 19.828125 42.347656 19.910156 42.480469 20.148438 L 42.550781 20.273438 C 42.925781 20.9375 43.199219 21.414062 43.085938 22.339844 C 42.964844 23.371094 42.40625 24.3125 41.554688 24.917969 C 40.933594 25.359375 40.21875 25.585938 39.488281 25.585938 " fill-opacity="1" fill-rule="nonzero"/><path fill="#100f0d" d="M 36.984375 14.46875 C 36.875 14.46875 36.765625 14.464844 36.664062 14.460938 C 35.167969 14.367188 33.746094 13.785156 32.492188 13.269531 L 29.449219 12.023438 C 29.199219 11.921875 29.078125 11.632812 29.183594 11.386719 C 29.285156 11.136719 29.574219 11.019531 29.828125 11.121094 L 32.867188 12.367188 C 34.109375 12.875 35.394531 13.402344 36.722656 13.484375 C 38.039062 13.5625 39.730469 13.03125 40.425781 11.855469 C 40.5625 11.621094 40.867188 11.542969 41.101562 11.679688 C 41.335938 11.8125 41.414062 12.113281 41.277344 12.34375 C 40.398438 13.832031 38.503906 14.46875 36.984375 14.46875 " fill-opacity="1" fill-rule="nonzero"/><g clip-path="url(#eb6d4a4dd9)"><path fill="#100f0d" d="M 33.492188 58.453125 C 28.242188 58.453125 21.527344 57.652344 18.242188 55.402344 C 18.015625 55.25 17.960938 54.945312 18.117188 54.722656 C 18.269531 54.5 18.578125 54.445312 18.804688 54.597656 C 21.429688 56.394531 27.121094 57.496094 33.660156 57.476562 C 39.789062 57.457031 45.125 56.417969 47.457031 54.8125 C 46.824219 53.226562 45.972656 50.972656 45.078125 48.601562 C 43.140625 43.480469 40.734375 37.109375 39.316406 34.242188 C 38.382812 32.355469 37.703125 30.742188 37.40625 28.988281 C 37.148438 27.457031 37.257812 26.925781 37.488281 25.75 C 37.542969 25.476562 37.605469 25.164062 37.671875 24.785156 C 37.71875 24.519531 37.976562 24.34375 38.242188 24.390625 C 38.511719 24.4375 38.691406 24.6875 38.644531 24.957031 C 38.574219 25.335938 38.511719 25.65625 38.457031 25.9375 C 38.234375 27.054688 38.152344 27.472656 38.378906 28.828125 C 38.65625 30.464844 39.308594 32.003906 40.203125 33.8125 C 41.644531 36.722656 43.957031 42.851562 46 48.257812 C 46.964844 50.804688 47.871094 53.210938 48.511719 54.800781 C 48.59375 54.996094 48.53125 55.222656 48.363281 55.359375 C 45.546875 57.613281 38.921875 58.4375 33.664062 58.453125 C 33.605469 58.453125 33.550781 58.453125 33.492188 58.453125 " fill-opacity="1" fill-rule="nonzero"/></g><path fill="#100f0d" d="M 40.03125 21.644531 C 39.945312 21.644531 39.867188 21.644531 39.796875 21.644531 C 39.785156 21.644531 39.777344 21.644531 39.769531 21.640625 C 39.484375 21.625 32.765625 21.097656 25.804688 15.738281 C 25.589844 15.570312 25.550781 15.265625 25.71875 15.050781 C 25.886719 14.839844 26.195312 14.800781 26.410156 14.964844 C 32.988281 20.03125 39.5 20.640625 39.824219 20.667969 C 40.828125 20.679688 41.488281 20.566406 41.710938 19.957031 C 41.796875 19.71875 41.785156 19.4375 41.671875 19.160156 C 41.628906 19.050781 41.582031 18.9375 41.535156 18.8125 C 41.449219 18.589844 41.351562 18.347656 41.246094 18.097656 C 40.8125 17.101562 40.800781 15.972656 41.214844 15.007812 C 41.496094 14.347656 41.90625 13.742188 42.441406 13.210938 C 42.632812 13.019531 42.945312 13.015625 43.140625 13.207031 C 43.332031 13.394531 43.335938 13.703125 43.144531 13.894531 C 42.699219 14.339844 42.355469 14.839844 42.125 15.386719 C 41.8125 16.109375 41.824219 16.960938 42.152344 17.714844 C 42.265625 17.976562 42.363281 18.230469 42.453125 18.460938 C 42.5 18.582031 42.542969 18.691406 42.585938 18.796875 C 42.789062 19.296875 42.808594 19.824219 42.636719 20.289062 C 42.183594 21.546875 40.84375 21.644531 40.03125 21.644531 " fill-opacity="1" fill-rule="nonzero"/><g clip-path="url(#0eed6a67a6)"><path fill="#100f0d" d="M 13.207031 58.632812 C 13.191406 58.632812 13.179688 58.632812 13.167969 58.632812 C 12.257812 58.621094 11.433594 58.152344 10.960938 57.386719 C 10.488281 56.617188 10.445312 55.679688 10.851562 54.875 C 14.4375 47.75 17.882812 40.761719 20.609375 33.566406 C 21.914062 29.761719 22.433594 25.371094 22.078125 23.820312 L 20.980469 18.984375 C 20.671875 17.628906 20.285156 15.941406 20.90625 14.402344 C 21.257812 13.515625 21.972656 12.746094 22.660156 12 C 23.402344 11.199219 24.105469 10.4375 24.226562 9.683594 C 24.273438 9.414062 24.527344 9.234375 24.792969 9.277344 C 25.0625 9.320312 25.246094 9.570312 25.203125 9.839844 C 25.03125 10.882812 24.195312 11.785156 23.386719 12.660156 C 22.761719 13.339844 22.109375 14.042969 21.820312 14.765625 C 21.355469 15.929688 21.597656 17.265625 21.941406 18.765625 L 23.042969 23.605469 C 23.480469 25.527344 22.792969 30.242188 21.535156 33.894531 C 18.789062 41.144531 15.332031 48.160156 11.738281 55.308594 C 11.484375 55.8125 11.507812 56.398438 11.804688 56.878906 C 12.097656 57.359375 12.613281 57.648438 13.179688 57.65625 C 13.191406 57.65625 13.199219 57.65625 13.207031 57.65625 C 13.800781 57.65625 14.34375 57.34375 14.636719 56.832031 C 18.234375 50.523438 22.429688 42.984375 26.28125 34.878906 C 26.394531 34.632812 26.6875 34.527344 26.9375 34.644531 C 27.183594 34.757812 27.289062 35.050781 27.171875 35.292969 C 23.308594 43.425781 19.101562 50.988281 15.496094 57.3125 C 15.03125 58.128906 14.15625 58.632812 13.207031 58.632812 " fill-opacity="1" fill-rule="nonzero"/></g><path fill="#100f0d" d="M 26.722656 35.574219 C 26.65625 35.574219 26.585938 35.5625 26.519531 35.53125 C 26.273438 35.417969 26.164062 35.128906 26.277344 34.882812 C 28.347656 30.40625 29.984375 26.867188 31.308594 22.738281 C 31.390625 22.484375 31.671875 22.339844 31.929688 22.421875 C 32.1875 22.503906 32.332031 22.78125 32.25 23.039062 C 30.90625 27.21875 29.257812 30.78125 27.175781 35.289062 C 27.089844 35.46875 26.914062 35.574219 26.722656 35.574219 " fill-opacity="1" fill-rule="nonzero"/><path fill="#100f0d" d="M 36.855469 17.507812 C 36.832031 17.507812 36.808594 17.507812 36.78125 17.503906 C 34.507812 17.164062 32.296875 16.507812 30.207031 15.558594 L 29.929688 15.429688 C 29.285156 15.132812 28.679688 14.851562 28.039062 14.769531 C 27.4375 14.691406 26.671875 14.847656 26.320312 15.367188 C 26.167969 15.59375 25.863281 15.652344 25.636719 15.503906 C 25.410156 15.355469 25.347656 15.050781 25.5 14.828125 C 26.011719 14.0625 27.0625 13.660156 28.164062 13.800781 C 28.957031 13.902344 29.664062 14.230469 30.347656 14.546875 L 30.617188 14.671875 C 32.625 15.582031 34.75 16.210938 36.929688 16.539062 C 37.199219 16.578125 37.382812 16.828125 37.34375 17.09375 C 37.308594 17.332031 37.097656 17.507812 36.855469 17.507812 " fill-opacity="1" fill-rule="nonzero"/><g clip-path="url(#f7697162c8)"><path fill="#100f0d" d="M 44.621094 12.691406 C 44.742188 12.691406 44.859375 12.730469 44.949219 12.8125 C 45.097656 12.941406 45.152344 13.148438 45.089844 13.332031 C 44.492188 15.109375 44.980469 17.078125 46.222656 18.257812 C 46.316406 17.097656 46.539062 15.902344 47.140625 14.753906 C 47.234375 14.574219 47.332031 14.390625 47.425781 14.210938 C 48.011719 13.109375 48.617188 11.96875 48.898438 10.773438 C 49.203125 9.472656 49.050781 8.191406 48.496094 7.34375 C 48.101562 6.742188 47.511719 6.359375 46.742188 6.210938 C 45.675781 6.003906 44.921875 6.625 43.320312 8.046875 L 43.121094 8.226562 C 41.996094 9.136719 41.230469 10.628906 41.359375 11.628906 C 41.4375 12.226562 41.6875 12.640625 42.097656 12.867188 C 42.664062 13.179688 43.53125 13.128906 44.417969 12.734375 C 44.484375 12.703125 44.554688 12.691406 44.621094 12.691406 Z M 46.660156 19.691406 C 46.574219 19.691406 46.484375 19.664062 46.410156 19.621094 C 44.535156 18.511719 43.558594 16.179688 43.929688 13.929688 C 43.066406 14.132812 42.242188 14.066406 41.617188 13.722656 C 41.136719 13.457031 40.53125 12.902344 40.382812 11.757812 C 40.203125 10.40625 41.089844 8.609375 42.480469 7.484375 L 42.664062 7.320312 C 44.273438 5.890625 45.339844 4.945312 46.933594 5.253906 C 47.960938 5.453125 48.785156 5.988281 49.324219 6.8125 C 50.023438 7.878906 50.222656 9.441406 49.859375 10.992188 C 49.550781 12.308594 48.914062 13.503906 48.300781 14.664062 C 48.207031 14.839844 48.109375 15.023438 48.019531 15.203125 C 47.34375 16.492188 47.203125 17.894531 47.15625 19.21875 C 47.148438 19.390625 47.050781 19.546875 46.898438 19.628906 C 46.824219 19.667969 46.742188 19.691406 46.660156 19.691406 " fill-opacity="1" fill-rule="nonzero"/></g></svg>